<svg width="58" height="54" viewBox="0 0 58 54" fill="none" xmlns="http://www.w3.org/2000/svg">
<path d="M22.2973 42.9256H36.3756C59.7336 42.9256 57.9696 20.0255 57.9696 20.0255C57.9696 20.0255 57.5642 0 31.8069 0C24.4375 0.00419646 12.6624 2.09403 6.68915 3.53761L6.31294 8.36354C10.9653 7.72987 22.3266 6.64719 28.8307 6.64719C38.7081 6.64719 46.9009 10.2813 46.9009 21.1334C46.9009 30.9153 41.8431 35.4978 36.2628 35.4978H33.8384L35.7027 11.0786H21.6244C-1.7336 11.0786 0.0303727 33.9745 0.0303727 33.9745C0.0303727 33.9745 0.435835 54 26.1931 54C33.5667 54 45.3418 51.9102 51.315 50.4666L51.6912 45.6407C47.0389 46.2743 35.6776 47.357 29.1735 47.357C19.2961 47.357 11.1074 43.7229 11.1074 32.8708C11.1074 23.0889 16.1653 18.5064 21.7456 18.5064H24.17L22.3057 42.9256H22.2973Z" fill="#FD4F00"/>
</svg>
