<svg width="174" height="175" viewBox="0 0 174 175" fill="none" xmlns="http://www.w3.org/2000/svg">
<rect x="0.0673828" y="26.8486" width="150" height="150" rx="30" transform="rotate(-10 0.0673828 26.8486)" fill="#FD4F00"/>
<path d="M80.4281 114.577L103.376 110.531C141.45 103.817 132.058 67.3636 132.058 67.3636C132.058 67.3636 125.698 35.1591 83.7128 42.5622C71.7017 44.6871 53.1027 51.4445 43.777 55.4912L44.5371 63.3883C51.9403 61.0284 70.1514 56.0155 80.7532 54.1461C96.8537 51.3072 111.242 54.8179 114.331 72.333C117.115 88.1209 110.174 96.9708 101.078 98.5747L97.1265 99.2715L93.2159 59.3234L70.2678 63.3697C32.1938 70.0832 41.585 106.53 41.585 106.53C41.585 106.53 47.945 138.734 89.93 131.331C101.949 129.212 120.548 122.455 129.874 118.408L129.114 110.511C121.711 112.871 103.499 117.883 92.8976 119.753C76.7972 122.592 62.4152 119.08 59.3268 101.565C56.543 85.7769 63.4832 76.927 72.5793 75.3231L76.5312 74.6263L80.4418 114.574L80.4281 114.577Z" fill="black"/>
</svg>
