<svg width="49" height="48" viewBox="0 0 49 48" fill="none" xmlns="http://www.w3.org/2000/svg">
<rect x="0.666504" width="48" height="48" rx="7" fill="#FFFFFD"/>
<path d="M24.6659 5.23145C18.9947 5.23145 14.4285 9.79761 14.4285 15.4688V17.175C12.5635 17.175 11.0161 18.7224 11.0161 20.5874V37.6496C11.0161 39.5146 12.5635 41.062 14.4285 41.062H34.9032C36.7682 41.062 38.3156 39.5146 38.3156 37.6496V20.5874C38.3156 18.7224 36.7682 17.175 34.9032 17.175V15.4688C34.9032 9.79761 30.337 5.23145 24.6659 5.23145ZM24.6659 8.64388C28.5495 8.64388 31.4907 11.5851 31.4907 15.4688V17.175H17.841V15.4688C17.841 11.5851 20.7822 8.64388 24.6659 8.64388ZM14.4285 20.5874H34.9032V37.6496H14.4285V20.5874ZM24.6659 25.7061C22.789 25.7061 21.2534 27.2416 21.2534 29.1185C21.2534 30.9953 22.789 32.5309 24.6659 32.5309C26.5427 32.5309 28.0783 30.9953 28.0783 29.1185C28.0783 27.2416 26.5427 25.7061 24.6659 25.7061Z" fill="url(#paint0_linear_24_217)"/>
<defs>
<linearGradient id="paint0_linear_24_217" x1="11.0161" y1="41.062" x2="45.0611" y2="-0.729324" gradientUnits="userSpaceOnUse">
<stop stop-color="#08489F"/>
<stop offset="1" stop-color="#65DCFE"/>
</linearGradient>
</defs>
</svg>
