<svg width="48" height="48" viewBox="0 0 48 48" fill="none" xmlns="http://www.w3.org/2000/svg">
<rect width="48" height="48" rx="7" fill="#FFFFFD"/>
<path d="M32.8213 9.88574C31.8474 9.88574 31.0571 10.6761 31.0571 11.65V36.3496C31.0571 37.3235 31.8474 38.1139 32.8213 38.1139H39.8783C40.8522 38.1139 41.6426 37.3235 41.6426 36.3496V11.65C41.6426 10.6761 40.8522 9.88574 39.8783 9.88574H32.8213ZM20.4715 16.9428C19.4976 16.9428 18.7072 17.7332 18.7072 18.707V36.3496C18.7072 37.3235 19.4976 38.1139 20.4715 38.1139H27.5285C28.5024 38.1139 29.2928 37.3235 29.2928 36.3496V18.707C29.2928 17.7332 28.5024 16.9428 27.5285 16.9428H20.4715ZM8.12168 23.9998C7.14781 23.9998 6.35742 24.7902 6.35742 25.7641V36.3496C6.35742 37.3235 7.14781 38.1139 8.12168 38.1139H15.1787C16.1526 38.1139 16.943 37.3235 16.943 36.3496V25.7641C16.943 24.7902 16.1526 23.9998 15.1787 23.9998H8.12168Z" fill="url(#paint0_linear_24_170)"/>
<defs>
<linearGradient id="paint0_linear_24_170" x1="7.77612" y1="36.7834" x2="41.6426" y2="20.3173" gradientUnits="userSpaceOnUse">
<stop stop-color="#F8E482"/>
<stop offset="1" stop-color="#E8B613"/>
</linearGradient>
</defs>
</svg>
