<svg width="49" height="48" viewBox="0 0 49 48" fill="none" xmlns="http://www.w3.org/2000/svg">
<rect x="0.666504" width="48" height="48" rx="7" fill="#FFFFFD"/>
<path d="M23.7429 7.9707C23.3518 7.9707 23.015 8.25437 22.9509 8.64068L22.4969 11.3738C21.7167 11.5079 20.9624 11.7153 20.2365 11.9843L18.4708 9.84287C18.2224 9.53992 17.79 9.461 17.4502 9.65816L15.8535 10.5817C15.5137 10.7773 15.365 11.1899 15.5029 11.5554L16.4734 14.1476C15.8716 14.6491 15.3156 15.2051 14.8141 15.8069L12.2219 14.8364C11.8564 14.6985 11.4438 14.8472 11.2482 15.187L10.3247 16.7837C10.1275 17.1235 10.2064 17.5558 10.5094 17.8043L12.6508 19.57C12.3818 20.2959 12.1744 21.0502 12.0403 21.8304L9.30718 22.2844C8.92088 22.3501 8.63721 22.6837 8.63721 23.0764V24.9236C8.63721 25.3147 8.92088 25.6515 9.30718 25.7156L12.0403 26.1696C12.1744 26.9498 12.3818 27.7041 12.6508 28.43L10.5094 30.1957C10.2064 30.4442 10.1291 30.8765 10.3247 31.2163L11.2482 32.813C11.4438 33.1528 11.8564 33.3015 12.2219 33.1636L14.8141 32.1931C15.3156 32.7949 15.8716 33.3509 16.4734 33.8524L15.5029 36.4446C15.365 36.8117 15.5153 37.2227 15.8535 37.4183L17.4502 38.3418C17.79 38.5374 18.2224 38.4585 18.4708 38.1571L20.2334 36.0157C20.9601 36.2852 21.7157 36.4919 22.4969 36.6262L22.9509 39.3593C23.0166 39.7456 23.3502 40.0293 23.7429 40.0293H25.5901C25.9812 40.0293 26.318 39.7456 26.3821 39.3593L26.8361 36.6262C27.6163 36.4921 28.3706 36.2847 29.0965 36.0157L30.8622 38.1571C31.1107 38.4601 31.543 38.5374 31.8828 38.3418L33.4795 37.4183C33.8193 37.2227 33.968 36.8101 33.8301 36.4446L32.8596 33.8524C33.4614 33.3509 34.0174 32.7949 34.5189 32.1931L37.1111 33.1636C37.4782 33.3015 37.8892 33.1512 38.0848 32.813L39.0083 31.2163C39.2039 30.8765 39.125 30.4442 38.8236 30.1957L36.6822 28.4331C36.9517 27.7064 37.1584 26.9508 37.2927 26.1696L40.0258 25.7156C40.4121 25.6499 40.6958 25.3163 40.6958 24.9236V23.0764C40.6958 22.6853 40.4121 22.3485 40.0258 22.2844L37.2927 21.8304C37.1586 21.0502 36.9512 20.2959 36.6822 19.57L38.8236 17.8043C39.1266 17.5558 39.2039 17.1235 39.0083 16.7837L38.0848 15.187C37.8892 14.8472 37.4766 14.6985 37.1111 14.8364L34.5189 15.8069C34.0174 15.2051 33.4614 14.6491 32.8596 14.1476L33.8301 11.5554C33.968 11.1883 33.8177 10.7773 33.4795 10.5817L31.8828 9.65816C31.543 9.4626 31.1107 9.54152 30.8622 9.84287L29.0996 11.9843C28.3729 11.7148 27.6173 11.5081 26.8361 11.3738L26.3821 8.64068C26.3164 8.25437 25.9828 7.9707 25.5901 7.9707H23.7429ZM23.0636 14.5264V19.4918C21.2085 20.1608 19.8577 21.9272 19.8577 24C19.8577 24.2996 19.8918 24.5915 19.9454 24.8766L15.6563 27.353C15.2698 26.3087 15.0489 25.1824 15.0489 24C15.0489 19.2171 18.5038 15.2862 23.0636 14.5264ZM26.2694 14.5264C30.8292 15.2862 34.2841 19.2171 34.2841 24C34.2841 25.1828 34.0603 26.3084 33.6736 27.353L29.3876 24.8766C29.4412 24.5915 29.4753 24.2996 29.4753 24C29.4753 21.9272 28.1246 20.1608 26.2694 19.4918V14.5264ZM24.6665 22.3971C25.5708 22.3971 26.2694 23.0957 26.2694 24C26.2694 24.9043 25.5708 25.6029 24.6665 25.6029C23.7622 25.6029 23.0636 24.9043 23.0636 24C23.0636 23.0957 23.7622 22.3971 24.6665 22.3971ZM21.5702 27.6379C22.4114 28.3563 23.4852 28.8088 24.6665 28.8088C25.8478 28.8088 26.9216 28.3563 27.7628 27.6379L32.0863 30.1331C30.3255 32.2647 27.6618 33.6176 24.6665 33.6176C21.6712 33.6176 19.0075 32.2647 17.2467 30.1331L21.5702 27.6379Z" fill="url(#paint0_linear_24_187)"/>
<defs>
<linearGradient id="paint0_linear_24_187" x1="24.6665" y1="40.0293" x2="24.6665" y2="7.9707" gradientUnits="userSpaceOnUse">
<stop stop-color="#004482"/>
<stop offset="1" stop-color="#6DADE8"/>
</linearGradient>
</defs>
</svg>
