<svg width="48" height="48" viewBox="0 0 48 48" fill="none" xmlns="http://www.w3.org/2000/svg">
<rect width="48" height="48" rx="7" fill="white"/>
<g clip-path="url(#clip0_24_196)">
<path d="M33.4804 27.126C33.2788 27.126 33.11 27.277 33.0866 27.4771L32.9034 29.0586C32.1468 29.3212 31.464 29.7197 30.87 30.234L29.4046 29.599C29.2201 29.5193 29.0069 29.5918 28.9069 29.7669L27.4414 32.301C27.3414 32.476 27.3873 32.6981 27.5483 32.8169L28.8092 33.7512C28.7357 34.1388 28.6901 34.5355 28.6901 34.9419C28.6901 35.3483 28.7342 35.7434 28.8092 36.1295L27.5513 37.0668C27.3903 37.1872 27.3429 37.4093 27.4445 37.5828L28.9069 40.1169C29.0069 40.2919 29.2232 40.3615 29.4076 40.2817L30.87 39.6497C31.4625 40.1625 32.1468 40.5626 32.9034 40.8252L33.0866 42.4067C33.1085 42.6083 33.2788 42.7578 33.4804 42.7578H36.4053C36.6069 42.7578 36.7757 42.6068 36.7991 42.4067L36.9823 40.8252C37.7389 40.5626 38.4217 40.164 39.0157 39.6497L40.4812 40.2848C40.6656 40.3645 40.8788 40.2904 40.9788 40.1169L42.4443 37.5828C42.5443 37.4077 42.4985 37.1856 42.3374 37.0668L41.0765 36.1295C41.1516 35.7434 41.1956 35.3483 41.1956 34.9419C41.1956 34.5355 41.1516 34.1403 41.0765 33.7542L42.3344 32.8169C42.4954 32.6966 42.5429 32.4745 42.4412 32.301L40.9788 29.7669C40.8788 29.5918 40.6626 29.5223 40.4781 29.602L39.0157 30.234C38.4232 29.7213 37.7389 29.3212 36.9823 29.0586L36.7991 27.4771C36.7773 27.2754 36.6069 27.126 36.4053 27.126H33.4804ZM34.9429 32.2063C36.4529 32.2063 37.6784 33.4303 37.6784 34.9419C37.6784 36.4519 36.4529 37.6775 34.9429 37.6775C33.4328 37.6775 32.2073 36.4519 32.2073 34.9419C32.2073 33.4303 33.4328 32.2063 34.9429 32.2063Z" fill="url(#paint0_linear_24_196)"/>
<path d="M14.6205 8.36816C12.8932 8.36816 11.4941 9.76721 11.4941 11.4945V36.5054C11.4941 38.2327 12.8932 39.6318 14.6205 39.6318H25.0132L24.7354 39.1464C24.2571 38.3179 24.1546 37.3714 24.3782 36.5054H14.6205V30.2527H25.0163L26.1978 28.2041C26.4526 27.7648 26.7947 27.4077 27.184 27.1263H14.6205V20.8736H33.3787V24.0091C33.4131 24.0091 33.4466 24 33.4794 24H36.4043C36.4387 24 36.4692 24.0091 36.502 24.0091V11.4945C36.502 9.76721 35.1029 8.36816 33.3756 8.36816H14.6205ZM14.6205 11.4945H33.3787V17.7473H14.6205V11.4945Z" fill="url(#paint1_linear_24_196)"/>
</g>
<defs>
<linearGradient id="paint0_linear_24_196" x1="34.9429" y1="27.126" x2="34.9429" y2="42.7578" gradientUnits="userSpaceOnUse">
<stop stop-color="#FE4C4E"/>
<stop offset="1" stop-color="#982E2F"/>
</linearGradient>
<linearGradient id="paint1_linear_24_196" x1="23.9981" y1="39.6318" x2="23.9981" y2="8.36816" gradientUnits="userSpaceOnUse">
<stop stop-color="#586971"/>
<stop offset="1" stop-color="#B1B1B1"/>
</linearGradient>
<clipPath id="clip0_24_196">
<rect width="37.5164" height="37.5164" fill="white" transform="translate(5.24219 5.2417)"/>
</clipPath>
</defs>
</svg>
