<svg width="49" height="48" viewBox="0 0 49 48" fill="none" xmlns="http://www.w3.org/2000/svg">
<rect x="0.333496" width="48" height="48" rx="7" fill="#FFFFFD"/>
<g clip-path="url(#clip0_24_178)">
<path d="M24.3335 9.96094C21.2788 9.96094 18.4146 11.4781 16.6772 13.9661C12.0466 14.1368 8.3335 17.9569 8.3335 22.6276C8.3335 26.3996 10.7597 29.6063 14.1304 30.7943L15.0002 29.0573V28.2578C12.6775 27.4298 11.0002 25.2303 11.0002 22.6276C11.0002 19.3196 13.6922 16.6276 17.0002 16.6276L18.146 16.6901L18.5575 15.9792C19.7468 13.9112 21.9602 12.6276 24.3335 12.6276C27.6295 12.6276 30.393 14.9914 30.909 18.2474L31.1095 19.526L32.5757 19.3359C32.7157 19.3173 32.8548 19.2943 33.0002 19.2943C35.5735 19.2943 37.6668 21.3876 37.6668 23.9609C37.6668 26.3063 35.9228 28.2332 33.6668 28.5599V29.0573L34.6851 31.0911C37.9184 30.3271 40.3335 27.4249 40.3335 23.9609C40.3335 20.0089 37.1909 16.7768 33.2736 16.6328C32.1189 12.7021 28.5322 9.96094 24.3335 9.96094ZM17.6668 26V29.6849L16.172 32.6745C15.4945 32.7156 14.8581 33.0135 14.3926 33.5075C13.9271 34.0016 13.6676 34.6545 13.6668 35.3333C13.6668 36.0406 13.9478 36.7189 14.4479 37.219C14.948 37.719 15.6263 38 16.3335 38C17.0407 38 17.719 37.719 18.2191 37.219C18.7192 36.7189 19.0002 36.0406 19.0002 35.3333C18.9996 34.811 18.8457 34.3002 18.5575 33.8646L20.3335 30.3151V26H17.6668ZM23.0002 26V33.0286C22.5955 33.2623 22.2593 33.5982 22.0253 34.0027C21.7913 34.4072 21.6677 34.866 21.6668 35.3333C21.6668 36.0406 21.9478 36.7189 22.4479 37.219C22.948 37.719 23.6263 38 24.3335 38C25.0407 38 25.719 37.719 26.2191 37.219C26.7192 36.7189 27.0002 36.0406 27.0002 35.3333C26.9998 34.8656 26.8764 34.4062 26.6424 34.0012C26.4083 33.5962 26.0719 33.2599 25.6668 33.026V26H23.0002ZM28.3335 26V30.3151L30.1095 33.8672C29.8218 34.3021 29.6679 34.8118 29.6668 35.3333C29.6668 36.0406 29.9478 36.7189 30.4479 37.219C30.948 37.719 31.6263 38 32.3335 38C33.0407 38 33.719 37.719 34.2191 37.219C34.7192 36.7189 35.0002 36.0406 35.0002 35.3333C34.9994 34.6545 34.7399 34.0016 34.2744 33.5075C33.8089 33.0135 33.1725 32.7156 32.495 32.6745L31.0002 29.6849V26H28.3335Z" fill="url(#paint0_linear_24_178)"/>
</g>
<defs>
<linearGradient id="paint0_linear_24_178" x1="24.3335" y1="9.96094" x2="24.3335" y2="38" gradientUnits="userSpaceOnUse">
<stop stop-color="#29AFE5"/>
<stop offset="1" stop-color="#325BA7"/>
</linearGradient>
<clipPath id="clip0_24_178">
<rect width="32" height="32" fill="white" transform="translate(8.3335 6)"/>
</clipPath>
</defs>
</svg>
