<svg width="49" height="48" viewBox="0 0 49 48" fill="none" xmlns="http://www.w3.org/2000/svg">
<rect x="0.333496" width="48" height="48" rx="7" fill="#FFFFFD"/>
<path d="M29.5172 6.72461V13.6348V17.0899V20.545H26.0621L24.3346 15.3624L17.4244 20.545L15.6968 15.3624L8.78662 20.545V39.548H39.8825V6.72461H29.5172ZM32.9723 10.1797H36.4274V13.6348H32.9723V10.1797ZM32.9723 17.0899H36.4274V36.0929H32.9723V34.3654H29.5172V36.0929H26.0621V34.3654H22.607V36.0929H19.1519V34.3654H15.6968V36.0929H12.2417V22.2726L13.9355 21.0039L14.1481 21.6382L15.6631 26.1865L19.4961 23.3084L22.5733 21.0039L22.7858 21.6382L23.572 24.0001H26.0621H29.5172H32.9723V20.545V17.0899Z" fill="#FDBA01"/>
<path d="M15.6968 30.9102V27.4551H19.1519V30.9102H15.6968Z" fill="#9C9C9C"/>
<path d="M22.607 30.9102V27.4551H26.0621V30.9102H22.607Z" fill="#9C9C9C"/>
<path d="M29.5172 30.9102V27.4551H32.9723V30.9102H29.5172Z" fill="#9C9C9C"/>
</svg>
