<svg width="800pt" height="188" viewBox="0 0 800 141" xmlns="http://www.w3.org/2000/svg">
  <g fill="#363e00">
    <path d="M25.58 26.53C37.4 12.02 55.59 3.7 73.96 1.65c15.83-1.63 31.39 2.42 47 4.24 5.93.82 11.89-.2 17.84.11-.24 12.89-4.39 25.22-8.16 37.41-1.29 3.91-2.37 8.03-4.87 11.37-1.3 1.69-3.52 3.28-5.71 2.25-1.6-2.12-.44-4.8-.07-7.12 1.58-7.27 2.12-15.49-1.71-22.16-3.68-5.77-10.9-7.26-17.16-8.48-14.84-2.67-30.1-7.34-45.21-3.72-9.92 2.28-18.84 8.91-23.4 18.07-4.62 9.38-5.98 20.12-5.07 30.46 1.6 17.31 10.62 33.66 24.04 44.62 12.43 10.17 28.41 16.04 44.51 15.91 6.73.01 13.44-.75 20.07-1.86 3.89-.61 7.96-1.75 11.78-.17-6.13 8.85-16.56 13.43-26.82 15.44-19.08 3.95-38.95-.51-56.37-8.58-14-6.49-26.15-17.84-31.52-32.54-2.7-7.32-4.05-15.13-4.58-22.89.82-17 6.08-34.21 17.03-47.48M710.44 8.46c2.51-2.88 6.17-4.24 9.75-5.26 4.41 15.12 11.78 29.09 18.25 43.39 4.67 10.1 9.39 20.19 13.49 30.54 6.47 15.86 12.92 32.39 24.96 44.98 4.98 5.39 11.43 9.11 18.12 11.95-9.83 2.87-19.83 5.31-30.01 6.43-3.86-.05-6.04-3.78-7.47-6.86-3.42-7.72-7.42-15.2-10.15-23.2-1.76-4.79-3.26-10.13-7.37-13.5-3.66-2.88-8.58-3.05-13.03-2.95-10.34.5-20.7.06-31.05.28-3.58-.02-7.16 1.29-9.6 3.95-5.67 5.85-9.36 13.72-9.99 21.86-.32 3.82 2.35 7.38 6.03 8.34 1.95 1.06 5.34.94 5.69 3.71-3.69.8-7.44.08-11.13-.23-9.06-.81-18.15-.78-27.23-.84 3.75-5.88 9.12-10.47 13.06-16.21 4.45-6.14 7.15-13.29 10.58-20-1.34-2-3.37-4.21-2.33-6.81 1.34-3.94 4.65-6.71 6.98-10.05 10.89-14.8 16.43-32.58 22.22-49.8 2.5-6.96 5.18-14.16 10.23-19.72m2.73 23.28c-6.2 14.65-12.24 29.4-16.87 44.63 5.6 2.64 11.83 1.09 17.74 1.01 6.15-.07 12.3-.69 18.45-.36-2.79-5.36-5.65-10.72-7.77-16.4-3.21-9.87-7.44-19.36-11.55-28.88m-340.08 3.22c2.52-8.66 8.97-15.87 16.95-19.9 1.1.68 1.24 2.15 1.77 3.24 7.07 21.64 14.25 43.33 23.9 63.99 8.27 18.12 19.09 35.26 33.54 49.1-3.08 3.5-8.04 3.4-12.31 3.4-4.64 0-9.03-2.25-12.05-5.71-4.56-4.93-8.68-10.34-11.58-16.42-1.77-3.39-3.53-7.11-6.88-9.2-3.43-1.99-7.54-2.18-11.4-2.27-9.53-.09-19.18-.44-28.54 1.55-9.53 2.71-16.43 13.79-13.58 23.47 1.21 3.91 4.28 6.78 7.17 9.51-7.68-.45-15.36-.14-23.04-.24-2.71-.3-6.32-.16-7.86-2.88-.11-2.76 2.68-4.26 4.4-5.97 7.07-5.67 11.09-14.6 11.55-23.56.18-3.22-.42-6.51.37-9.67 1.15-1.88 3.54-2.46 5.28-3.68 3.45-1.9 5.41-5.5 6.88-9 5.81-15.02 10.83-30.33 15.43-45.76m10.64 10.48c-5.89 11.14-9.54 23.27-14.21 34.93-.75 2.38-1.91 5.13-.61 7.54 1.75 1.26 4.07.74 6.1.92 8.72-.11 17.44.16 26.16.31-5.04-13.08-10.2-26.12-15.17-39.22-.69-1.53-1.53-2.98-2.27-4.48M244.65 20.86c4.75-2.59 10.28-2.62 15.53-3.13 9.89-.6 19.89-1.1 29.75.21-2.72 4.23-7.31 7.01-9.3 11.74-1.8 3.9-2.53 8.18-2.97 12.42-1.5 21.33.27 42.71 2.32 63.94.35 4.55 2.31 9.45 6.9 11.19 11.7 4.76 25.22 2.44 36.27-3.07 2.71-1.12 5.64-3.03 8.67-2.01-.11 5.84-3.9 10.9-8.24 14.47-6.93 5.43-15.92 7.57-24.59 7.74-16.2.36-32.38-5.2-48.52-1.69 3.17-2.56 6.35-5.23 8.5-8.75 3.81-5.87 4.18-13.1 4.54-19.89.35-17.68 2.1-35.36 1.06-53.05-.46-6-1.09-12.05-2.79-17.85-1.16-3.62-3.02-7.58-6.78-9.09-3.37-1.3-6.97-1.89-10.35-3.18m168.01.13c-.06-1.67 1.7-2.87 3.25-2.79 6.53.1 12.77 2.33 19.2 3.24 9.01 1.5 18.13.02 27.13-.75-1.36 2.03-2.47 4.48-4.77 5.64-4.11 2.44-9.67 3.4-12.03 8.02-2.36 5.02.05 10.56 1.92 15.32 6.84 15.04 11.75 30.91 19.31 45.63 1.18 2.37 2.72 4.52 4.37 6.58.94-1.62 1.87-3.26 2.55-5.02 5.92-15.43 12.15-30.79 19.73-45.49 1.83-3.69 4.16-7.25 4.87-11.37.55-2.7-1.01-5.48-3.28-6.89-2.24-1.21-4.85-1.3-7.22-2.13-1.49-1.33 1.01-2.61 1.71-3.64 4.07-3.28 9.56-3.8 14.59-4.11 5-.18 10-.76 15.01-.49 1.55-.1 2.82 1.78 2.48 3.21-.62 3.65-3.2 6.48-5.15 9.48-8.1 11.97-14.81 24.9-19.78 38.47-2.61 6.86-4.97 13.83-8.15 20.46-3.31 7.03-8.07 13.62-9.06 21.51-1.01 5.57-.61 11.7-3.73 16.66-1.8 2.76-5.43 5.36-8.76 3.61-4.79-2.59-6.02-8.35-7.04-13.23-2.16-10.8-7.03-20.78-12.3-30.36-8.29-15.04-16-30.51-21.23-46.91-2.23-6.52-4.59-13.38-9.68-18.26-1.63-1.85-4.13-3.65-3.94-6.39"/>
    <path d="M184.47 22.68c12.16-2.47 25.09-1.52 36.59 3.22 12.35 5.24 21.27 16.56 25.78 28.97 5.19 14.24 5.45 30.79-1.51 44.49-7.73 15.37-22.94 26.25-39.47 30.36-12.03 2.89-24.9 4.24-36.94.67-12.03-3.49-22.14-12.38-27.84-23.45-8.2-15.72-7.89-35.22-.26-51.09 7.98-17.36 25.2-29.36 43.65-33.17m-2.06 8.81c-10.08 3.3-16.93 12.33-21.56 21.45-11.23 21.02-4.46 49.51 14.47 63.77 7.2 5.42 16.53 8.24 25.49 6.6 9.66-1.72 18.12-7.92 23.65-15.89 7.8-10.96 10.78-25.18 7.95-38.33-2.89-14.32-12.08-27.48-25.1-34.32-7.55-3.91-16.6-5.82-24.9-3.28m351.88-9.18c3.98-1.36 8.4-.93 12.38.21 4.35 1.32 6.95 5.65 7.67 9.93 1.21 7.17-.39 14.4-.64 21.59-.88 19.63-.34 39.28-.55 58.93-.06 4.18.31 8.61 2.63 12.22 1.35 2.5 3.61 4.73 3.89 7.67-.53 2.51-3.53 3.18-5.69 3.48-5.84.52-11.96.11-17.44-2.08-1.1-29.41.92-58.85 1.35-88.26-.06-4.68-.44-9.69-3.19-13.66-1.11-1.79-2.65-3.37-3.32-5.41-.4-2.03 1.05-3.94 2.91-4.62m30.89 13.06c4.55-8.64 14.28-13.12 23.77-13.16 12.43-.05 24.61 3.38 37.06 3.24 12.46-.19 24.92-.76 37.38-.73-1.53 5.26-4.4 10.71-9.79 12.82-7.83 3.38-16.15-1.82-24.13.13-3.66.91-4.99 4.92-4.91 8.3-.46 20.32-1.29 40.65-.74 60.98.19 5.34 1.29 11.12 5.14 15.1 2.6 2.73 6.92 2.69 9.55 5.31 1.9 2.9-1.7 5.52-4.43 5.3-13.2.21-26.41.05-39.61.08 3.15-3.31 6.94-5.92 10.09-9.23 4-4.46 4.61-10.77 4.81-16.5.32-21.33.28-42.67-.02-64-.04-2.25-.25-5.86-3.29-5.84-13.61-.84-27.26-1.13-40.88-1.8"/>
  </g>
</svg>
