<svg id="layer" xmlns="http://www.w3.org/2000/svg" viewBox="0 0 525.44 426.77"><defs><style>.cls-1,.cls-2{fill:#8D785C;}.cls-1{stroke:#8D785C;stroke-width:0.34px;}</style></defs><path class="cls-1" d="M78.32,471.2c-4.3-3.7-5.4-8.6-5.4-12.8A16.15,16.15,0,0,1,78,446.5c3.1-2.9,7.3-4.6,13.7-4.6a54.14,54.14,0,0,1,6.3.4c1.7.2,3,.6,4.3.7.5,0,.7.3.7.5s-.1.9-.2,2.4,0,3.8-.1,4.7c0,.7-.1,1-.5,1s-.4-.3-.4-1a6,6,0,0,0-1.7-4c-1.4-1.5-4.8-2.7-8.8-2.7-3.8,0-6.3,1-8.2,2.7-3.2,2.9-4,7-4,11.3,0,10.3,7.9,15.5,13.7,15.5,3.9,0,6.2-.4,8-2.4a8.06,8.06,0,0,0,1.5-2.9c.1-.7.2-.9.6-.9s.4.3.4.7a35.17,35.17,0,0,1-1,5.8,1.63,1.63,0,0,1-1.1,1.3c-1.7.7-5,1-7.8,1-6.2-.1-11.2-1.4-15.1-4.8Z" transform="translate(-72.75 -88.49)"/><path class="cls-1" d="M108.62,461.5c0-6.2,4.1-14.3,15-14.3,9.1,0,14.7,5.3,14.7,13.6s-5.8,14.9-15.1,14.9c-10.4.1-14.6-7.7-14.6-14.2Zm24.6.7c0-8.1-4.7-13.2-10.7-13.2-4.2,0-8.9,2.3-8.9,11.4,0,7.6,4.2,13.6,11.2,13.6,2.5,0,8.4-1.3,8.4-11.8Z" transform="translate(-72.75 -88.49)"/><path class="cls-1" d="M151.32,464.7c0,4.7,0,7.2.8,7.8.6.5,1.6.8,4.4.8,1.9,0,3.3,0,4.3-1a4.31,4.31,0,0,0,.9-2.2c0-.3.1-.5.4-.5s.3.2.3.6-.3,3.1-.5,4.2c-.2.8-.4,1-2.3,1-5.2,0-7.6-.2-10.6-.2-.8,0-3.1.1-4.6.1-.5,0-.7-.1-.7-.4s.1-.3.6-.3,1-.1,1.3-.1c.7-.1.9-.9,1.1-2,.2-1.5.2-4.4.2-7.7v-6.4c0-5.5,0-6.5-.1-7.7s-.4-1.8-1.6-2.1a4.12,4.12,0,0,0-1.2-.1q-.6,0-.6-.3c0-.3.3-.3.8-.3,1.7,0,4,.1,5,.1s3.5-.1,4.9-.1c.5,0,.8.1.8.3s-.2.3-.7.3a6.6,6.6,0,0,0-1.4.1c-1,.2-1.3.8-1.3,2.1s-.1,2.2-.1,7.7l-.1,6.3Z" transform="translate(-72.75 -88.49)"/><path class="cls-1" d="M169.42,458.3c0-5.5,0-6.5-.1-7.7s-.4-1.8-1.6-2.1a5.72,5.72,0,0,0-1.4-.1q-.6,0-.6-.3c0-.3.3-.3.8-.3,1.9,0,4.2.1,5.3.1.9,0,3.2-.1,4.5-.1.5,0,.8.1.8.3s-.2.3-.6.3a4.48,4.48,0,0,0-1.1.1c-1,.2-1.3.8-1.3,2.1s-.1,2.2-.1,7.7v5.1c0,5.3,1.1,7.5,2.8,8.9a7.36,7.36,0,0,0,9.5-.5c2-2,2.1-5.3,2.1-9v-4.5c0-5.5,0-6.5-.1-7.7s-.4-1.8-1.6-2.1a5.28,5.28,0,0,0-1.3-.1q-.6,0-.6-.3c0-.3.3-.3.8-.3,1.9,0,4.1.1,4.2.1.4,0,2.7-.1,4.1-.1.5,0,.8.1.8.3s-.2.3-.7.3a4.48,4.48,0,0,0-1.1.1c-1,.2-1.3.8-1.3,2.1s-.1,2.2-.1,7.7v3.9c0,4-.4,8.3-3.5,10.9a11,11,0,0,1-7.6,2.6c-1.9,0-5.4-.1-8.1-2.5-1.9-1.7-3.2-4.4-3.2-9.6l.3-5.3Z" transform="translate(-72.75 -88.49)"/><path class="cls-1" d="M203.62,447.9q.15-.9.6-.9c.3,0,.5.2,1,1.1l9.9,20.5,9.9-20.8c.3-.6.5-.9.8-.9s.5.4.7,1.1l3.3,22.5c.3,2.3.7,3.3,1.8,3.7a9.06,9.06,0,0,0,2.3.4c.3,0,.6,0,.6.3s-.4.4-.9.4c-.9,0-5.9-.1-7.4-.2-.8-.1-1.1-.2-1.1-.4s.1-.3.4-.4.3-.5.2-1.6l-2.2-16h-.1l-7.9,16.5c-.8,1.7-1,2-1.3,2s-.7-.7-1.3-1.8c-.9-1.7-3.7-7.2-4.2-8.3-.3-.8-2.5-5.3-3.8-8.1h-.1l-1.9,14.5a10.28,10.28,0,0,0-.1,1.7c0,.7.5,1,1.1,1.2s1.2.2,1.5.2.5.1.5.3-.3.4-.9.4c-1.5,0-3.2-.1-3.8-.1s-2.4.1-3.6.1c-.4,0-.7-.1-.7-.4s.2-.3.6-.3a5.38,5.38,0,0,0,1.1-.1c1-.2,1.3-1.6,1.5-2.9l3.5-23.7Z" transform="translate(-72.75 -88.49)"/><path class="cls-1" d="M242.42,458.3c0-5.5,0-6.5-.1-7.7s-.4-1.8-1.6-2.1a5.72,5.72,0,0,0-1.4-.1q-.6,0-.6-.3c0-.3.3-.3.8-.3,1.9,0,4.2.1,4.9.1,1.8,0,3.2-.1,4.4-.1,6.6,0,7.7,3.5,7.7,5.5,0,3-1.7,4.8-3.7,6.4,3,1,6.6,3.6,6.6,7.9,0,3.9-3,7.9-9.7,7.9-.9,0-4.2-.2-5.3-.2-.8,0-3.1.1-4.6.1-.5,0-.7-.1-.7-.4s.1-.3.6-.3,1-.1,1.3-.1c.7-.1.9-.9,1.1-2,.2-1.5.2-4.4.2-7.7l.1-6.6Zm4.3.6c0,.3.1.4.3.4a7.16,7.16,0,0,0,1.7.1,3.38,3.38,0,0,0,2.6-.7,5,5,0,0,0,1.5-3.9c0-2.4-1.4-5.6-4.5-5.6a4.48,4.48,0,0,0-1.2.1c-.3.1-.3.2-.3.6l-.1,9Zm4.8,3a5.92,5.92,0,0,0-3-.9h-1.6c-.1,0-.2.1-.2.3v8.6c0,2.4.1,3,1.3,3.5a6.58,6.58,0,0,0,2.7.4c1.6,0,4.4-.9,4.4-4.7a8.5,8.5,0,0,0-3.6-7.2Z" transform="translate(-72.75 -88.49)"/><path class="cls-1" d="M267.62,458.3c0-5.5,0-6.5-.1-7.7s-.4-1.9-1.2-2a5.7,5.7,0,0,0-1.3-.1c-.4,0-.6-.1-.6-.4s.3-.3.9-.3c1.4,0,3.7.1,4.7.1s3.1-.1,4.4-.1c.5,0,.8.1.8.3s-.2.4-.6.4a4.1,4.1,0,0,0-1.1.1c-1,.2-1.3.8-1.3,2.1s-.1,2.2-.1,7.7v6.4c0,3.5,0,6.4.1,8,.1,1,.4,1.6,1.5,1.8a11.48,11.48,0,0,0,1.9.1q.6,0,.6.3c0,.3-.3.4-.7.4-2.4,0-4.7-.1-5.7-.1-.8,0-3.1.1-4.6.1-.5,0-.7-.1-.7-.4s.1-.3.6-.3,1-.1,1.3-.1c.7-.1.9-.8,1.1-1.8.2-1.5.2-4.4.2-7.9l-.1-6.6Z" transform="translate(-72.75 -88.49)"/><path class="cls-1" d="M289.82,465.8a.27.27,0,0,0-.3.3l-2,5.2a5.91,5.91,0,0,0-.5,2.2c0,.7.3,1.1,1.5,1.1h.5c.4,0,.5.1.5.3s-.2.4-.6.4c-1.2,0-2.7-.1-3.9-.1-.4,0-2.4.1-4.3.1-.5,0-.7-.1-.7-.4s.1-.3.4-.3a4.1,4.1,0,0,0,1.1-.1c1.7-.2,2.4-1.5,3.1-3.3l9.2-22.8c.4-1.1.7-1.5,1-1.5s.5.3.9,1.2c.9,2,6.7,16.8,9,22.4,1.4,3.3,2.4,3.8,3.2,4a8.08,8.08,0,0,0,1.5.1c.3,0,.5,0,.5.3s-.3.4-1.7.4-4,0-6.9-.1c-.7,0-1.1,0-1.1-.3s.1-.3.5-.3a.53.53,0,0,0,.3-.8l-2.9-7.7c-.1-.2-.2-.3-.4-.3Zm7.4-1.8c.2,0,.2-.1.2-.2l-3.3-9c0-.1-.1-.3-.2-.3s-.2.2-.2.3l-3.3,8.9c0,.1,0,.3.1.3Z" transform="translate(-72.75 -88.49)"/><path class="cls-1" d="M328.72,455c0-6.6,0-7.8-.1-9.2s-.4-2.2-1.9-2.5a8.12,8.12,0,0,0-1.7-.1c-.5,0-.7-.1-.7-.4s.3-.4,1-.4c2.3,0,5,.1,6.3.1,1,0,3.8-.1,5.3-.1.7,0,1,.1,1,.4s-.3.4-.7.4a6.15,6.15,0,0,0-1.3.1c-1.2.2-1.5,1-1.6,2.5s-.1,2.6-.1,9.2v6.1c0,6.3,1.3,9,3.4,10.7a8.23,8.23,0,0,0,5.4,1.8,8.59,8.59,0,0,0,6-2.3c2.4-2.4,2.5-6.3,2.5-10.8v-5.4c0-6.6,0-7.8-.1-9.2s-.4-2.2-1.9-2.5a7.59,7.59,0,0,0-1.6-.1c-.5,0-.7-.1-.7-.4s.3-.4.9-.4c2.2,0,5,.1,5,.1.5,0,3.3-.1,5-.1.6,0,.9.1.9.4s-.3.4-.8.4a6.15,6.15,0,0,0-1.3.1c-1.2.2-1.5,1-1.6,2.5s-.1,2.6-.1,9.2v4.7c0,4.8-.5,10-4.1,13.1a12.67,12.67,0,0,1-9,3.1c-2.3,0-6.5-.1-9.6-3-2.2-2-3.9-5.2-3.9-11.5l.1-6.5Z" transform="translate(-72.75 -88.49)"/><path class="cls-1" d="M368,470.3c.1,2.8.5,3.8,1.3,4a6.28,6.28,0,0,0,1.9.3q.6,0,.6.3c0,.3-.3.4-.8.4-2.4,0-3.8-.1-4.5-.1-.3,0-2,.1-3.9.1-.5,0-.8,0-.8-.4q0-.3.6-.3a4.4,4.4,0,0,0,1.6-.2c.9-.3,1.1-1.3,1.1-4.5l.3-21.5c0-.7.1-1.2.5-1.2s.7.5,1.3,1.1c.4.5,6,6.4,11.3,11.7,2.5,2.5,7.4,7.7,8,8.3h.2l-.4-16.3c0-2.2-.4-2.9-1.2-3.3a6.15,6.15,0,0,0-1.9-.2q-.6,0-.6-.3c0-.3.4-.3.9-.3,1.9,0,3.6.1,4.4.1.4,0,1.8-.1,3.6-.1.5,0,.8,0,.8.3s-.2.3-.7.3a4.1,4.1,0,0,0-1.1.1c-1,.3-1.3,1.1-1.3,3.1l-.4,22.9c0,.8-.1,1.1-.5,1.1s-.8-.4-1.2-.8c-2.3-2.2-6.9-6.9-10.7-10.7-4-3.9-8-8.5-8.7-9.2h-.1l.4,15.3Z" transform="translate(-72.75 -88.49)"/><path class="cls-1" d="M401.62,458.3c0-5.5,0-6.5-.1-7.7s-.4-1.9-1.2-2a5.7,5.7,0,0,0-1.3-.1c-.4,0-.6-.1-.6-.4s.3-.3.9-.3c1.4,0,3.7.1,4.7.1s3.1-.1,4.4-.1c.5,0,.8.1.8.3s-.2.4-.6.4a4.1,4.1,0,0,0-1.1.1c-1,.2-1.3.8-1.3,2.1s-.1,2.2-.1,7.7v6.4c0,3.5,0,6.4.1,8,.1,1,.4,1.6,1.5,1.8a11.48,11.48,0,0,0,1.9.1q.6,0,.6.3c0,.3-.3.4-.7.4-2.4,0-4.7-.1-5.7-.1-.8,0-3.1.1-4.6.1-.5,0-.7-.1-.7-.4s.1-.3.6-.3,1-.1,1.3-.1c.7-.1.9-.8,1.1-1.8.2-1.5.2-4.4.2-7.9l-.1-6.6Z" transform="translate(-72.75 -88.49)"/><path class="cls-1" d="M417.62,451.3c-.8-2-1.5-2.4-2.8-2.8a7.6,7.6,0,0,0-1.4-.1c-.3,0-.4-.1-.4-.3s.4-.3.9-.3c1.9,0,4,.1,5.3.1.9,0,2.7-.1,4.5-.1.4,0,.8.1.8.3s-.2.3-.5.3c-.6,0-1.1,0-1.4.3a.81.81,0,0,0-.4.8,10.29,10.29,0,0,0,.8,2.8l6.3,16.5h.1c1.6-4,6.3-15.7,7.2-18.1a3.92,3.92,0,0,0,.3-1.3.64.64,0,0,0-.5-.7,6.8,6.8,0,0,0-1.5-.2c-.3,0-.6,0-.6-.3s.3-.4,1-.4c1.8,0,3.3.1,3.8.1s2.3-.1,3.4-.1c.5,0,.8.1.8.3s-.2.3-.6.3a3.46,3.46,0,0,0-1.8.4c-.5.3-1,.9-2,3.3-1.4,3.4-2.4,5.4-4.4,9.9-2.3,5.3-4,9.3-4.8,11.1-.9,2.1-1.2,2.7-1.7,2.7s-.7-.5-1.4-2.2Z" transform="translate(-72.75 -88.49)"/><path class="cls-1" d="M449.12,458.3c0-5.5,0-6.5-.1-7.7s-.4-1.8-1.6-2.1a5.72,5.72,0,0,0-1.4-.1q-.6,0-.6-.3c0-.3.3-.3.8-.3,1.9,0,4.2.1,5.2.1h9.1c.7-.1,1.3-.1,1.6-.2s.4-.1.6-.1.2.1.2.3a21.27,21.27,0,0,0-.3,2.4,19.42,19.42,0,0,1-.2,2.4.37.37,0,0,1-.4.4c-.3,0-.3-.2-.3-.5a3.18,3.18,0,0,0-.2-1.3c-.3-.7-.6-1.1-2.4-1.3-.6-.1-4.4-.1-5.2-.1-.2,0-.3.1-.3.4v9.2c0,.3,0,.4.3.4.8,0,5,0,5.8-.1a2.83,2.83,0,0,0,1.7-.5c.3-.3.4-.5.6-.5a.32.32,0,0,1,.3.3,21.73,21.73,0,0,0-.3,2.7,23.73,23.73,0,0,0-.1,2.4c0,.3,0,.7-.3.7s-.3-.1-.3-.3a6.15,6.15,0,0,0-.1-1.3,1.94,1.94,0,0,0-2-1.4c-.7-.1-4.3-.1-5.2-.1-.2,0-.2.1-.2.4v8.5c.1,2.5.7,3.1,4.4,3.1a9.91,9.91,0,0,0,3.4-.4c.9-.4,1.4-1.2,1.6-2.7.1-.4.1-.5.4-.5s.3.3.3.7a25.72,25.72,0,0,1-.5,4c-.3.9-.6.9-2,.9-5.5,0-7.9-.2-10.1-.2-.8,0-3.1.1-4.6.1-.5,0-.7-.1-.7-.4s.1-.3.6-.3,1-.1,1.3-.1c.7-.1.9-.9,1.1-2,.2-1.5.2-4.4.2-7.7l-.1-6.9Z" transform="translate(-72.75 -88.49)"/><path class="cls-1" d="M474.12,458.3c0-5.5,0-6.5-.1-7.7s-.4-1.8-1.6-2.1a5.72,5.72,0,0,0-1.4-.1q-.6,0-.6-.3c0-.3.3-.3.8-.3,1.9,0,4.2.1,5,.1,1.2,0,4-.1,5.1-.1,2.3,0,4.7.2,6.7,1.6a6.31,6.31,0,0,1,2.5,5c0,2.7-1.1,5.2-4.8,8.1,3.2,4.1,5.7,7.3,7.9,9.6,2,2.1,3.5,2.4,4.1,2.5a3.75,3.75,0,0,0,1,.1c.3,0,.4.1.4.3s-.3.4-.7.4h-3.5a7.73,7.73,0,0,1-3.9-.7c-1.6-.8-2.9-2.5-5-5.3-1.5-2-3.1-4.5-3.6-5a.91.91,0,0,0-.7-.3l-3.2-.1a.27.27,0,0,0-.3.3v.5c0,3.4,0,6.3.2,7.8.1,1.1.3,1.9,1.4,2a10.87,10.87,0,0,0,1.8.1c.3,0,.4.1.4.3s-.3.4-.7.4c-2.1,0-4.8-.1-5.3-.1-.7,0-3,.1-4.4.1-.5,0-.7-.1-.7-.4s.1-.3.6-.3,1-.1,1.3-.1c.7-.1.9-.9,1.1-2,.2-1.5.2-4.4.2-7.7v-6.6Zm4.3,2.9a.78.78,0,0,0,.3.7,8.63,8.63,0,0,0,2.8.4c1.5,0,1.9-.1,2.6-.6,1.1-.8,2.1-2.5,2.1-5.5,0-5.2-3.4-6.7-5.6-6.7a8.71,8.71,0,0,0-1.9.1c-.3.1-.3.2-.3.5v11.1Z" transform="translate(-72.75 -88.49)"/><path class="cls-1" d="M501.82,474.8c-.6-.3-.7-.4-.7-1.2a46.36,46.36,0,0,1,.2-4.8c0-.5.1-.9.4-.9s.4.3.4.6a7.39,7.39,0,0,0,.3,1.9,5,5,0,0,0,5.2,3.7c3.3,0,4.9-2.2,4.9-4.1s-.5-3.5-3.6-5.8l-1.7-1.3c-4-3.1-5.4-5.7-5.4-8.6,0-4,3.3-6.9,8.4-6.9a19.32,19.32,0,0,1,4.8.6c.3.1.5.2.5.4,0,.5-.1,1.5-.1,4.4,0,.8-.1,1.1-.4,1.1s-.4-.2-.4-.7a4.74,4.74,0,0,0-.9-2.4,4.54,4.54,0,0,0-4-1.8c-2.7,0-4.3,1.6-4.3,3.7,0,1.7.8,2.9,3.9,5.2l1,.8c4.4,3.4,6,5.8,6,9.3a7.31,7.31,0,0,1-3.4,6.3,10.3,10.3,0,0,1-5.8,1.5,12.54,12.54,0,0,1-5.3-1Z" transform="translate(-72.75 -88.49)"/><path class="cls-1" d="M526.62,458.3c0-5.5,0-6.5-.1-7.7s-.4-1.9-1.2-2a5.7,5.7,0,0,0-1.3-.1c-.4,0-.6-.1-.6-.4s.3-.3.9-.3c1.4,0,3.7.1,4.7.1s3.1-.1,4.4-.1c.5,0,.8.1.8.3s-.2.4-.6.4a4.1,4.1,0,0,0-1.1.1c-1,.2-1.3.8-1.3,2.1s-.1,2.2-.1,7.7v6.4c0,3.5,0,6.4.1,8,.1,1,.4,1.6,1.5,1.8a11.48,11.48,0,0,0,1.9.1q.6,0,.6.3c0,.3-.3.4-.7.4-2.4,0-4.7-.1-5.7-.1-.8,0-3.1.1-4.6.1-.5,0-.7-.1-.7-.4s.1-.3.6-.3,1-.1,1.3-.1c.7-.1.9-.8,1.1-1.8.2-1.5.2-4.4.2-7.9l-.1-6.6Z" transform="translate(-72.75 -88.49)"/><path class="cls-1" d="M551.42,449.8l-5.4.1c-2.1.1-3,.3-3.5,1.1a3.57,3.57,0,0,0-.6,1.3c-.1.3-.2.4-.4.4s-.3-.2-.3-.6a39.41,39.41,0,0,1,.8-4.2c.1-.5.2-.7.4-.7a5.83,5.83,0,0,0,1.6.4c1.1.1,2.4.2,3.6.2H562a15,15,0,0,0,3.5-.4c.3,0,.3.2.3.8,0,.8-.1,3.3-.1,4.2q0,.6-.3.6c-.3,0-.4-.2-.4-.7v-.4c-.1-.9-1.1-2-4.3-2l-4.6-.1v14.9c0,3.3,0,6.2.2,7.8.1,1,.3,1.8,1.4,2a11.48,11.48,0,0,0,1.9.1q.6,0,.6.3c0,.3-.3.4-.7.4-2.4,0-4.7-.1-5.7-.1-.8,0-3.1.1-4.6.1-.5,0-.7-.1-.7-.4s.1-.3.6-.3,1-.1,1.3-.1c.7-.1.9-.9,1.1-2,.2-1.5.2-4.4.2-7.7v-15Z" transform="translate(-72.75 -88.49)"/><path class="cls-1" d="M581.62,465.9a8.28,8.28,0,0,0-.8-3.8c-.3-.6-5.1-8.6-6.4-10.5a9.55,9.55,0,0,0-2.5-2.7,3.32,3.32,0,0,0-1.5-.5c-.3,0-.5-.1-.5-.3s.3-.3.7-.3c.7,0,3.4.1,4.6.1.8,0,2.3-.1,3.9-.1.4,0,.5.1.5.3s-.3.3-.8.4a.75.75,0,0,0-.5.7,4.15,4.15,0,0,0,.4,1.2c.5,1.1,5.6,9.9,6.2,10.9.4-.9,4.9-8.9,5.5-10a4.11,4.11,0,0,0,.5-1.9.79.79,0,0,0-.8-.9c-.3-.1-.7-.1-.7-.4s.2-.3.6-.3c1.2,0,2.4.1,3.4.1.8,0,3.2-.1,3.9-.1.4,0,.7.1.7.3s-.3.4-.7.4a3.43,3.43,0,0,0-1.6.4,5.43,5.43,0,0,0-2,1.8,107.23,107.23,0,0,0-6.9,11.6,9.22,9.22,0,0,0-.5,3.6v3c0,.6,0,2.1.1,3.6.1,1.1.4,1.9,1.5,2a10.87,10.87,0,0,0,1.8.1q.6,0,.6.3c0,.3-.3.4-.8.4-2.3,0-4.6-.1-5.6-.1s-3.2.1-4.5.1c-.5,0-.8-.1-.8-.4s.2-.3.6-.3.9-.1,1.3-.1c.7-.1,1.1-.9,1.1-2,.1-1.5.1-3.1.1-3.6l-.1-3Z" transform="translate(-72.75 -88.49)"/><path class="cls-1" d="M77.82,503.4v-5.1c0-.8-.3-1.2-.8-1.3a2.77,2.77,0,0,0-.9-.1c-.2,0-.4,0-.4-.2s.2-.2.6-.2c.9,0,2.4.1,3.1.1s2-.1,2.9-.1c.3,0,.5,0,.5.2s-.1.2-.4.2a2,2,0,0,0-.7.1c-.6.1-.8.5-.9,1.4v9.3c0,2.3,0,4.2.1,5.2.1.6.2,1.1,1,1.2.3,0,.9.1,1.2.1s.4.1.4.2-.2.2-.5.2c-1.6,0-3.1-.1-3.7-.1s-2.1.1-3,.1c-.3,0-.5-.1-.5-.2s.1-.2.4-.2a2.48,2.48,0,0,0,.9-.1c.5-.1.6-.5.7-1.2.1-1,.1-2.9.1-5.2l-.1-4.3Z" transform="translate(-72.75 -88.49)"/><path class="cls-1" d="M91.12,511.3c0,1.9.4,2.5.8,2.7a6,6,0,0,0,1.2.2c.3,0,.4,0,.4.2s-.2.2-.5.2c-1.6,0-2.5-.1-3-.1-.2,0-1.3.1-2.6.1-.3,0-.5,0-.5-.2s.1-.2.4-.2a4.48,4.48,0,0,0,1.1-.1c.6-.2.7-.9.7-3l.2-14.1c0-.5.1-.8.3-.8s.5.3.9.7,3.9,4.2,7.4,7.7c1.6,1.6,4.8,5.1,5.3,5.4h.1l-.2-10.7c0-1.5-.2-1.9-.8-2.1a5.7,5.7,0,0,0-1.3-.1c-.3,0-.4-.1-.4-.2s.3-.2.6-.2c1.2,0,2.4.1,2.9.1.3,0,1.2-.1,2.3-.1.3,0,.5,0,.5.2s-.1.2-.4.2a2,2,0,0,0-.7.1c-.7.2-.9.7-.9,2l-.3,15.1c0,.5-.1.7-.3.7s-.5-.3-.8-.5c-1.5-1.4-4.6-4.6-7-7-2.6-2.6-5.3-5.6-5.7-6h-.1l.4,9.8Z" transform="translate(-72.75 -88.49)"/><path class="cls-1" d="M125.22,497.8l-3.6.1c-1.4,0-2,.2-2.3.7s-.4.6-.4.8a.27.27,0,0,1-.3.3c-.2,0-.2-.1-.2-.4s.5-2.6.5-2.7c.1-.3.1-.5.3-.5s.4.2,1,.3a18.48,18.48,0,0,0,2.4.1h9.5c.8,0,1.3-.1,1.6-.1a2.14,2.14,0,0,1,.6-.1c.2,0,.2.1.2.5s-.1,2.2-.1,2.8c0,.2-.1.4-.2.4s-.2-.1-.3-.5v-.3c0-.6-.7-1.3-2.8-1.3l-3-.1v9.8c0,2.2,0,4.1.1,5.1.1.7.2,1.2.9,1.3.3,0,.9.1,1.2.1s.4.1.4.2-.2.2-.5.2c-1.6,0-3.1-.1-3.7-.1s-2.1.1-3,.1c-.3,0-.5-.1-.5-.2s.1-.2.4-.2a2.48,2.48,0,0,0,.9-.1c.5-.1.6-.6.7-1.3.1-1,.1-2.9.1-5.1l.1-9.8Z" transform="translate(-72.75 -88.49)"/><path class="cls-1" d="M152.52,504.1c.1,0,.1,0,.1-.2v-5.6c0-.8-.2-1.2-1-1.4-.2,0-.6-.1-.9-.1s-.4,0-.4-.2.2-.2.5-.2c1.3,0,2.8.1,3.4.1s2.1-.1,3-.1c.3,0,.5,0,.5.2s-.1.2-.4.2a2,2,0,0,0-.7.1c-.6.1-.8.5-.9,1.4v9.3c0,2.2,0,4.1.1,5.1.1.7.2,1.2.9,1.3.3,0,.9.1,1.2.1s.4.1.4.2-.2.2-.5.2c-1.6,0-3.1-.1-3.7-.1s-2.1.1-3,.1c-.3,0-.5-.1-.5-.2s.1-.2.4-.2a2.48,2.48,0,0,0,.9-.1c.5-.1.6-.6.7-1.3.1-1,.1-2.9.1-5.1v-2.1a.1.1,0,0,0-.1-.1h-9.1c-.1,0-.1,0-.1.1v2.1c0,2.2,0,4.1.1,5.1.1.7.2,1.2.9,1.3.3,0,.9.1,1.2.1s.4.1.4.2-.2.2-.5.2c-1.6,0-3.1-.1-3.7-.1s-2.1.1-3,.1c-.3,0-.5-.1-.5-.2s.1-.2.4-.2a2.48,2.48,0,0,0,.9-.1c.5-.1.6-.6.7-1.3.1-1,.1-2.9.1-5.1v-9.3c0-.8-.2-1.2-1-1.4-.2,0-.6-.1-.9-.1s-.4,0-.4-.2.2-.2.5-.2c1.3,0,2.8.1,3.4.1s2.1-.1,3-.1c.3,0,.5,0,.5.2s-.1.2-.4.2a2,2,0,0,0-.7.1c-.6.1-.8.5-.9,1.4v5.6a.35.35,0,0,0,.1.2Z" transform="translate(-72.75 -88.49)"/><path class="cls-1" d="M164.62,503.4v-5.1c0-.8-.2-1.2-1-1.4-.2,0-.6-.1-.9-.1s-.4,0-.4-.2.2-.2.5-.2c1.3,0,2.8.1,3.4.1h6c.5,0,.8-.1,1-.1s.3-.1.4-.1.1.1.1.2-.1.5-.2,1.6c0,.2-.1,1.3-.1,1.6,0,.1-.1.3-.2.3s-.2-.1-.2-.3a3.08,3.08,0,0,0-.1-.9c-.2-.4-.4-.7-1.6-.9-.4,0-2.9-.1-3.4-.1a.22.22,0,0,0-.2.2v6c0,.2,0,.3.2.3h3.8c.6,0,.9-.1,1.1-.4s.3-.3.4-.3a.22.22,0,0,1,.2.2c0,.1-.1.5-.2,1.7,0,.5-.1,1.4-.1,1.6s0,.5-.2.5-.2-.1-.2-.2a3.44,3.44,0,0,0-.1-.9c-.1-.5-.5-.8-1.3-.9-.5,0-2.8-.1-3.4-.1-.1,0-.1.1-.1.2v5.6c0,1.6.4,2,2.9,2a5.58,5.58,0,0,0,2.2-.3c.6-.3.9-.8,1.1-1.8,0-.3.1-.4.3-.4s.2.2.2.4a24.77,24.77,0,0,1-.3,2.7c-.2.6-.4.6-1.3.6-3.6,0-5.2-.1-6.6-.1-.5,0-2.1.1-3,.1-.3,0-.5-.1-.5-.2s.1-.2.4-.2a2.48,2.48,0,0,0,.9-.1c.5-.1.6-.6.7-1.3.1-1,.1-2.9.1-5.1l-.3-4.2Z" transform="translate(-72.75 -88.49)"/><path class="cls-1" d="M189.72,512.3a9.19,9.19,0,0,1-3-7,8.91,8.91,0,0,1,2.8-6.5c1.7-1.6,4-2.5,7.5-2.5a33.19,33.19,0,0,1,3.5.2c.9.1,1.7.3,2.4.4.3,0,.4.1.4.3a10.87,10.87,0,0,0-.1,1.3,20.12,20.12,0,0,1-.1,2.6q0,.6-.3.6c-.2,0-.2-.2-.2-.5a3.28,3.28,0,0,0-.9-2.2,7.38,7.38,0,0,0-4.8-1.5,6.11,6.11,0,0,0-4.5,1.5,8.2,8.2,0,0,0-2.2,6.2c0,5.7,4.3,8.5,7.5,8.5,2.1,0,3.4-.2,4.4-1.3a4,4,0,0,0,.8-1.6c.1-.4.1-.5.3-.5s.2.2.2.4a28.63,28.63,0,0,1-.5,3.2c-.1.4-.2.5-.6.7a13.73,13.73,0,0,1-4.3.5c-3.4-.2-6.1-.9-8.3-2.8Z" transform="translate(-72.75 -88.49)"/><path class="cls-1" d="M209.72,503.4v-5.1c0-.8-.3-1.2-.8-1.3a2.77,2.77,0,0,0-.9-.1c-.2,0-.4,0-.4-.2s.2-.2.6-.2c.9,0,2.4.1,3.1.1s2-.1,2.9-.1c.3,0,.5,0,.5.2s-.1.2-.4.2a2,2,0,0,0-.7.1c-.6.1-.8.5-.9,1.4v9.3c0,2.3,0,4.2.1,5.2.1.6.2,1.1,1,1.2.3,0,.9.1,1.2.1s.4.1.4.2-.2.2-.5.2c-1.6,0-3.1-.1-3.7-.1s-2.1.1-3,.1c-.3,0-.5-.1-.5-.2s.1-.2.4-.2a2.48,2.48,0,0,0,.9-.1c.5-.1.6-.5.7-1.2.1-1,.1-2.9.1-5.2l-.1-4.3Z" transform="translate(-72.75 -88.49)"/><path class="cls-1" d="M224.82,497.8l-3.6.1c-1.4,0-2,.2-2.3.7s-.4.6-.4.8a.27.27,0,0,1-.3.3c-.2,0-.2-.1-.2-.4s.5-2.6.5-2.7c.1-.3.1-.5.3-.5s.4.2,1,.3a18.48,18.48,0,0,0,2.4.1h9.5c.8,0,1.3-.1,1.6-.1a2.14,2.14,0,0,1,.6-.1c.2,0,.2.1.2.5s-.1,2.2-.1,2.8c0,.2-.1.4-.2.4s-.2-.1-.3-.5v-.3c0-.6-.7-1.3-2.8-1.3l-3-.1v9.8c0,2.2,0,4.1.1,5.1.1.7.2,1.2.9,1.3.3,0,.9.1,1.2.1s.4.1.4.2-.2.2-.5.2c-1.6,0-3.1-.1-3.7-.1s-2.1.1-3,.1c-.3,0-.5-.1-.5-.2s.1-.2.4-.2a2.48,2.48,0,0,0,.9-.1c.5-.1.6-.6.7-1.3.1-1,.1-2.9.1-5.1l.1-9.8Z" transform="translate(-72.75 -88.49)"/><path class="cls-1" d="M242.62,508.4a5.21,5.21,0,0,0-.5-2.5c-.2-.4-3.4-5.6-4.2-6.9a5.27,5.27,0,0,0-1.6-1.7,1.93,1.93,0,0,0-1-.3c-.2,0-.4,0-.4-.2s.2-.2.5-.2,2.2.1,3,.1c.5,0,1.5-.1,2.6-.1.2,0,.4.1.4.2s-.2.2-.5.3-.3.2-.3.4a1.6,1.6,0,0,0,.3.8c.3.7,3.7,6.5,4.1,7.1.2-.6,3.2-5.8,3.6-6.6a3.46,3.46,0,0,0,.3-1.2.6.6,0,0,0-.5-.6c-.2,0-.4-.1-.4-.2s.1-.2.4-.2c.8,0,1.6.1,2.2.1s2.1-.1,2.6-.1c.3,0,.4,0,.4.2s-.2.2-.5.2a3,3,0,0,0-1.1.3,2.85,2.85,0,0,0-1.3,1.2c-.8,1-4.1,6.6-4.6,7.6a5.28,5.28,0,0,0-.4,2.4v2c0,.4,0,1.4.1,2.4a1.15,1.15,0,0,0,1,1.3c.3,0,.9.1,1.2.1s.4.1.4.2-.2.2-.5.2c-1.5,0-3-.1-3.7-.1s-2.1.1-3,.1c-.3,0-.5,0-.5-.2s.1-.2.4-.2a2,2,0,0,0,.8-.1c.5-.1.7-.6.7-1.3.1-1,.1-2,.1-2.4l-.1-2.1Z" transform="translate(-72.75 -88.49)"/><path class="cls-1" d="M263,505.5c0-4.1,2.7-9.4,9.9-9.4,5.9,0,9.6,3.5,9.6,8.9s-3.8,9.8-9.9,9.8c-6.9.1-9.6-5-9.6-9.3Zm16.1.5c0-5.3-3.1-8.7-7-8.7-2.7,0-5.9,1.5-5.9,7.5,0,5,2.7,8.9,7.3,8.9,1.8,0,5.6-.8,5.6-7.7Z" transform="translate(-72.75 -88.49)"/><path class="cls-1" d="M291.72,507.6c0,2.3,0,4.1.1,5.1.1.7.2,1.2.9,1.3.3,0,.9.1,1.2.1s.4.1.4.2-.2.2-.5.2c-1.5,0-3-.1-3.6-.1s-2.1.1-3,.1c-.3,0-.5,0-.5-.2s.1-.2.4-.2a2.48,2.48,0,0,0,.9-.1c.5-.1.6-.6.7-1.3.1-1,.1-2.8.1-5.1v-9.3c0-.8-.2-1.2-1-1.4-.2,0-.6-.1-.9-.1s-.4,0-.4-.2.2-.2.5-.2c1.2,0,2.7.1,3.4.1h6.3a2.79,2.79,0,0,0,1-.1c.1,0,.3-.1.4-.1a.22.22,0,0,1,.2.2c0,.2-.1.5-.2,1.1,0,.2-.1,1.6-.1,1.9s-.1.3-.2.3-.2-.1-.2-.4a3.08,3.08,0,0,0-.1-.9,1.85,1.85,0,0,0-1.6-.7l-3.7-.1c-.1,0-.2.1-.2.3v6c0,.1,0,.2.2.2h4.2a1.05,1.05,0,0,0,1-.4c.1-.1.2-.2.3-.2s.1.1.1.2-.1.7-.2,1.5c0,.5-.1,1.6-.1,1.7s0,.5-.2.5-.2-.2-.2-.3a1.7,1.7,0,0,0-.1-.7,1.5,1.5,0,0,0-1.2-.9c-.6-.1-3.1-.1-3.5-.1-.1,0-.2,0-.2.2l-.4,1.9Z" transform="translate(-72.75 -88.49)"/><path class="cls-1" d="M314.52,511.3c0,1.9.4,2.5.8,2.7a6,6,0,0,0,1.2.2c.3,0,.4,0,.4.2s-.2.2-.5.2c-1.6,0-2.5-.1-3-.1-.2,0-1.3.1-2.6.1-.3,0-.5,0-.5-.2s.1-.2.4-.2a4.48,4.48,0,0,0,1.1-.1c.6-.2.7-.9.7-3l.2-14.1c0-.5.1-.8.3-.8s.5.3.9.7,3.9,4.2,7.4,7.7c1.6,1.6,4.8,5.1,5.3,5.4h.1l-.2-10.7c0-1.5-.2-1.9-.8-2.1a5.7,5.7,0,0,0-1.3-.1c-.3,0-.4-.1-.4-.2s.3-.2.6-.2c1.2,0,2.4.1,2.9.1.3,0,1.2-.1,2.3-.1.3,0,.6,0,.6.2s-.1.2-.4.2a2,2,0,0,0-.7.1c-.7.2-.9.7-.9,2l-.3,15.1c0,.5-.1.7-.3.7s-.5-.3-.8-.5c-1.5-1.4-4.6-4.6-7-7-2.6-2.6-5.3-5.6-5.7-6h-.1l.3,9.8Z" transform="translate(-72.75 -88.49)"/><path class="cls-1" d="M337,503.4v-5.1c0-.8-.2-1.2-1-1.4-.2,0-.6-.1-.9-.1s-.4,0-.4-.2.2-.2.5-.2c1.3,0,2.8.1,3.4.1h6c.5,0,.8-.1,1-.1s.3-.1.4-.1.1.1.1.2-.1.5-.2,1.6c0,.2-.1,1.3-.1,1.6,0,.1-.1.3-.2.3s-.2-.1-.2-.3a3.08,3.08,0,0,0-.1-.9c-.2-.4-.4-.7-1.6-.9-.4,0-2.9-.1-3.4-.1a.22.22,0,0,0-.2.2v6c0,.2,0,.3.2.3h3.8c.6,0,.9-.1,1.1-.4s.3-.3.4-.3a.22.22,0,0,1,.2.2c0,.1-.1.5-.2,1.7,0,.5-.1,1.4-.1,1.6s0,.5-.2.5-.2-.1-.2-.2a3.44,3.44,0,0,0-.1-.9c-.1-.5-.5-.8-1.3-.9-.5,0-2.8-.1-3.4-.1-.1,0-.1.1-.1.2v5.6c0,1.6.4,2,2.9,2a5.58,5.58,0,0,0,2.2-.3c.6-.3.9-.8,1.1-1.8,0-.3.1-.4.3-.4s.2.2.2.4a24.77,24.77,0,0,1-.3,2.7c-.2.6-.4.6-1.3.6-3.6,0-5.2-.1-6.6-.1-.5,0-2.1.1-3,.1-.3,0-.5-.1-.5-.2s.1-.2.4-.2a2.48,2.48,0,0,0,.9-.1c.5-.1.6-.6.7-1.3.1-1,.1-2.9.1-5.1l-.3-4.2Z" transform="translate(-72.75 -88.49)"/><path class="cls-1" d="M351.22,498.8c-.3-.9-.5-1.5-.9-1.7a1.8,1.8,0,0,0-1-.2c-.2,0-.4,0-.4-.2s.2-.2.5-.2c1.2,0,2.6.1,2.8.1s1.3-.1,2.7-.1c.3,0,.5.1.5.2s-.2.2-.4.2a1.27,1.27,0,0,0-.6.1.55.55,0,0,0-.3.5,13.58,13.58,0,0,0,.5,2.2c.4,1.6,2.6,8.8,3.1,10.2h.1l4.6-12.4c.3-.7.4-.9.6-.9s.4.4.7,1.1l5,12h.1c.4-1.6,2.3-7.9,3.2-10.7a4.19,4.19,0,0,0,.2-1.4c0-.4-.2-.7-1.1-.7-.2,0-.4-.1-.4-.2s.2-.2.5-.2c1.3,0,2.3.1,2.5.1s1.2-.1,2-.1c.3,0,.4,0,.4.2s-.1.2-.3.2a2.2,2.2,0,0,0-.8.1c-.6.2-.8,1.2-1.3,2.5-1.1,3-3.6,10.6-4.8,14.2-.3.8-.4,1.1-.7,1.1s-.4-.3-.7-1.2l-5-12h0c-.5,1.2-3.6,9.7-4.7,11.9-.5,1-.6,1.3-.9,1.3s-.4-.3-.5-.9l-5.2-15.1Z" transform="translate(-72.75 -88.49)"/><path class="cls-1" d="M391.52,508.4a4.18,4.18,0,0,0-.6-2.5c-.2-.4-3.4-5.6-4.2-6.9a5.27,5.27,0,0,0-1.6-1.7,1.93,1.93,0,0,0-1-.3c-.2,0-.4,0-.4-.2s.2-.2.5-.2,2.2.1,3,.1c.5,0,1.5-.1,2.6-.1.2,0,.4.1.4.2s-.2.2-.5.3-.3.2-.3.4a1.6,1.6,0,0,0,.3.8c.3.7,3.7,6.5,4.1,7.1.2-.6,3.2-5.8,3.6-6.6a3.46,3.46,0,0,0,.3-1.2.6.6,0,0,0-.5-.6c-.2,0-.4-.1-.4-.2s.1-.2.4-.2c.8,0,1.6.1,2.2.1s2.1-.1,2.6-.1c.3,0,.4,0,.4.2s-.2.2-.5.2a3,3,0,0,0-1.1.3,2.85,2.85,0,0,0-1.3,1.2c-.8,1-4.1,6.6-4.6,7.6a5.28,5.28,0,0,0-.4,2.4v2c0,.4,0,1.4.1,2.4a1.15,1.15,0,0,0,1,1.3c.3,0,.9.1,1.2.1s.4.1.4.2-.2.2-.5.2c-1.5,0-3-.1-3.7-.1s-2.1.1-3,.1c-.3,0-.5,0-.5-.2s.1-.2.4-.2a2,2,0,0,0,.8-.1c.5-.1.7-.6.7-1.3.1-1,.1-2,.1-2.4Z" transform="translate(-72.75 -88.49)"/><path class="cls-1" d="M402.92,505.5c0-4.1,2.7-9.4,9.9-9.4,5.9,0,9.6,3.5,9.6,8.9s-3.8,9.8-9.9,9.8c-6.8.1-9.6-5-9.6-9.3Zm16.2.5c0-5.3-3.1-8.7-7-8.7-2.7,0-5.9,1.5-5.9,7.5,0,5,2.7,8.9,7.3,8.9,1.7,0,5.6-.8,5.6-7.7Z" transform="translate(-72.75 -88.49)"/><path class="cls-1" d="M428.72,503.4v-5.1c0-.8-.2-1.2-1-1.4-.2,0-.6-.1-.9-.1s-.4,0-.4-.2.2-.2.5-.2c1.3,0,2.8.1,3.3.1.8,0,2.6-.1,3.4-.1a7.53,7.53,0,0,1,4.4,1,4.18,4.18,0,0,1,1.6,3.3c0,1.8-.7,3.4-3.2,5.3,2.1,2.7,3.8,4.8,5.2,6.3a4,4,0,0,0,2.7,1.6c.3,0,.5.1.7.1s.3.1.3.2-.2.2-.5.2h-2.3a4.62,4.62,0,0,1-2.6-.5c-1-.5-1.9-1.7-3.3-3.5-1-1.3-2.1-2.9-2.4-3.3a.76.76,0,0,0-.4-.2h-2.1c-.1,0-.2,0-.2.2v.3c0,2.2,0,4.1.1,5.1.1.7.2,1.2.9,1.3.4,0,.9.1,1.2.1s.3.1.3.2-.2.2-.5.2c-1.4,0-3.2-.1-3.5-.1-.5,0-2,.1-2.9.1-.3,0-.5-.1-.5-.2s.1-.2.4-.2a2.48,2.48,0,0,0,.9-.1c.5-.1.6-.6.7-1.3.1-1,.1-2.9.1-5.1v-4Zm2.8,1.9c0,.3,0,.4.2.4a5.24,5.24,0,0,0,1.8.2,2.34,2.34,0,0,0,1.7-.4c.7-.5,1.4-1.6,1.4-3.6,0-3.4-2.2-4.4-3.7-4.4a4.51,4.51,0,0,0-1.3.1c-.2,0-.2.1-.2.3l.1,7.4Z" transform="translate(-72.75 -88.49)"/><path class="cls-1" d="M450.82,504.5h.1c.8-.9,4.3-4.4,5-5.3s1.2-1.4,1.2-1.8a.46.46,0,0,0-.3-.5c-.2,0-.3-.1-.3-.2s.1-.2.4-.2c.5,0,1.8.1,2.5.1s2.1-.1,2.8-.1c.2,0,.4,0,.4.2s-.1.2-.4.2a4.41,4.41,0,0,0-1.4.3,8.12,8.12,0,0,0-2.6,1.8l-5.2,5.2c.9,1.1,5.5,6.2,6.5,7a11.86,11.86,0,0,0,3.4,2.6,4.12,4.12,0,0,0,1.5.4c.2,0,.3,0,.3.2s-.1.2-.6.2h-3.7c-1.3-.1-1.9-.6-3-1.6s-5.8-6.4-6.3-7.1l-.3-.4h0v2.2c0,2.2,0,4.1.1,5.1,0,.7.3,1.2.9,1.3.3,0,.9.1,1.2.1s.3.1.3.2-.2.2-.5.2c-1.3,0-2.8-.1-3.4-.1s-2.1.1-3,.1c-.3,0-.5-.1-.5-.2s.1-.2.4-.2a2.48,2.48,0,0,0,.9-.1c.5-.1.6-.6.7-1.3.1-1,.1-2.9.1-5.1v-9.4c0-.8-.2-1.2-1-1.4-.2,0-.6-.1-.9-.1s-.4,0-.4-.2.2-.2.5-.2c1.3,0,2.8.1,3.3.1s2.1-.1,2.9-.1c.3,0,.5,0,.5.2s-.1.2-.3.2a2,2,0,0,0-.7.1c-.6.1-.8.5-.9,1.4v5.1l-.2,1.1Z" transform="translate(-72.75 -88.49)"/><path class="cls-2" d="M320.7,369.62H178.92c.64-12.94-3.24-27.83-7.77-38.84-14.25-35-44-66.68-36.9-108.11,3.88-22.66,22.65-38.85,45.31-40.79,40.79-3.24,75.75,18.13,115.24,25.25,3.24.65,7.12-6.47,11-9.71-18.13-13.6-15.54-40.79,5.17-52.44,1.3-1.94.65-17.48,0-18.13-1.94-1.29-14.89,1.3-16.83-.64s-1.29-18.13,0-19.43,16.19,0,17.48-.64c.65-1.3-.65-15.54,1.3-16.84,1.29-1.29,9.06-.64,9.06-.64h-3.24s7.77,0,9.07.64c1.29,1.3,0,15.54,1.29,16.84.65,1.29,16.19-.65,17.48.64s1.3,17.48,0,19.43c-1.94,1.94-15.54-.65-16.83.64-.65.65-1.3,16.19,0,18.13,21.36,11.65,23.3,38.84,5.18,52.44,3.88,3.88,7.77,10.36,11,9.71,39.49-7.12,74.45-28.49,115.24-25.25,22.66,1.94,41.43,18.13,45.32,40.79,7.12,41.43-22.66,73.15-36.9,108.11-4.54,11-8.42,25.9-7.77,38.84H320.05m76.39-85.45s16.18-2.59,17.48,0-5.18,16.18-4.53,18.13c1.29,2.59,22.66-1.95,23.3.64s-1.29,14.25-3.23,16.19-22,1.94-22,1.94c-3.89,3.24-5.18,9.71-5.18,16.18,0,8.42,6.47,12.95,16.83,9.72,19.42-5.18,43.37-47.91,57.62-77,10.35-21.37,16.83-56.33-11-67.33-16.83-6.48-34.31-2.59-52.44,2.59-18.77,5.82-44,12.94-58.91,22.66-3.88,1.94,4.53.64-9.06,29.78-5.83,13.59-12.3,42.08-9.71,57,3.88,20.71,14.89,33.66,24.6,34.31,6.47,0,11.65-2.59,16.18-6.48,6.47-5.82,11.65-14.89,9.71-20.07-1.29-1.94-18.13.65-19.42-.64-1.29-1.94,1.94-14.89,3.88-16.83s17.48.64,19.43-1.3c2.59-1.94,4.53-18.77,6.47-19.42m-154.08,0c1.94,1.29,3.89,17.48,5.83,19.42s17.48-.65,19.42,1.3,5.18,14.89,3.88,16.83-18.12-.65-19.42.65c-1.94,5.17,3.24,14.24,9.71,20.06,4.53,3.89,9.71,6.48,16.19,6.48,9.71,0,21.36-13,24.6-34.31,2.59-14.25-3.24-43.38-9.71-57-12.95-29.14-5.18-27.19-9.07-29.78-14.89-9.07-39.49-16.84-58.91-22.66-18.13-5.18-35.61-9.07-52.44-2.59-27.84,10.36-21.36,46-11,67.33,14.24,29.13,38.19,71.21,57.61,77,10.36,3.23,16.84-1.3,16.84-9.71,0-6.48-1.3-12.95-5.18-16.19,0,0-20.07,0-22-1.94s-3.89-13.6-3.24-16.19,22,1.95,23.31-.64-5.83-16.19-4.54-18.13c2-2.59,18.13,0,18.13,0" transform="translate(-72.75 -88.49)"/><polyline class="cls-2" points="247.94 300.55 102.93 300.55 102.93 324.5 247.94 324.5"/><polyline class="cls-2" points="244.71 300.55 390.37 300.55 390.37 324.5 244.71 324.5"/></svg>