<?xml version="1.0" encoding="UTF-8"?>
<svg width="500" height="357.27" version="1.1" viewBox="0 0 500 357.27015" xml:space="preserve" xmlns="http://www.w3.org/2000/svg" xmlns:cc="http://creativecommons.org/ns#" xmlns:dc="http://purl.org/dc/elements/1.1/" xmlns:rdf="http://www.w3.org/1999/02/22-rdf-syntax-ns#"><metadata><rdf:RDF><cc:Work rdf:about=""><dc:format>image/svg+xml</dc:format><dc:type rdf:resource="http://purl.org/dc/dcmitype/StillImage"/><dc:title/></cc:Work></rdf:RDF></metadata><g stroke-width="1.9047"><path d="m63.113 245.47-11.349 6.95c-3.7329-5.7188-9.74-9.1244-17.112-9.1244-12.009 0-20.901 8.7915-20.901 21.655 0.0499 13.284 9.2187 21.649 20.901 21.649 7.3273 0 13.284-3.3058 17.256-9.0745l10.777 7.7544c-5.863 8.6029-15.836 13.994-27.939 13.994-20.379 0-34.75-14.421-34.75-34.323 0-19.906 14.372-34.323 34.75-34.323 12.197 0 22.975 5.5744 28.365 14.843"/><path d="m83.037 264.93c0 12.857 8.8416 21.655 20.988 21.655 12.203 0 20.994-8.7972 20.994-21.655 0-12.857-8.7915-21.655-20.994-21.655-12.147 0-20.988 8.7972-20.988 21.655m55.79 0c0 19.763-14.421 34.323-34.799 34.323-20.373 0-34.744-14.56-34.744-34.323 0-19.763 14.372-34.323 34.744-34.323 20.379 0 34.799 14.56 34.799 34.323"/><path d="m209.89 298.04h-12.386l-33.569-44.207-0.0444 44.207h-13.196v-66.189h12.342l33.618 44.201v-44.201h13.234z"/><path d="m243.53 270.48h19.146l-9.5515-25.577zm43.542 27.561h-14.089l-5.7687-15.409h-28.222l-5.7687 15.409h-13.761l25.771-66.189h16.074z"/><path d="m452.1 270.48h19.148l-9.5515-25.577zm43.542 27.561h-14.089l-5.7687-15.409h-28.222l-5.7687 15.409h-13.761l25.771-66.189h16.074z"/><path d="m488 238.11v-4.9144h-1.9857v-1.3479h5.4414v1.3479h-1.9857v4.9144z"/><path d="m498.53 238.11v-4.3487l-1.4089 3.7496h-1.5586l-1.4089-3.7384v4.3375h-1.4643v-6.2622h2.1023l1.5586 4.0102 1.542-4.0102h2.1078v6.2622z"/><path d="m325.89 263.24v10.977h16.391c-2.2186 8.1982-8.3534 12.697-18.376 12.697-11.443 0-20.663-8.4587-20.663-21.982 0-12.907 8.7972-21.794 20.901-21.794 6.7614 0 12.242 2.6459 15.98 6.95l9.5016-9.3185c-5.863-6.3788-14.61-10.162-25.104-10.162-20.329 0-34.938 14.327-34.938 34.323 0 21.371 16.263 34.279 34.605 34.279 18.77 0 32.337-14.139 32.337-34.184v-1.786z"/><path d="m409.05 253.41c0 5.3138-4.3209 9.6347-9.6347 9.6347h-17.822v-19.27h17.822c5.3138 0 9.6347 4.3209 9.6347 9.6347m11.926 0c0-11.892-9.6736-21.565-21.56-21.565l-31.011-6e-3v66.189h13.19v-23.059h12.053l11.759 23.059h15.237l-13.057-24.666c7.8486-3.2281 13.39-10.955 13.39-19.952"/></g><g fill="#62bb46" stroke-width="1.9047"><path d="m140.73 353.06c2.9618 0 4.7592-1.1648 4.7592-3.3836v-0.0722c0-2.08-1.6585-3.3114-5.0754-3.3114h-6.878v6.7669zm-1.2702-10.433c2.7845 0 4.6536-1.0927 4.6536-3.3502v-0.0722c0-1.9358-1.5531-3.1338-4.3375-3.1338h-6.2401v6.5563zm-10.189-8.2147c0-1.2314 0.95404-2.1855 2.1855-2.1855h8.886c2.8177 0 5.042 0.77656 6.4509 2.1855 1.0927 1.0927 1.6585 2.4295 1.6585 4.0879v0.0722c0 2.9619-1.6918 4.5483-3.5278 5.4969 2.8898 0.98732 4.9034 2.6459 4.9034 5.9961v0.0665c0 4.4096-3.6331 6.7726-9.13 6.7726h-9.2408c-1.2314 0-2.1855-0.95404-2.1855-2.1855z"/><path d="m183.05 344.47c3.1005 0 5.0754-1.6196 5.0754-4.1268v-0.0665c0-2.6459-1.9025-4.0935-5.114-4.0935h-6.3066v8.2867zm-10.683-10.045c0-1.2369 0.95402-2.1855 2.1855-2.1855h8.8138c3.1062 0 5.5357 0.91521 7.122 2.4683 1.3035 1.3368 2.0411 3.1727 2.0411 5.3194v0.0722c0 3.9493-2.2908 6.3454-5.6022 7.366l4.7203 5.9572c0.42709 0.53249 0.70998 0.98732 0.70998 1.6585 0 1.1981-1.0206 2.008-2.08 2.008-0.98732 0-1.6252-0.45483-2.1188-1.126l-5.9904-7.649h-5.4635v6.6283c0 1.1981-0.95402 2.1466-2.1522 2.1466-1.2314 0-2.1855-0.94848-2.1855-2.1466z"/><path d="m229.45 347.1-4.3374-9.9785-4.3319 9.9785zm-16.147 6.9778 9.1688-20.445c0.49365-1.0927 1.3756-1.7639 2.607-1.7639h0.21077c1.2369 0 2.08 0.67115 2.5737 1.7639l9.1688 20.445c0.172 0.32171 0.24405 0.63787 0.24405 0.92076 0 1.1593-0.88193 2.08-2.0468 2.08-1.0206 0-1.725-0.59904-2.1133-1.5198l-2.008-4.6148h-11.986l-2.08 4.7592c-0.35499 0.88192-1.0927 1.3756-2.008 1.3756-1.1315 0-2.0135-0.88193-2.0135-2.0135 0-0.31615 0.11085-0.63231 0.28289-0.98732"/><path d="m258.82 334.28c0-1.1981 0.95404-2.1855 2.1855-2.1855h0.46037c1.0539 0 1.6585 0.52695 2.252 1.2702l12.342 15.969v-15.159c0-1.1648 0.9485-2.1133 2.1133-2.1133 1.1981 0 2.1522 0.9485 2.1522 2.1133v20.727c0 1.1981-0.9152 2.1522-2.1133 2.1522h-0.17752c-1.0261 0-1.6585-0.53249-2.2575-1.3035l-12.691-16.429v15.653c0 1.1593-0.94848 2.1133-2.1133 2.1133-1.1981 0-2.1522-0.95404-2.1522-2.1133z"/><path d="m313.51 352.97c5.1807 0 8.5642-3.4889 8.5642-8.3201v-0.0722c0-4.8256-3.3836-8.3867-8.5642-8.3867h-4.8645v16.779zm-9.202-18.543c0-1.2314 0.95405-2.1855 2.1855-2.1855h7.0166c7.7544 0 13.113 5.3249 13.113 12.269v0.0665c0 6.9445-5.3582 12.342-13.113 12.342h-7.0166c-1.2314 0-2.1855-0.95403-2.1855-2.1855z"/><path d="m348.52 354.17c-0.49365-0.35499-0.84311-0.95404-0.84311-1.6585 0-1.126 0.91522-2.008 2.0411-2.008 0.59905 0 0.98731 0.17752 1.2702 0.38826 2.0411 1.6196 4.2321 2.5403 6.9111 2.5403s4.3708-1.2702 4.3708-3.1062v-0.0665c0-1.7638-0.98732-2.7179-5.5689-3.7717-5.2527-1.2702-8.2147-2.8232-8.2147-7.3717v-0.0665c0-4.2321 3.5222-7.1608 8.4254-7.1608 3.1005 0 5.6022 0.81537 7.8265 2.2908 0.49365 0.28289 0.94848 0.88193 0.94848 1.7306 0 1.126-0.91521 2.008-2.0411 2.008-0.4271 0-0.77654-0.10533-1.1316-0.31616-1.9025-1.2314-3.7384-1.8692-5.6744-1.8692-2.5403 0-4.0157 1.3035-4.0157 2.9287v0.0667c0 1.9082 1.126 2.7512 5.885 3.8826 5.214 1.2647 7.8985 3.1338 7.8985 7.2218v0.0722c0 4.6205-3.6331 7.366-8.8138 7.366-3.3502 0-6.5229-1.0539-9.2741-3.1007"/></g><g stroke-width="1.9047"><path d="m95.97 348.95c-2.4184 0-4.3763-1.9581-4.3763-4.3763 0-2.4184 1.9581-4.3763 4.3763-4.3763 1.5475 0 3.9049 1.7972 5.3971 3.084 0.79317 0.68225 0.79317 1.9025 0 2.5847-1.4921 1.2924-3.8495 3.084-5.3971 3.084"/><path d="m399.74 340.21c2.4184 0 4.3763 1.9581 4.3763 4.3763 0 2.4129-1.9581 4.3763-4.3763 4.3763-1.5475 0-3.9049-1.7971-5.3969-3.084-0.79318-0.68223-0.79318-1.9025 0-2.5847 1.4921-1.2924 3.8495-3.084 5.3969-3.084"/><path d="m337.38 147.2 1.1093-0.18857 1.0982-0.19967 1.0927-0.27179 1.1094-0.14971 1.0816-0.28843 1.0705-0.32725 1.0261-0.44929 1.004-0.28843 1.004-0.30507 0.96512-0.41601 1.0428-0.14971 0.99842-0.31062 1.0372-0.14971 1.004-0.32171 1.0428-0.0998 1.0428-0.10534 1.0483-0.0333 1.0428-0.0665 1.0539-0.0114 1.0483 0.0114 1.0483-0.0221 1.0483-0.0171 1.0483 0.0444 1.0539 0.0389 1.0151 0.32727h1.0594l1.0317 0.172 1.0095 0.28844 1.004 0.29951 0.50476 0.12762 0.50473 0.12762 1.0594 0.10533 0.98732 0.3439 0.94296 0.45483 1.0705 0.32171 1.0372 0.42155 1.0816 0.29398 1.0927 0.23851 1.0927 0.19967 1.0927 0.26625 1.1149 0.10533h6e-3l1.126-0.0998 1.1093 0.21632 1.126 0.0333 1.1204-0.0221 1.1093-0.21078 1.126 0.0499 1.1038-0.22742 0.55468-0.0722 0.54911-0.0722 1.1316-0.0722 1.0372-0.45484 1.065-0.31616 0.54911-0.11638 0.5436-0.11657 1.0816-0.28287 1.004-0.4382 1.0095-0.416 1.0539-0.31062 1.0927-0.16095v-0.30506l-0.97623-0.45483-0.8653-0.68226-1.0483-0.31062-0.90966-0.59904-0.98177-0.44929-1.004-0.39382-1.0539-0.2607-0.9374-0.57131-1.065-0.23296-1.004-0.37718-1.004-0.40491-1.015-0.37163-1.0372-0.29397-1.0539-0.22743-1.0317-0.3439-1.065-0.18304-1.0483-0.24407-1.0484-0.26069-1.0816-0.10533-1.0539-0.22188-1.0816-0.0609-1.0761-0.0554-1.0539-0.29398-1.0872 0.0499-1.0705-0.15523-1.0705-0.14971-1.0816-0.0333-1.0761 0.0389-1.0816-0.0171-1.0816 0.11638-1.0982-0.13867-1.0705 0.17752-1.0927 0.0333-1.0594 0.28844-1.0872 0.0943-1.065 0.21077-1.0539 0.27179-1.0317 0.3439-1.0428 0.28843-1.065 0.23297-1.0483 0.29397-1.0539 0.26625-0.95404 0.5713-1.0539 0.27735-1.0539 0.28287-0.93739 0.59352-1.0594 0.26624-1.0261 0.36607-0.92631 0.59351-0.99286 0.44373-1.004 0.41601-1.004 0.41045-0.92074 0.59352-1.0372 0.35498-1.0095 0.42156-0.94294 0.54357-0.90412 0.6046-0.97623 0.48256-1.004 0.43264-0.96513 0.5214 0.12762 0.2607z" fill="#94d7e9"/><path d="m307.95 167.03 1.0761 0.0554 1.0483-0.0223 1.0483-0.061 1.0428 0.16647 1.0372 0.14971 1.0483 0.0832 1.0317 0.1997 1.0539 0.0221 1.0206 0.23851 1.0428 0.16075 0.95404 0.47148 1.0483 0.14419 0.93185 0.49919 1.0539 0.13314 1.0095 0.50476 1.0483 0.39382 1.0705 0.33279 1.1038 0.1997 1.0816 0.28843 1.1094 0.17752 1.1204 6e-3 1.126-0.0722 1.1093 0.172 1.1205 0.12209 1.1204-0.11086 1.1149-0.0998 1.1204-0.0554 1.1149-0.0722 1.1149-0.12761 1.065-0.37163 1.0872-0.23297 1.126-0.1221 1.0428-0.39382 1.0484-0.38826 0.93739-0.47148 1.0206-0.25513 0.98732-0.34945 1.0594-0.0943 1.004-0.27733 0.98731-0.39936 1.0594 6e-3 1.0151-0.26624 1.0539-0.0114 1.0317-0.22741 1.0539 0.0888 1.0483-0.0444 1.0539 0.0609 1.0484-0.0171 1.0483-0.12209 1.0483 0.072 1.0428 0.0998 1.0372 0.21632 0.5214 0.0499 0.5214 0.0499 1.0428 0.0998 0.99841 0.3439 1.0206 0.2274 0.98177 0.35499 1.0262 0.21078 0.95958 0.41601 0.99841 0.28843 1.0705 0.32725 1.0982 0.23851 1.0428 0.41602 1.1038 0.18304 1.0872 0.22743 1.1038 0.16095 1.0982 0.23851 1.1204 0.0832 1.126-0.11638 1.1149 0.0171 1.1149-0.0722 1.126 0.10533 1.1204-0.0499 1.1204-0.0777 1.1038-0.21632 1.1093-0.15524 1.0317-0.49367 1.1094-0.16647 1.015-0.47702 1.126-0.14971 0.92075-0.53249 1.004-0.30508 1.0206-0.2274 0.99288-0.33836 1.0539-0.0998 0.49921-0.16076 0.49921-0.15524 1.0261-0.21077 1.0428-0.0609 0.51585-0.1221 0.51584-0.12761 1.0594 0.13866 1.0428-0.0888 1.0483-0.0777 1.0484-0.0389 1.0483-0.0333 1.0372 0.19413 1.0428 0.0832 1.0483 0.0444 1.0484 0.0389 1.0428 0.0998 1.0539 0.0499 0.98177 0.42156 1.0317 0.17752 0.99286 0.33833 0.29398 0.0888 0.70444 0.20522 0.97067 0.37719 0.99842 0.29398 1.0539 0.23851 0.97069 0.477 1.0594 0.18857 1.0317 0.28289 0.28843-0.32171-0.6878-0.85974-0.47702-0.97069-0.53803-0.93739-0.39936-1.015-0.75989-0.80427-0.56022-0.92631-0.48258-0.97067-0.57685-0.92077-0.79319-0.76545-0.46037-1.004-0.84311-0.71553-0.57131-0.92076-0.63233-0.88193-0.66561-0.8542-0.76545-0.77654-0.7377-0.78764-0.6878-0.83755-0.82647-0.70443-0.79318-0.73772-0.84311-0.67671-0.80428-0.72662-0.79318-0.73216-0.83201-0.68779-0.78762-0.70999-0.65453-0.15524-1.1149 0.21078-1.1149 6e-3 -1.1315-0.14971-1.1038 0.23297-1.0872 0.29397-1.0872 0.23851-1.1482 6e-3 -1.0539 0.37163-1.0095 0.49921-1.0539 0.34945-1.0206 0.25514-0.98175 0.36608-1.0484 0.13867-0.9984 0.29398-0.98732 0.355-0.51585 0.10533-0.5103 0.10533-1.0483 0.0554-1.0206 0.19413-1.0261 0.25514-1.0539 0.0114-1.0428 0.0333-1.0539-0.0554-1.0484 0.18857-1.0483-0.22186-1.0483 0.0943-1.0372-0.11638-1.0594 0.0609-1.0317-0.22187-1.0261-0.21632-1.0484-0.0554-1.0261-0.22188-0.98732-0.34944-1.0594-0.0998-0.94294-0.477-1.065-0.11105-0.92631-0.49365-1.0428-0.42155-1.1149-0.17752-1.0761-0.27733-1.0872-0.2496-1.0483-0.44374-1.1204-0.0722-1.1038-0.19413-1.1204-0.0665-1.1204 0.0114-1.126 0.0943-1.1149 0.0223-1.126-0.11086-1.1204 0.0499-1.1149 0.13867-1.1094 0.15523-1.1094 0.18305-1.0761 0.32725-1.0262 0.47148-1.0816 0.27178-1.0761 0.27733-1.004 0.29398-0.97069 0.38828-0.95958 0.44374-1.0317 0.21078-1.004 0.28841-1.0317 0.21078-1.0317 0.15524-1.0594-0.0554-1.0372 0.11638-0.38828 0.12209-0.63788 0.19413-1.0483 0.0333-1.0483 0.0609-1.0539-0.16095-1.1094-0.0278-1.1038 0.0114-1.1149 0.0665-1.1038-0.0998-1.0872-0.23297-1.0927-0.16095-1.0872-0.172-1.0761-0.23851-0.18304-0.061-0.8653 0.63786-0.92629 0.54913-0.771 0.78209-1.0206 0.41601-0.84865 0.66006-0.92075 0.56022-0.88747 0.61569-0.88749 0.61014-0.8542 0.65451-0.82092 0.70444-0.85974 0.64896-0.96512 0.50476-0.78209 0.75434-0.85419 0.65453-0.85422 0.66006-0.94848 0.53249-0.85973 0.64896-0.82647 0.69334-0.92076 0.56576-0.77654 0.75437-0.93185 0.54912 0.20523 0.55467z" fill="#007ec5"/><path d="m430.55 195.39-0.13314-1.065-0.12209-0.94296-0.0114-0.12209 0.0609-1.0816-0.28287-1.0483-0.0444-1.0761-0.29952-1.0372 0.0499-1.0927-0.4881-0.99843 0.0444-1.1038-0.47148-0.99288-0.20522-1.0539-0.33281-1.015 0.0444-1.126-0.44375-0.98731-0.36607-1.0095-0.46593-0.97067-0.0777-0.0665-1.0206-0.18304-1.0206-0.16095-0.49921-0.11657-0.50475-0.11086-0.99843-0.23851-1.065 0.0888-1.015-0.21632-0.89301-0.60458-1.0095-0.19969-0.95959-0.35499-1.0428-0.11657-0.98732-0.5713-1.1426-0.0832-0.97624-0.64896-1.1648 0.0722-1.0761-0.28287-1.0816-0.27735-1.1149-0.11086-1.126 0.10533-1.1093-0.35498-1.1204-0.0114-1.1204 0.061-1.1149 0.14419-1.1149 0.13314-1.1038 0.16647-1.1149 0.0722-1.065 0.37163-0.57686-0.0114-0.57687-0.0171-1.0594 0.36609-1.0206 0.46592-1.0705 0.31062-0.93185 0.50476-1.0594 0.12761-0.95958 0.43821-1.0317 0.21077-1.065 0.0278-1.015 0.23851-1.015 0.20524-1.0262 0.16647-1.0317 0.19413-1.0372 0.21632-1.0483 0.0114-1.0539-0.0171-1.0539-0.14971-1.0428-0.0444-0.52695 0.14419-0.52694 0.14419-1.0317-0.38828-1.0372-0.0998-1.0761 0.22188-1.0483-0.12762-0.99842-0.39382-1.0261-0.172-1.0317-0.18856-0.97623-0.39381-1.0705-0.0888-0.94848-0.44372-0.92631-0.51586-1.1149-0.17752-1.0982-0.23297-1.0761-0.28843-1.0372-0.42156-1.1094-0.11638-1.0872-0.30508-1.1038-0.19967-1.1316 0.10533-1.1149-0.16095-1.1204 0.11638-1.1149 0.0223-1.1149 0.11085-1.1316-0.0998-1.0927 0.27181-1.1315-0.0221-1.1094 0.18857-1.0872 0.2607-1.0206 0.49365-1.0372 0.39382-1.1426 0.0998-0.90966 0.56576-1.0539 0.14419-0.68778 0.16647-0.32727 0.0777-0.98732 0.35499-1.0372 0.13866-0.95959 0.54357-1.0428 0.11105-1.0594-0.0888-1.0206 0.31617-1.0428 0.13314-1.0483 0.0221-1.0539 0.0609-1.0539-0.27733-1.0428 0.0278-1.0428-0.0554-1.0483 0.0333-1.0483-0.0665-1.0206-0.25516-1.0872 0.21632-1.0372-0.18304-1.0206-0.24406-1.0206-0.2607-0.95405-0.48256-0.97623-0.37717-1.0261-0.20524-0.95404-0.41599-1.1426-0.11086-1.0761-0.29397-0.99286-0.58241-1.0927-0.23851-1.1315-0.0171-0.53249-0.23297-0.52694-0.23295-1.1204-0.11657h-0.0554l-1.0705-0.0278-1.1204 0.0832-1.1204 0.0114-0.56022-0.0223-0.56022-0.0171-1.1094 0.22742-1.1315-0.13314-1.126 0.0333-1.0705 0.41046-1.1426 6e-3 -1.0982 0.21632-1.0317 0.46591-1.1038 0.20524-0.5103 0.22742-0.51029 0.22741 0.0278 0.0943 0.0333 0.0888-1.0261 0.36609-1.0151 0.39936-1.0095 0.42156-0.95959 0.52138-1.0095 0.43264-1.0262 0.42155-0.89858 0.64342-0.92629 0.59352-0.76545 0.80427-0.82092 0.73216-0.89301 0.61568-0.82092 0.70999-0.81538 0.70999-0.79319 0.73216-0.832 0.69334-0.66561 0.87084-0.82646 0.69334-0.83201 0.6878-0.78764 0.73216-0.88193 0.64342-0.64342 0.89303-0.85974 0.65451-0.9152 0.59905-0.70445 0.83201-0.71553 0.80427-0.96513 0.54914-0.78208 0.74326-0.56022 0.97067-0.7488 0.69888 0.19967-0.0171 1.0705 0.32171 1.0372 0.416 1.1149 0.14971 1.0483 0.39936 1.0539 0.4271 1.1371-0.0554h1.1204l1.1038 0.23851 1.1149 0.0114 1.1204 0.0444 1.126 0.17752 1.1038-0.33835 1.1315 0.0998 1.1204-0.0609 1.0927-0.28842 1.0872-0.2718 1.1482-0.0221 1.0262-0.46594 0.9984-0.52138 1.1426-0.11105 1.015-0.26068 0.92076-0.53805 1.004-0.28841 0.99842-0.32171 1.0761-6e-3 0.95958-0.49919 1.0483-0.0998 1.0372-0.12762 1.0483-0.0444 1.0539 0.0554 1.0372-0.0998 1.0428-0.0609 1.0539-0.0171 1.0428 0.0665 1.0594-0.28843 1.0317 0.25516 1.0539 0.0223 1.0539 0.0333 1.0039 0.38828 1.0317 0.13866 1.0317 0.17752 1.015 0.2496 1.0761 0.0223 0.93185 0.53803 0.95958 0.4049 1.0872 0.0499 0.99842 0.52141 1.0871 0.26624 1.0705 0.30506 1.0483 0.41045 1.1371-0.0171 1.0705 0.37163 1.1093 0.172 1.126-0.0943 1.1204-0.0832 1.1149 0.34388 1.126-0.0333 1.1093-0.23297 1.1149-0.10533 1.1371 0.16095 1.1038-0.24407 1.0705-0.36053 1.0539-0.36609 1.1537-0.0171 1.0151-0.48812 0.9984-0.52139 1.0095-0.27734 1.0095-0.28287 1.065-0.0888 0.98178-0.37164 1.015-0.23851 1.0261-0.17752 1.0206-0.19969 1.0428-0.0722 1.015-0.33281 1.0483-0.0943 1.0428-0.13314 1.0539 0.12209 1.0539-0.14971 1.0484 0.0114 1.0372 0.34944 1.0428 0.0389 1.0539-0.0171 1.0372 0.13866 1.0206 0.23297 1.0927-0.16647 1.0095 0.31615 0.98732 0.36054 0.97623 0.38826 1.0483 0.12762 0.94295 0.47148 1.0317 0.19967 1.0594 0.36055 1.004 0.5214 1.0816 0.3106 1.1592-0.0389 1.0761 0.26624 1.0927 0.23851 1.1204 6e-3 1.1038 0.19413 1.1149 0.0888 1.1204-0.11656 1.1204 0.0444 1.1094-0.20524 1.1149-0.0171 1.1204-0.0114 1.1205-0.0777 1.1204-0.12762 1.0317-0.49365 1.0872-0.23851 0.69888-0.22742 0.36055-0.11086 1.1149-0.19967 0.97067-0.38274 0.92631-0.51583 0.97623-0.39937 1.0261-0.23851 1.0872 0.0722 0.97067-0.48812 1.0262-0.21633 1.0483-0.0389 1.0317-0.21077 1.0539-0.0223 1.0539 0.12209 1.0483-0.0333 1.0484-0.11086 1.0483-0.0389 1.0372 0.27733 1.0428-0.0114 1.0539 0.0114 1.0372 0.12762 1.0372 0.12762 1.0539 0.0554 1.0206 0.2274 1.0317 0.20524 1.0206 0.22742 1.0095 0.29952 0.99842 0.31062 0.95405 0.42154 1.0095 0.51032 1.1371 0.0943 1.0483 0.37717 1.0483 0.40491 1.0761 0.33281 1.1315-0.0114 1.126-0.0333 1.0927 0.41601 1.126-0.15523 1.1204-0.0888 0.12762 0.0278h6e-3l0.0943-0.98178z" fill="#43c5e4"/><path d="m204.18 49.241 0.0554 0.62123 1.0705 0.9152 0.80427 0.93185 0.4382 0.32171 0.21078 0.22188 0.68224 0.61568 0.49367 0.72662 1.0095 0.84311 0.68778 0.56022 0.78765 0.94848 1.1537 1.2979 1.3035 1.1371 1.2924 1.1648 1.0816 1.3589 1.3534 1.0872 1.2536 1.1926 0.0832 0.08324 0.32171 0.36055 0.84865 0.9984 0.89858 0.9485 0.0388 0.02781 0.12762 0.14971 1.1038 0.90412 0.53803 0.81538 0.92075 0.6545 1.2147 1.1759 1.0483 1.3978 0.52695 0.43818 6e-3 0.0057 0.0114 0.01143 0.78762 0.66006 0.54914 0.46592 0.46591 0.74326 0.97624 0.87084 0.18856 0.14419 0.21078 0.26624 1.2425 1.1648 0.19967 0.26624 0.29398 0.29398 0.6656 0.75991 1.2702 1.1759 1.1704 1.2702 0.66007 0.48258 0.52138 0.66561 0.93185 0.90966 0.29952 0.19967 0.0943 0.11086 0.99286 0.78764 0.50475 0.6878 0.58241 0.61014 0.29397 0.41045 1.2646 0.9984 0.58795 0.77656 0.96515 0.67115 0.99286 1.0705 0.12762-0.05543 0.832 0.16647 0.80982-0.75989-6e-3 -1.2869-0.0832-0.63788 0.0888-1.603-0.18305-1.6807 0.0171-0.5713 0.0777-1.2702-0.0223-0.39936 0.0114-0.24405-0.0444-0.39936-0.0389-0.71553-0.0609-0.98178-6e-3 -0.46037 0.0665-1.1482 0.12762-0.92076-0.0223-0.41045 6e-3 -0.07219 0.0888-1.2758-0.22743-1.2813 0.0777-1.2758v-0.13314l0.14971-0.82092-0.14419-1.3478v-0.25516l0.16095-1.2813-0.0609-1.2758-0.0998-0.67115 0.0444-0.44374-0.061-0.56576 0.16647-0.87082-0.21632-0.97623 0.13867-1.0982-0.0888-1.1648 0.11085-0.58795-0.26624-0.95404-0.10533-0.93739-1.1926-1.481-0.4271-0.46592-0.37718-0.5935-1.0428-0.82646-0.90966-0.95404-0.28843-0.24962-0.49365-0.64342-1.1371-0.94294-0.89858-0.93185-0.80981-1.0483-0.99286-0.87084-0.22743-0.20524-0.75991-0.84865-1.1814-0.9984-0.53249-0.81538-1.0872-0.68224-0.83755-1.1038-0.90412-0.83201-0.0554-0.06647-0.88747-0.97067-0.92076-0.71553-0.78765-1.0982-1.2868-1.1204-0.13314-0.12209-0.52694-0.71553-1.0594-0.79317-0.87084-0.98732-0.88747-0.97069-0.92631-0.92631-0.72108-0.48811-0.98177-0.96513-0.46038-0.55468-0.5824-0.80982-1.2036-0.172-1.0539 0.41047-0.88747 0.93739-0.38274 0.89858-0.86528 0.832-0.93739 1.431-0.46038 0.55468-0.37163 0.4271-0.0943 0.12762-0.172 0.20524-0.18304 0.28287-0.30508 0.42156-0.66561 1.1038-0.71553 1.0594-0.16095 0.22742-1.0594 0.9984-1.004 1.3811-0.8542 1.4865-1.0206 1.3701-0.2607 0.41045-0.27735 0.25516-0.4881 0.90966-0.95404 1.2092 0.0444 0.43264-0.0888 0.54359z" fill="#007933"/><path d="m223.17 24.594v0.0057l0.11086 0.11086 0.82646 0.87084 0.4271 0.41045 1.1204 1.2258 0.28289 0.34944 0.41045 0.29398 0.62679 0.57687 0.7488 0.70997 0.20524 0.24407 0.94848 0.95402 1.004 0.89858 0.9374 0.97069 0.55467 0.49919 0.70445 0.77654 0.85419 0.8653 0.63788 0.80982 0.92075 0.75991 0.11085 0.11638 0.0722 0.06095 0.80427 0.95402 0.89858 0.70999 0.69334 0.87084 0.2496 0.25514 0.0554 0.07219 0.15524 0.14419 0.78764 0.80984 0.54912 0.49921 0.41601 0.44373 0.97067 0.92631 0.99288 0.90966 0.63787 0.6046 0.31061 0.34944 0.0444-0.0221 1.0816 0.3439 0.67669-1.0262-0.13866-0.84863 0.10533-0.98732-0.0171-0.73218 0.0223-0.15524-0.0333-0.21078-0.0171-0.7377-0.0389-1.8304-6e-3 -0.40491 0.11085-0.89858-0.12761-1.3035v-0.10533l0.12209-1.3035-0.10533-0.81536 0.0171-0.66006v-1.8249l0.0777-1.8304-0.0499-1.542 0.0171-0.11086-0.0333-0.44374-0.0554-1.37 0.0171-0.73772 0.0609-1.2813-0.0171-1.1482 0.0221-0.44929-0.0114-1.3534-0.12209-1.0095 0.0998-1.5198 0.0722-1.8304-0.12761-1.0927-6e-3 -1.3257 0.0998-1.3534v-1.4089l0.0221-0.29952-0.0888-1.786-6e-3 -0.07771 0.0171-0.83757 0.0665-1.004-0.0609-0.54913-0.0172-1.2203 0.13867-1.8249-0.18305-1.4699v-0.35501l-0.47146-0.89855-0.94295 0.32725-0.0609-0.0278-0.6046 0.66561-0.31615 0.30506-0.24407 0.30508-0.0777 0.0832-0.90966 1.0927-0.50475 0.56577-1.004 0.89857-0.62124 0.95959-0.22187 0.26624-0.9263 0.79317-0.85974 1.0372-0.44375 0.53805-0.71551 0.68224-1.1149 1.4754-1.2924 1.3201-0.56577 0.78764-0.24959 0.28843-0.93741 0.97067-0.36608 0.47702-0.28843 0.28287-1.1648 1.4422-1.2147 1.3978-1.1648 1.4421-0.92077 1.187-0.0171 0.01143-0.90968 0.99286-0.38272 0.65452-0.0554 0.07771-1.1926 1.4089 6e-3 0.13314-0.39937 0.84309z" fill="#a5cf4f"/><path d="m252.1 36.689-6e-3 0.28841-0.0444 1.8027 0.0171 0.28289-0.0171 0.55468 0.0943 1.1981-0.0943 1.5642 0.58795 0.91522 1.065-0.22742 1.004-0.98178 1.0539-0.93739 0.33834-0.37163 0.17752-0.16647 0.53249-0.62123 0.84865-0.90412 0.0114-0.01714 1.1426-0.9485 1.1926-1.309 0.9485-0.9984 0.46037-0.45483 1.1482-1.0095 1.2646-1.2369 0.68226-0.74326 0.16095-0.12209 0.99842-0.97069 0.38272-0.42154 0.26624-0.25516 1.0206-1.2425 0.12209-0.13866 1.309-1.1593 1.2924-1.2147 0.38828-0.43264 0.12762-0.11086 0.93185-1.0428 0.99286-0.98177 0.4881-0.92077-0.43264-0.93185-0.75989-1.187-0.9485-1.0262-0.92076-1.0428-0.79873-1.1426-0.87637-1.0816-0.13866-0.14419-0.0777-0.12209-0.31615-0.29954-0.42155-0.44929-0.84311-1.1038-0.44929-0.41045-0.34944-0.50475-1.1814-1.3811-0.57686-0.67115-0.15524-0.19969-0.10533-0.09981-0.35499-0.41599-1.2258-1.3479-1.1315-1.4421-1.2979-1.2758-1.187-1.3811-1.0594-1.3257-0.0221-0.0333-0.0171-0.0114-0.0389-0.0554-1.1704-1.0317-0.65453-0.94848-0.43264-0.47702-0.18304-0.25515-0.28844-0.2607-0.0278-0.0333-0.9374-1.0262-1.0262-0.19967-0.66559 0.83754 0.11638 1.2369-0.061 0.57684 0.0554 0.89858v0.0722l-0.10533 1.3867 0.10533 0.67669-0.0221 0.58796v0.96514l-0.0832 0.54357 0.16647 1.2702 0.0171 0.23851 0.0333 0.80427-0.13866 1.5975v0.03886l-0.0278 0.20523 0.0221 0.29952-6e-3 1.2591 0.0171 1.1593v0.04438l6e-3 1.3867v0.01143l-0.0114 1.004-0.0499 1.8082-0.0114 1.8027 0.0554 1.8027-6e-3 0.73772-0.0389 1.1371-6e-3 0.97069-0.0333 0.76546 0.061 1.8027-0.0278 1.3701-0.0333 0.62123 0.061 1.3811-0.0333 1.3811v0.06095l-0.0278 0.5935 0.0888 0.72662-0.0888 1.3811z" fill="#62bb46"/><path d="m243.78 152.92 0.20523-0.95404-0.11085-0.7377 0.0777-0.50475-0.13314-0.37718 0.0444-0.90968-0.77654-1.0428-0.19413-0.34944-0.37163-0.78763-1.2425-1.1094-0.45483-0.46592-0.12762-0.14419-0.81535-0.95958-0.771-0.61014-0.17752-0.17752-1.1149-1.2258-0.33279-0.3439-0.19415-0.355-0.36607-0.22187-0.2607-0.26624-0.78765-0.62123-0.41599-0.59351-0.70999-0.62677-0.39936-0.53249-1.3035-0.9152-0.17752-0.18305-0.93185-1.1759-0.54357-0.41047-0.41045-0.48257-0.87639-0.67669-0.59349-0.68225-0.96515-1.3645-0.63231-0.50475-0.30508-0.45483-0.93185-0.83201-0.68224-0.40492-0.98734-1.2702-1.2646-1.0705-0.18857-0.19413-0.38272-0.60458-0.59905-0.42155-1.0317-1.2092-0.10533-0.15524-0.24406-0.12761-0.98731-0.76546-0.99841-1.3368-0.37717-0.23297-0.0777-0.12761-0.95405-0.80427-0.80427-0.95405-0.59905-0.42709-0.72108-0.73771-0.42155-0.62124-0.95959-0.51584-6e-3 -6e-3 -1.004-1.3257-0.90966-0.65452-0.71553-0.92075-0.90966-0.84865-0.80982-0.94294-0.84311-0.90968-0.97067-0.79316-0.36608-0.25516-0.36053-0.45483-1.0594-0.83755-0.0888-0.0943-0.78209-0.97624-0.2274-0.19967-0.17752-0.22186-0.6878-0.61014-0.56022-0.82647-0.85974-0.89857-0.92076-0.78209-0.36609-0.46593-1.1482-1.1814-0.88748-0.79873-0.23296-0.25516-0.90966-0.85419-0.95959-0.79319-0.89857-0.86528-0.0943-0.0777-0.64342-1.0428-0.73772-0.64342-0.0943-0.17752-0.90412-0.8542-0.6989-0.50475-0.0278-0.02229-0.39381-0.36053-0.61014-0.89858-0.92076-0.84311-0.95959-0.79873-0.85419-0.90412-0.86528-0.89301-0.89858-0.8542-0.97069-0.78764-6e-3 -0.01143-0.51584-0.64898-0.24406-0.18857-0.0667-0.07771-0.75989-0.99286-0.8542-0.07219-0.43266-0.22186-0.87638 0.97623-0.11638 1.5032 0.0114 0.7821-0.0278 0.12209-0.24406 1.1704-0.12209 1.1981 0.072 0.35498-0.21078 0.84311 0.0389 1.6307 0.0777 1.6307 0.39936 1.3257 0.0221 0.38274-0.172 1.2702 0.26625 0.70999 0.0888 1.0483-0.12762 0.72662 0.27179 1.2258 0.19967 0.57686 0.0665 0.81538 0.16095 1.0539v0.0171l0.0114 0.0444 0.0777 0.49919 0.0444 0.13867 0.10534 0.53803 0.41601 1.187 0.0221 0.0665 0.24408 1.2203 0.28841 1.6085 0.16076 0.3328 0.0499 0.44374 0.38274 1.187 0.54357 0.81536 0.0832 0.24962 0.29952 1.6196 0.23851 0.45483 0.12761 0.37719 0.41602 0.70997 0.42155 1.2591 0.0777 0.35499 0.0998 0.13314 0.48257 1.2314 0.68779 1.4754 0.72662 1.2147 0.11086 0.47148 0.58795 0.66005 0.27733 0.4382 0.65452 1.4976 0.83201 1.3978 0.95958 1.3146 0.79873 1.4255 0.32171 0.32173 0.18857 0.35498 0.78764 0.96513 0.57685 1.1315 0.74326 1.004 0.19413 0.13314 0.0333 0.0665 1.2702 1.065 0.83757 1.4255 1.0539 1.2425 0.75991 0.59904 0.0722 0.0722 0.16647 0.11637 0.29398 0.23297 0.73216 0.62679 0.48256 0.88193 0.95959 0.80427 0.93741 0.82647 0.98732 0.75989 0.68778 0.52694 1.1094 1.187 0.73772 0.34944 0.36609 0.30506 1.0095 0.73218 0.28289 0.23851 0.2607 0.26625 0.14971 0.0722 0.26625 0.22188 1.0206 0.72662 0.9984 0.7488 1.0982 0.41601 0.57132 0.46592 1.4033 0.82646 0.64896 0.31617 0.59904 0.49367 0.72107 0.24405 0.85422 0.57131 0.93739 0.3217 0.8542 0.49367 0.771 0.29952 0.4049 0.23297 1.4532 0.74326 1.5697 0.46592 0.9485 0.37163 0.58241 0.36055 0.6878 0.0943 0.83755 0.27735 1.5198 0.60458 0.47148 0.0998 0.0609 0.0223 1.1648 0.48256 0.66561 0.0223 0.76545 0.29398 1.5697 0.43818 1.0372-0.0114 0.85976 0.22743 0.64342 0.15523 0.6545 0.29954 0.53805-0.0499 0.61012 0.11085 1.0761-0.0832 1.0372 0.23295 1.126 0.20524 0.46594 0.19969 1.1981-0.23851 0.2607-0.37163 0.172-0.0554 0.7377-1.5531-0.0333-0.35499 0.0171-0.89301 0.0114-1.248 0.0278-0.355 0.0998-0.64342-0.0223-1.7472z" fill="#a5cf4f"/><path d="m252.01 81.374-6e-3 0.38826 0.061 0.49921-0.0499 1.3368 0.0114 0.17752-0.11086 0.5935 0.19415 1.1315-0.18857 1.4699 0.0888 0.03333 0.6878 0.72107 0.85974-0.12209 0.14419 0.05543 0.82646-0.98178 0.0278-0.02781 1.0206-0.83757 0.59904-0.73216 1.2813-1.0372 1.1981-1.248 1.2868-1.1704 1.0927-1.3534 1.1704-1.2147 0.82092-0.61569 0.0333-0.03886 0.57133-0.43264 0.61568-0.79873 0.69334-0.51584 0.87084-0.98732 0.59904-0.70444 0.83201-0.71553 1.2758-1.1593 0.57687-0.64342 0.47702-0.41047 0.44374-0.62677 0.51584-0.61014 0.85974-0.64898 0.64342-0.72107 0.0888-0.07771 0.26624-0.3328 0.71551-0.84311 1.0428-0.80427 0.92075-0.93739 0.50475-0.47148 0.2829-0.20522 1.2036-1.2425 0.26625-0.34944 0.56022-0.44929 0.58795-0.8542 1.0483-0.76545 0.74881-0.88747 0.37719-0.26624 0.57131-0.74881 0.64342-0.64342 0.4049-0.49367 0.0943-0.09428 0.80981-0.94296 0.0998-0.08876 1.004-0.74326 0.62122-0.78208 0.58241-0.55468 1.2536-1.1815 0.20524-0.19413 0.0832-0.06095 0.0777-0.09428 0.88193-0.84309 1.1981-1.2425 0.37163-0.39382 0.23851-0.18857 0.92075-0.92631 1.0095-0.83755 0.16095-0.99842-0.20524-0.84309-0.59903-1.1704-0.0444-0.0499-0.16095-0.33836-0.95405-1.4532-1.076-1.3756-0.61015-0.88747-0.0998-0.21078-0.79873-1.0317-0.70443-1.1038-0.75989-1.065-0.80984-0.78764-0.36053-0.51584-0.98177-1.4421-0.23297-0.2607-0.0444-0.06647-0.85974-0.98734-0.67669-1.126-0.11657-0.13866-0.13314-0.22186-0.66561-0.7821-0.62123-0.97067-0.89303-0.95958-1.0095-0.69888-0.87638 0.48811-0.33836-0.0499-1.2036 1.1981-1.1426 1.2647-0.0114 0.01714-0.40493 0.30508-0.19967 0.32725-0.54914 0.58241-1.2924 1.1038-0.48812 0.5935-0.22186 0.172-0.78765 1.0483-0.90966 0.93739-1.0594 0.77656-0.0609 0.07771-0.0333 0.02209-0.22186 0.28289-0.51029 0.62677-0.63234 0.74326-0.46593 0.4382-0.80427 0.5935-0.23852 0.32725-0.69888 0.58795-0.63787 0.77656-0.23297 0.18304-0.58795 0.66561-0.94294 0.75437-1.1482 1.2314-0.0278 0.02781-0.0665 0.06647-0.0832 0.09981-0.95405 1.065-0.0278 0.02781-0.8431 0.57687-0.80429 1.0317-0.29397 0.3439-0.4271 0.39935-0.37163 0.41047-0.85974 0.56576-0.52694 0.79319-0.68778 0.56576-0.4604 0.51586-0.072 0.05543-0.16094 0.20522-0.43266 0.48256-0.53249 0.56578-0.74326 0.54912-0.32726 0.62679-0.81535 0.93185-0.0444 0.53803-0.0665 0.10533-0.0278 1.0206-0.0171 0.24405-0.0722 1.6918-0.0888 1.6973 0.12209 1.1648-0.0665 0.67671 0.0114 0.73216-0.11085 0.80427 0.172 1.3701 6e-3 1.0095-0.12762 1.3035 0.061 1.2979-0.0389 1.3035 0.0171 0.28289-6e-3 0.18304 6e-3 1.6807 0.0554 1.6862-0.10533 1.1759-0.0333 0.20524 6e-3 0.12762-0.0171 0.17752 0.0221 0.14971 0.0221 0.84865 0.17199 0.97621-0.22742 1.3978z" fill="#a5cf4f"/><path d="m313.19 99.888-0.13866-1.4421 0.0943-0.57132-0.0333-0.22741 0.13867-1.0206-0.28844-1.3035 0.20522-1.187-0.11086-0.31617 0.0333-0.30508-0.25516-1.542-0.31063-1.42-6e-3 -0.10533-0.771-0.84865-1.0761 0.29954-0.11657 0.12209-1.1759 0.93741-1.2258 1.126-0.47702 0.67115-0.72107 0.5103-0.90412 0.85974-0.23851 0.4271-1.1482 1.0761-1.1204 1.2258-0.6878 0.71553-0.23849 0.18857-0.87639 0.88193-6e-3 0.0057-0.56576 0.5103-0.51584 0.74881-0.75991 0.40491-0.82647 0.93185-0.86528 0.89858-0.82646 0.93739-0.83757 0.92077-0.90412 0.85973-0.29951 0.28289-1.1814 1.004-0.63788 0.75991-0.59905 0.5214-0.88748 0.87083-0.93185 0.82646-0.0722 0.10533-0.42153 0.37717-1.1648 1.1704-0.72107 1.1149-0.061 0.0722-1.0372 0.72108-0.15523 0.21632-0.33836 0.22742-1.1482 1.1814-0.75435 0.90412-0.18857 0.16095-0.82092 0.93739-0.87084 0.88747-0.0554 0.0722-0.75991 0.5935-1.2702 1.065-0.37717 0.59351-0.28844 0.18857-0.59349 0.90412-0.97623 0.7377-0.98732 1.0317-0.0171 0.0114-0.97622 0.77656-0.67671 1.0816-0.80981 0.85974-1.1482 0.95404-0.46593 0.48813-0.29398 0.25513-0.92074 0.83201-0.89304 0.87084-0.4881 0.771-0.29398 0.40491-1.4366 0.88749-0.44929 0.49365-0.0278 0.0114-0.85974 0.90411-0.22742 0.36055-0.5935 0.72662-0.23297 0.27735-0.62122 0.47702-0.89304 0.85973-0.88747 0.87083-0.9485 0.80983-0.75989 0.99841-0.11657 0.14971-0.20521 0.20523-0.99286 0.98732-0.51586 0.33834-0.48257 0.64898-0.34944 0.33833-0.63233 0.51032-0.3328 0.22186-0.0444 0.0777-0.28289 0.22741-1.187 1.1482-1.0372 1.2924-0.42155 0.51029-0.43264 0.36609-0.9485 0.80428-0.58241 0.74326-1.2147 0.97623-0.34945 0.67115-0.47147 0.3439-0.16648 1.0982-0.13866 0.53803-0.27735 0.87084 0.0832 1.2868 0.0389 0.30508-0.19414 1.4144 0.0722 1.5032 0.0777 1.4976 0.0444 0.29954-0.0114 0.13314 0.15523 1.2591-0.2607 1.309 0.33836 0.52695 0.10533 0.54357 0.72108 0.96512 1.2258 0.14972 0.57133-0.21632h1.0483l1.3146-0.42156 0.74881-0.0832 1.2758 0.0777 0.76545-0.28843 0.72662-0.0333 0.42156-0.12209 0.54913-6e-3 0.54911-0.32726 0.0444-0.0114 1.5697-0.43264 0.54357-0.17199 0.91523-0.0171 1.0927-0.41602 0.63788-0.0722 0.32725-0.14971 0.33836-0.0777 0.94848-0.49921 0.89857-0.19413 0.52694-0.0777 0.0943-0.0722 1.4089-0.73216 1.5919-0.41601 1.4588-0.73216 0.23295-0.14419 0.90966-0.46037 1.1593-0.46037 1.1371-0.52695 0.72107-0.48256 0.20521-0.11657 1.2702-0.98732 0.92077-0.48812 1.1371-0.53803 0.39936-0.29398 0.44375-0.22186 0.44374-0.34944 0.88193-0.37164 1.0428-0.68779 0.95404-0.81538 1.015-0.72662 0.96513-0.79318 0.9984-0.74327 0.93742-0.832 0.85419-0.91521 0.0221-0.0221 0.93185-0.65452 1.2425-1.0594 0.58796-0.61014 0.0998-0.0554 0.84866-0.91523 0.70997-1.0428 1.0206-0.76545 0.77654-0.97622 0.14419-0.21077 0.22742-0.22189 0.5713-0.85973 0.58796-0.68224 0.7821-0.97623 0.72107-1.015 0.49919-0.8653 0.6878-0.85974 0.42156-0.6046 0.6046-0.69888 0.25514-0.80982 0.24961-0.54359 0.74881-0.80982 0.48256-1.1593 0.12762-0.22741 0.51584-0.69334 0.85419-1.3922 0.35499-1.1593 0.58241-0.88193 0.50475-1.1371 0.28289-0.771 0.31617-0.49365 0.41599-1.2702 0.49367-0.89301 0.36053-1.1981 0.28843-0.73772 0.27735-0.43264 0.072-0.67115 0.13866-0.53249 0.11638-0.82646 0.46037-1.1371 0.53803-1.4643 0.0665-0.12762 0.25516-1.2258-6e-3 -1.1315 0.12209-0.51586 0.27733-0.8209 0.11657-0.57133 0.13867-0.47702 0.0171-1.4699 0.46593-1.1537-0.0998-0.98732 0.25515-1.2314v-0.0777l0.0554-0.19415-0.0444-0.33834 0.0171-1.0206z" fill="#62bb46"/><path d="m252.06 134.54 0.61568 0.79319 0.80984-0.17752 0.26068 0.12762 0.92631-0.84311 0.0114-6e-3 0.0114-0.0114 0.2607-0.23852 0.58241-0.89857 0.9984-0.57132 0.84866-0.93186 0.82092-0.96512 0.53248-0.65451 0.7599-0.64898 1.1981-1.0982 0.0333-0.0444 0.24408-0.12209 0.36052-0.70444 0.33282-0.45484 0.14418-0.14418 0.91521-0.49367 0.78764-0.98732 0.75991-1.015 1.1038-0.66006 0.37717-0.62123 0.65452-0.51584 0.76544-1.0539 0.771-0.5713 0.31616-0.33282 0.44375-0.3106 0.97621-1.3201 1.3922-0.89858 0.60458-0.87638 0.80984-0.58796 0.72107-1.0539 0.83755-0.9374 0.95958-0.81538 1.0262-0.7488 0.32725-0.61015 0.31617-0.2274 1.2813-1.004 0.61014-0.9152 6e-3 -0.0114 0.3439-0.49921 1.1315-1.0705 1.2258-1.065 1.1093-1.1759 0.0609-0.0722 0.68224-0.42154 0.79873-0.96514 0.39382-0.56577 0.3439-0.26624 0.39382-0.44374 0.70443-0.42154 0.43818-0.79319 0.6989-0.68225 0.0554-0.0389 0.49365-0.33281 0.13314-0.172 0.58795-0.47702 0.61569-0.80427 0.4271-0.32727 0.84311-0.93183 1.0206-0.74326 0.22188-0.31617 0.37718-0.22742 1.0594-1.2258 1.0539-1.2258 0.36054-0.3106 0.40491-0.29954 0.0665-0.11086 0.38827-0.33836 1.015-1.2203 0.22743-0.17752 0.88747-0.88193 0.69888-0.6878 0.57687-0.47702 0.78208-0.9984 0.67115-0.41601 0.18857-0.28843 0.73772-0.49365 0.92077-1.309 0.37163-0.28289 0.97621-0.69888 0.59352-0.97623 0.53803-0.48256 0.98177-0.78764 0.89302-0.84863 0.44374-0.31617 0.67669-0.95958 0.63788-0.53805 0.73218-1.0372 0.3106-0.95404 0.1997-0.50475-0.49367-1.5253-0.71553-1.4366-0.14419-0.18857-0.0888-0.355-0.6046-1.1149-0.48257-1.1704-0.61014-0.93739-0.19969-0.54912-0.59904-0.88193-0.46037-0.94296-0.29954-1.2702-0.5713-1.1315-0.84311-0.98732-0.47146-1.187-0.59906-1.1149-0.58795-1.1315-0.66007-1.0816-0.12209-0.172-0.0114-0.03886-0.48811-0.6878-0.0998-0.14419-0.5935-1.1204-0.67115-1.0761-0.54359-0.61014-0.20522-0.41601-1.0095-0.86528-1.3146 0.47148-0.63786 0.61014-0.28843 0.24405-0.0389 0.07219-0.21078 0.19969-0.59349 0.97067-0.87084 0.58241-0.43819 0.48813-0.41045 0.24405-1.0927 1.1981-1.0927 1.2036-0.19969 0.23297-0.2607 0.21076-0.89856 0.87084-0.87084 0.89303-0.11086 0.16076-1.1704 0.99286-0.90966 1.248-0.41047 0.27733-0.45483 0.70444-0.26624 0.29952-0.28844 0.24405-0.80981 0.45483-0.71553 0.82092-0.68226 0.56022-1.0927 1.1814-0.29952 0.38828-0.72108 0.5935-0.56022 0.96513-0.18304 0.19415-1.0761 0.54357-0.89303 0.87084-0.64342 1.0206-0.0943 0.09981-0.0223 0.0221-0.93185 0.69334-0.9374 0.8209-0.28289 0.42712-0.22742 0.20522-0.49919 0.63788-0.72108 0.51586-0.89303 0.86528-0.29398 0.48256-1.0927 0.84865-0.33836 0.5214-0.87636 0.82646-0.94296 0.81536-0.0499 0.06648-0.0832 0.0499-1.065 1.2147-0.14972 0.15524-0.37163 0.31062-0.12761 0.19967-0.47703 0.48811-1.004 1.2758-1.2813 0.99842-0.46592 0.62123-0.0444 0.03333-0.37163 0.53249-0.0943 0.12209-0.48258 0.49365-0.9152 0.49921-0.91521 0.84865-0.84865 0.90966-0.22186 0.37163-0.16095 0.18304-1.2702 1.004-1.065 1.2092-0.15524 0.23297-0.69888 0.46037-0.70445 1.0539-0.0777 0.07771-0.65451 0.43264-0.93185 1.3423-0.18857 0.26624-0.69334 0.62123-0.12761 0.54914-0.0444 0.0609-0.0832 0.48256-0.0278 0.12209-0.4271 1.1981 0.11086 0.66006-0.18305 1.015 0.14419 1.6751 0.0389 1.1482-0.12762 0.58795 0.0888 0.53803-0.0998 1.065 0.0554 0.37717-0.13314 0.55468-0.0554 1.2702 0.14419 0.64897-0.0998 0.48256 0.23297 1.0262v0.37718l0.072 0.55467-0.33834 1.3756 0.23295 1.664v0.0998l-6e-3 0.10533 0.0171 0.22743 0.0278 1.2314v0.0499l-0.16095 1.0206 0.0114 1.2702 0.0333 0.58241-0.0278 0.41045 0.11086 0.92631 0.0554 0.61014-0.31062 1.2702 0.0444 1.2646 0.0943 0.28844-0.12762 0.63787 0.0388 1.664 0.0554 1.6696 0.11638 1.3867-0.18857 0.67669z" fill="#007933"/><path d="m244.04 130-0.0888-0.87084 0.11657-0.48256-0.17752-0.91521 0.0114-0.72107 0.15523-0.82092-0.24959-1.0095 0.0609-1.5753-0.0223-1.5975-0.0444-1.1814 0.172-0.78211-0.17752-1.2314 0.0333-0.72107 0.20522-0.87084-0.16648-0.9041 0.0998-1.187-0.0171-0.91521 0.0278-0.18856 0.0171-1.5919-0.12209-1.5975 0.0221-1.5975-0.0888-0.6878v-0.78762l0.172-1.2258 6e-3 -1.2314-0.0722-0.8542-0.0333-1.5919-0.0389-0.15524-6e-3 -1.126-0.72662-1.0594-0.56578-1.1537-0.79873-0.57685-0.4271-0.49367-0.59903-0.46037-0.0998-0.09428-0.70443-1.065-1.0428-0.72107-0.78765-0.98177-0.95958-0.77098-0.37717-0.5214-0.75992-0.70999-0.47145-0.73216-0.43821-0.23851-0.56576-0.66561-0.57132-0.46594-0.21076-0.36607-0.93741-0.83202-0.87637-0.77654-0.90412-0.9152-0.99842-0.93185-0.6046-0.66007-0.63231-0.74881-0.52141-0.46037-0.67669-0.8542-0.95958-0.80427-0.97624-0.78764-0.77099-0.99286-0.46038-0.4271-0.18856-0.25516-1.1149-1.1648-0.87084-0.69888-0.0389-0.06095-0.79319-0.97069-0.16647-0.09428-0.38274-0.50475-1.1592-1.1204-0.92631-0.88747-0.0114-0.01714-0.0333-0.02781-0.19413-0.18304-1.1704-1.1149-0.34389-0.25514-0.0943-0.10533-0.92076-0.84311-0.69889-1.0594-0.5214-0.26068-0.74881-0.99842-1.1426-0.84865-0.37164-0.37718-0.11085-0.08876-0.77654-0.84311-1.0927-1.1814-1.3201-0.95958-0.0333-0.03886-0.3439-0.44373-0.5935-0.9485-1.0428-0.71553-0.73216-1.0317-0.6878-0.4271-0.83756-0.97621-0.21632-0.36055-0.9374-0.82092-0.832-0.92629-0.92077-0.83757-0.95404-0.80982-0.37163-0.33836-0.44373-0.6046-0.78764-0.20522-0.46038-0.22188-0.66561 0.4382-0.4881 0.24405-0.92631 1.3368-0.41601 1.4533-0.29952 0.44373-0.84311 0.9485-0.84864 1.3811-0.73217 1.4421-0.0499 0.13866-0.47146 0.54359-0.51031 1.1814-0.20522 0.50475-0.37163 0.43818-0.49921 1.5642-0.172 0.27733-0.52694 0.61014-0.69889 1.0761-0.12209 0.56576-0.14419 0.25514-0.16647 0.67671-0.62123 0.83201-0.37163 1.0206-0.29952 0.36055-0.39936 1.4033-0.48257 0.72107-0.48256 1.1814-0.54359 1.1593 0.4881 1.603 0.74883 1.0428 0.60458 0.34944 0.82092 1.0594 0.93739 0.70997 0.32171 0.54913 1.0705 0.71553 0.89856 0.88193 0.0499 0.03886 0.32171 0.41047 1.0927 1.2092 1.0594 1.2369 1.3201 0.98176 0.98731 1.309 1.2258 1.065 0.58795 0.41045 0.38272 0.53249 0.89858 0.88193 0.76543 1.0095 0.54913 0.27733 0.2496 0.33281 1.3146 0.95958 0.67669 0.97621 0.48813 0.36055 0.90966 0.9485 0.33834 0.50475 0.90966 0.58239 0.11657 0.09981 0.16095 0.18304 0.5713 0.93185 0.93741 0.83755 0.80982 0.95958 0.88193 0.89858 1.0927 0.67671 0.40491 0.416 0.62679 1.0816 1.3534 0.93739 0.41599 0.37717 0.63233 0.8542 0.93186 0.84311 0.77653 0.99286 0.0172 0.0114 0.44929 0.57685 0.70996 0.42155 0.56022 0.79319 0.90967 0.59904 0.25515 0.32727 0.14971 0.16076 0.43819 0.69334 0.47702 0.32171 0.0221 0.0278 0.5935 0.41046 0.68225 1.0095 0.69889 0.33836 0.37163 0.48256 1.1149 1.1704 0.0943 0.0665 0.40491 0.58241 1.0594 0.70445 0.0722 0.0665 0.63233 0.88747 0.52138 0.41047 0.37163 0.58241 0.87085 0.6545 0.49919 0.66007 1.1149 1.1648 1.2924 0.9984 0.47148 0.48811 0.27179 0.38828 0.95958 0.80981 0.83201 0.94296 0.84865 0.92631 0.0554 0.0389 1.0816 1.0428 0.22742 0.23851 0.31063 0.54359 0.96512 0.68224 0.0943 0.0667 0.9485 0.74326 0.061 0.0888 0.58795 1.0872 0.78764 0.43265 0.48257 0.36052 0.63233 0.8542 0.0609 0.0389 0.44375 0.70999 0.98177 0.69334 0.23851 0.37163 1.2369 0.34944 0.73216-1.1204-0.0333-0.11104-0.10533-1.4921 0.0777-0.83755 6e-3 -0.0278v-0.0114l0.0665-0.72664z" fill="#62bb46"/><path d="m139.78 183.49 0.355-0.29954 0.37718-0.23851 0.28287-0.32725 0.21632-0.18304 1.0705-1.2092 0.39936-0.46594 0.53249-0.59904 0.36607-0.4049 0.61014-0.59352 1.015-0.53803 0.39936-0.59904 0.18857-0.14418 1.1704-1.1149 0.37717-0.47702 0.38828-0.4271 0.28843-0.39382 1.2702-0.95404 1.1204-1.1593 1.0871-1.1315 0.71553-0.67115 0.10534-0.18857 0.32727-0.33836 0.5713-0.79873 0.78208-0.41045 0.67672-0.99288 0.18857-0.15523 0.0278-0.0223 0.87085-0.58241 0.0609-0.11638 0.3439-0.25516 0.96512-1.309 1.187-1.0927 1.187-1.0927 0.58796-0.81538 0.9152-0.59903 0.80429-0.95404 0.88193-0.87639 0.47146-0.72662 0.80429-0.69334 1.2258-1.0539 0.21632-0.3106 0.76543-0.76545 0.89858-0.85974 0.7821-0.97623 1.0095-0.74881 0.40493-0.54359 0.46591-0.3439 0.32725-1.2369-0.57684-1.1648-1.3368-0.92629-1.359-0.38828-0.6989-0.49921-0.072-0.0333-0.71553-0.63788-1.1371-0.69334-0.14419-0.15523-0.20523-0.0499-1.3423-0.68224-0.78764-0.26624-0.0221-0.0171-0.97622-0.44929-1.0206-0.87639-0.74326-0.23851-0.59904-0.32171-1.1537-0.54911-0.21077-0.10533-0.23297-0.14419-1.309-0.74881-0.44374-0.30506-1.1482-0.56022-0.90966-0.24405-0.48257-0.40493-1.5753-0.44927-0.51029-0.16095-0.12762-0.0609-1.0705-0.76545-1.2036-0.43264-1.7084 0.32727-0.33834 0.63785-0.68226 0.64898-1.3035 1.0095-0.38272 0.49919-0.84311 0.8043-0.88747 0.89301-0.832 0.95404-0.97069 0.80427-0.33836 0.49921-0.26624 0.23851-1.2369 1.0594-0.97623 1.3201-1.3146 0.98731-0.24959 0.28844-0.0609 0.0554-0.0499 0.0777-0.70442 0.80427-0.94294 1.3534-0.72664 0.67115-0.23295 0.22742-0.22188 0.21078-1.3201 0.97067-0.90412 1.2425-1.0705 0.70997-0.87639 0.89304-0.43266 0.58241-0.0888 0.0832-1.0539 1.2424-1.2203 1.0761-1.1815 1.1149-1.0483 0.97621-0.36608 0.18857-0.87083 0.90412-0.84311 0.9263-0.0388 0.0554-0.41602 0.24406-0.93739 1.359-0.18857 0.19969-0.0609 0.0554-1.0927 0.68225-0.4049 0.77654-0.62123 0.49919-1.2868 1.004-0.63233 1.065-0.45483 0.33282-0.89858 0.87082-0.0832 0.11085-0.0722 0.0554-1.2036 1.0872-0.44929 0.63787-0.93185 0.68226-0.50475 0.75435-0.36053 0.27178-1.1704 1.1204-0.70999 0.95405-0.79873 0.44374-0.31617 0.51584-0.48256 0.3439-0.6878 0.87638-0.18304 0.13867-0.81538 0.77654-0.61569 0.47148-0.38273 0.36054-0.0665 0.0609-0.0223 0.0278-0.69889 0.66561-0.99286 1.2924-0.6656 0.63787-0.18857 0.13315-0.88195 0.88749-0.61012 0.84309-1.1704 0.85419-0.83757 0.87084-0.08324 0.0499-0.31617 0.35499-1.065 0.99842-0.01143 0.0171-0.4382 0.3439-0.90412 0.87084-0.45483 0.72662-0.46592 0.3439-0.832 1.1038-0.9485 0.44927-0.56022 0.6046-0.0499 0.0333-0.06647 0.0888-0.17752 0.18857-0.72107 1.0539-0.02781 0.9485 0.67115 0.82092 0.02209 0.061 0.31062-0.0223 0.92629 0.0444 0.46594-0.12761 1.5087 0.14418 1.1981-0.0444 0.5214 0.0333 1.2314-0.0444 1.2314 0.0389 1.2314-0.0223 1.2314-0.15523 1.0095-0.0499 0.33834 0.0114 1.5975-0.0221 1.4033-0.0499 0.56022-0.0114 1.2314-0.0943 0.12762 6e-3 1.4643 0.33835 0.82092-0.14971h0.0444l1.2314 0.21078 0.59349-0.18857 0.50475 0.0722 1.0428 0.0114 0.31062 0.0998 0.38826-0.10533 1.4532-0.11085 0.92631 0.0114 0.91521 0.16647 1.2258 0.0444 1.1204-0.33834 0.33836 0.0221 0.9984 0.23851 1.2258-0.0114 1.2258 0.0832 1.2092-0.5103 0.12209-0.0444 0.47702-0.11637 0.0832-0.0609 0.49921-0.16095 1.0206-0.73218 0.31617-0.43264 0.83756-0.71553 0.21078-0.2829 0.45483-0.29951 0.74881-1.0206 0.36607-0.42155 0.41601-0.37718 0.40491-0.45483 0.58795-0.50475 0.6046-0.62123 0.81538-0.58797 1.1093-1.187 0.69889-0.58795 0.55467-0.29952 0.73218-1.0317 0.6878-0.771 0.77654-0.72107 1.1482-1.1371z" fill="#e82c2a"/><path d="m184.37 183.22 0.83754-1.0206 1.0317-0.82647 0.62123-0.69888 0.19969-0.14419 0.65451-0.7488 0.3217-0.32727 0.17753-0.24406 1.1371-1.2203 1.187-1.2203 1.2314-1.1814 1.187-1.2258 0.9374-0.95959 0.62122-0.45483 0.95404-0.89301 0.50476-1.1759-0.69334-1.015-6e-3 -0.0223-1.1315-0.69335-0.8209-0.96512-0.67117-0.43264-0.0444-0.0444-1.4311-0.94294-1.3146-1.0982-0.51586-0.33281-0.16647-0.18305-1.0483-0.7377-1.1371-0.61568-0.22186-0.15524-0.99842-1.0594-0.66005-0.47702-0.0278-0.0333-0.0888-0.0554-0.61014-0.4382-1.481-0.85974-1.3756-1.015-0.172-0.11638-0.47702-0.44929-0.82092-0.38828-1.309-1.0261-0.0888 6e-3 -0.90966-0.22743-0.66006 0.37163-0.28287 0.0278-0.40491 0.47148-0.54914 0.43264-0.42709 0.65453-1.015 0.96512-0.47148 0.5214-0.88747 0.63232-0.75991 1.0927-0.64342 0.64342-0.93185 0.771-1.2924 1.1482-0.771 0.88749-0.18857 0.13314-0.87084 0.97621-0.78208 0.84311-1.0095 0.80428-0.14419 0.11085-0.16095 0.24962-0.82646 1.0261-0.8542 0.90412-0.71553 0.71553-0.85974 0.83201-1.3257 1.1204-0.67669 0.83202h-6e-3l-0.96512 0.88193-0.93186 0.9152-0.97068 0.87639-0.35499 0.54357-1.0428 0.7821-0.95404 1.1315-0.35499 0.38273-0.93185 0.91521-0.38274 0.52138-0.98731 0.771-1.126 1.1981-0.31063 0.23851-0.0777 0.11086-0.96513 0.84865-1.1759 1.2702-1.2702 1.1704-0.79317 1.0872-0.24961 0.20522-0.46592 0.51031-0.85976 0.70443-0.63231 0.79873-0.88193 0.66561-0.62125 0.65452-0.36052 0.26068-0.53249 0.66561-0.28843 0.29954-0.47702 0.63231-0.52695 0.57132-0.85419 0.63232-0.90412 0.94295-0.32171 1.1371 1.0372 0.6545 0.64342-0.13314 1.1204 0.0777 0.54913 0.0333 0.25516 0.0554 1.2813 0.0333 1.2758-0.0888 0.68778-0.0998 1.2314 0.0777 1.5808-0.0832 0.33836 0.0389h1.2813l1.2758 0.072 0.34388-0.061 0.45485 0.061 1.7583-0.0888 0.34944-0.0278 0.93185 0.0554 1.2757 0.0943 1.2758 0.0554 1.2813-0.14419 1.2758 0.0444 1.2758-0.11085 0.2607 6e-3 0.85419 0.0943 0.36609-0.0389 1.0761 0.0888 1.2758-0.10533 0.33281 0.0221 0.46592 0.0554 0.23297-0.0171 0.24405 0.0114 1.2758 0.0499 0.71553-0.2607 1.1704-0.13314 1.1093-0.88748 0.4271-0.24405 0.93185-0.94295 0.0278-0.0389 0.2607-0.22743 0.74326-0.90966 0.83755-0.68224 0.23851-0.30508 0.63788-0.49365 0.85975-1.0317 0.0832-0.0722 1.015-0.8542 0.99286-0.85974 0.43818-0.70443 0.18857-0.15523 1.2702-1.1482 1.1094-1.309 0.71553-0.82092 0.61015-0.62125 0.32171-0.24405 0.90411-0.58241z" fill="#c3271b"/><path d="m226.41 195.98-0.69334-0.57685-0.69334-0.63788-1.1426-0.9485-0.47702-0.49921-0.92075-0.98731-1.0927-0.78763-0.8542-0.64344-1.065-0.9984-1.2813-1.3368-1.4754-1.1149-1.3201-1.298-0.50475-0.36052-0.49921-0.53249-0.81538-0.5103-0.98732-1.004-1.4421-1.1593-0.63234-0.55465-0.23294-0.2607-0.4271-0.31617-0.0998-0.0888-1.3368-1.0761-0.23851-0.20521-0.172-0.11657-1.1648-0.90412-1.4532-1.1482-0.90412-0.7599-0.49921-0.44374-0.98732-0.4271-0.94848 0.5103-0.93185 0.98177-1.0206 0.89858-0.31615 0.35498-0.31616 0.28289-0.83201 0.90412-0.41047 0.3938-0.66006 0.74327-0.31061 0.33281-0.97069 0.79317-0.93739 0.96515-0.93739 0.97621-0.58796 0.75437-0.62679 0.56576-0.14418 0.14419-0.55468 0.41601-0.91521 0.98732-0.48812 0.53248-0.44373 0.44375-0.11657 0.13314-0.90411 0.7377-0.94294 0.95959-0.50476 0.53248-0.13314 0.10533-1.2813 1.2425-0.54913 0.6046-0.38272 0.36607-0.98177 0.92076-0.8431 1.0594-0.63233 0.62677-0.33835 0.29951 0.0114 0.0333-0.14971 1.015 0.82646 0.50476 0.0114 0.0278 1.836 0.18857 1.836-0.0389 1.836-0.0444 0.53249-6e-3 0.76545 0.0777 1.359-0.072 0.72108-0.0223h0.27733l0.79318 0.0114 0.92077 0.0722 1.3534 0.0114 1.3589 0.0171 0.27181-0.0278 0.79317 0.0333 1.8249-0.0609 1.1926-0.0499 0.98176-6e-3 0.74882 0.0333 0.97622 0.0998 0.77654-0.0777 0.80429-0.0114 0.23295-0.0171 0.89303 0.0609 1.359-0.11638 1.359 0.16647 0.53803-0.0665 1.1038 0.0389 1.3368-0.14971 1.0816 0.13866 1.359-0.0499 1.3534 0.0777 0.28289-0.0278 0.0665 6e-3 1.8249-0.0943 1.8249 0.0333 0.8653-0.0171 0.54357 0.0722 1.3534 0.0333 0.23851-0.0278 0.64896 0.0499 1.2647-0.16076 0.56022 0.0171 0.84309-0.53803z" fill="#e82c2a"/><path d="m91.646 183.66 1.0206-0.70445 0.46039-0.43818 0.4271-0.29952 0.52694-0.65452 0.34388-0.37164 0.32173-0.43818 0.69334-0.76545 0.78208-0.52695 0.25514-0.36052 0.54913-0.42156 0.92077-1.0927 0.94848-0.73773 0.24405-0.43818 0.14971-0.13866 1.2591-1.0816 0.73218-0.9374 0.172-0.12762 0.33281-0.4049 1.1204-0.84311 0.58241-0.94294 0.56576-0.48256 0.52694-0.63234 0.52693-0.41047 0.64344-0.63231 0.0832-0.0665 0.11086-0.12209 0.3439-0.33836 0.37717-0.46593 0.97623-0.78209 0.41045-0.58795 0.61015-0.45483 0.6545-0.92077 0.87639-0.7488 0.85975-0.89302 0.49919-0.59905 0.50476-0.43819 0.44929-0.51585 0.26624-0.24406 0.70999-0.75989 0.95404-0.771 0.34388-0.43264 0.72664-0.57686 0.97621-0.78209 0.8653-0.89303 0.74326-1.0095 0.9374-0.82092 0.39936-0.48256 0.92075-0.73216 0.38828-0.37718 0.13314-0.0888 0.0554-0.0943 0.6046-0.58241 1.1038-1.2258 1.126-1.2036 0.0888-0.12209 0.44374-0.38826 0.68224-0.92077 1.248-0.77099 1.0816-1.248 1.0428-1.1315 0.3938-0.27178 0.91523-0.83757 0.63233-0.87084 0.47146-0.42154 0.93185-1.004 0.62679-0.32171 0.832-0.92631 0.88193-0.87085 0.771-0.98731 0.21078-0.24405 0.4049-0.32171 0.61015-0.78763 0.47702-0.46039 0.46037-1.0872 0.0114-0.0223-0.0943-0.0832-0.88193-0.82092-1.1814-0.23296-0.8542 0.14971-0.66006 0.0114-0.89303-0.18857-1.187-0.25516-0.42156 0.0998-0.77654-0.19413-1.6363 0.0389-1.6252 0.0777-0.24959 0.0722-0.23851-0.0444-1.2314 0.28289-1.2536-0.0171-0.71553 0.22189-1.1648 0.0998-0.28287 0.0444h-0.31062l-0.53249 0.14418-0.47702 0.0832-1.6307 0.12762-1.6086 0.24962-0.18304 0.0609-0.51032 0.0444-0.87636 0.41599-1.5808 0.31062-1.6085 0.28844-0.90412 0.43818-1.0816 0.10533-0.87638 0.62123-0.16648 0.0554-0.95404 0.17752-0.33834 0.0333-0.0888 0.0444-0.23851 0.0444-1.1537 0.59904-0.82646 0.27178-0.29398 0.15524-0.73216 0.24405-1.5143 0.59352-0.40491 0.18856-0.54359 0.18305-0.28287 0.20522-0.24407 0.11656-1.4033 0.83201-0.23297 0.14419-1.1759 0.41047-1.1094 0.58241-1.0428 0.68778-0.22186 0.23296-0.49367 0.29952-1.3201 0.95959-1.4255 0.79318-0.33279 0.33282-0.32171 0.20521-0.93741 0.83757-1.0539 0.66561-0.36609 0.32725-0.96513 0.47702-0.83757 0.99842-0.75435 0.52693-0.3439 0.25516-0.55468 0.32725-1.2425 1.0594-1.0206 1.2868-1.0594 1.2369-0.43266 0.42153-0.79873 0.53249-0.77098 0.98732-0.90412 0.86529-0.28289 0.54914-0.16095 0.18304-1.2036 1.1205-0.38274 0.81536-0.26068 0.29398-0.53249 0.85419-0.71553 0.69889-0.49367 1.0095-0.39936 0.50476-0.75989 0.99288-0.61014 1.0927-0.80983 0.96513-0.54912 1.126-0.08324 0.28843-0.48812 0.98732-0.90412 1.3645-0.38272 1.0872-0.46037 0.69334-0.53803 1.1204-0.06095 0.24959-0.6545 1.2647-0.14971 0.52138-0.172 0.23851-0.05543 0.5214-0.08324 0.28843-0.50474 1.2868-0.172 0.26624-0.04438 0.33282-0.38826 1.1759-0.6046 1.5142-0.32725 1.5975-0.5935 1.5309-0.43266 1.5697v0.23296l-0.172 0.40491-0.23297 1.2258 0.07771 0.56576-0.3439 0.76546 0.10533 1.2036-0.21078 1.1981v0.38826l-0.11086 0.47148-0.28843 1.6086 0.09428 0.26624 0.24405 0.81536 0.05543 0.0722 0.16076 0.46592 0.34944 0.16647 0.12762 0.15524 0.87084 0.31616 0.19967 0.0943 1.6807-0.14418 0.37163 0.0389 1.4477 0.2274 1.7472-0.0221 0.50475-0.10533 0.48811 0.0114 1.248-0.0333 0.46037-0.0888 0.7821 0.12209 0.9152-0.32725 0.31062-0.0171 1.1537-0.43818 1.1371-0.6046 0.35498-0.49921 0.70999-0.79319 0.18857-0.18304 0.43818-0.38274 0.87638-0.89301 1.0095-0.75992 0.71553-0.92074 0.23851-0.21634 0.80427-0.63786 0.32725-0.45485 0.172-0.16647 1.0317-1.309 1.3423-1.004 0.74881-1.065 0.62123-0.58239 0.16095-0.17752 0.73772-0.58241 0.41045-0.54357 0.50475-0.39936 0.75991-0.97623z" fill="#ea5329"/></g></svg>
