<svg width="166" height="20" viewBox="0 0 166 20" fill="none" xmlns="http://www.w3.org/2000/svg">
<path d="M6.98731 8.91687H6.74598C3.73414 8.07362 2.40936 7.46888 2.40936 5.18103C2.40936 3.25264 3.61263 2.04938 5.66196 2.04938C5.66196 2.04938 9.8782 2.04938 11.0837 5.54275V5.66256H12.4091V0.481567H11.0837L10.6022 2.41109C9.3961 1.20613 7.58979 0.481567 5.9033 0.481567C2.40936 0.481567 0 2.65016 0 5.78408C0 9.27802 3.01014 10.3626 6.26501 11.2058C9.51818 12.0491 10.9633 12.6504 10.9633 15.0615C10.9633 17.2306 9.27629 18.1932 7.59036 18.1932C5.05948 18.3164 2.65069 16.9876 1.32535 14.819V14.6992H0V20H1.32535L1.92613 17.7116C3.37299 19.1556 5.42176 20 7.46997 20C10.9639 20 13.4942 17.5918 13.4942 14.3369C13.3721 10.6022 10.4812 9.8805 6.98731 8.91687Z" fill="#8D785C"/>
<path d="M16.1432 4.4581H17.4685V4.09639C17.8308 1.92723 17.9518 1.92723 19.5179 1.92723H22.8903V18.3152H21.084V19.8796H27.4688V18.3152H25.6619V1.92723H28.9151C30.4812 1.92723 30.6027 1.92723 30.965 3.97431V4.33715H32.2898V0.242432H16.0239V4.4581H16.1432Z" fill="#8D785C"/>
<path d="M46.3836 4.4581H47.7089V4.09639C48.0706 1.92723 48.1916 1.92723 49.7582 1.92723H53.1324V18.3152H51.3266V19.8796H57.7103V18.3152H55.9029V1.92723H59.1577C60.7233 1.92723 60.8448 1.92723 61.2054 3.97431V4.33715H62.5302V0.242432H46.2643V4.4581H46.3836Z" fill="#8D785C"/>
<path d="M36.145 1.92732H37.9513V18.3153H36.145V19.8797H42.5304V18.3153H40.723V1.92732H42.5304V0.361206H36.145V1.92732Z" fill="#8D785C"/>
<path d="M97.23 1.92732H99.1561V9.88052H90.0002V1.92732H91.6867V0.361206H85.2997V1.92732H87.2286V18.3153H85.4212V19.8797H91.806V18.3153H90.0002V11.4472H99.1561V18.3153H97.23V19.8797H103.615V18.3153H101.928V1.92732H103.615V0.361206H97.23V1.92732Z" fill="#8D785C"/>
<path d="M136.988 1.92732H138.797V18.3153H136.988V19.8797H143.373V18.3153H141.566V1.92732H143.373V0.361206H136.988V1.92732Z" fill="#8D785C"/>
<path d="M165.062 1.92732V0.361206H158.677V1.92732H160.241L156.025 7.83118L152.048 1.92732H153.615V0.361206H147.229V1.92732H149.036L154.579 10.2422L149.036 18.3153H147.109V19.8797H153.496V18.3153H151.448L155.664 11.9293L160.002 18.3153H158.315V19.8797H164.7V18.3153H163.014L157.229 9.63693L162.531 1.92732H165.062Z" fill="#8D785C"/>
<path d="M118.674 1.92726H120.604V18.3152H118.674V19.8796H125.061V18.3152H123.374V11.4471H126.386C127.47 11.4471 127.592 11.567 127.953 12.6493V12.7731V12.8929H129.279V7.95208H127.953V8.07359L127.832 8.31266C127.47 9.27742 127.349 9.63744 126.266 9.63744H123.254V1.68763H129.88C131.205 1.68763 131.447 2.04991 132.169 3.85679V3.97547H133.616V0H118.436L118.674 1.92726Z" fill="#8D785C"/>
<path d="M79.519 12.1677C78.916 15.9035 76.8689 18.0721 73.7355 18.0721C70.0003 18.0721 67.7107 14.9405 67.7107 9.87984C67.7107 5.06055 70.0003 1.9272 73.4948 1.9272C76.8689 1.9272 78.6752 4.09636 79.519 5.9038V6.02362H80.8438V0.242401H79.3969L78.9154 2.28948C77.4691 0.843191 75.6622 0.120322 73.6129 0.242401C68.5534 0.242401 64.8187 4.45807 64.8187 9.99909C64.8187 12.8928 65.6619 15.3033 67.3501 17.1102C68.914 18.7972 71.2035 19.8795 73.4942 19.7603C77.9506 19.7603 80.7223 16.987 81.3247 12.0479V11.8088H79.6371L79.519 12.1677Z" fill="#8D785C"/>
</svg>
