<?xml version="1.0" encoding="UTF-8"?> <svg xmlns="http://www.w3.org/2000/svg" width="160" height="76" viewBox="0 0 160 76" fill="none"><g clip-path="url(#clip0)"><path d="M8.36548 47.066C12.7513 47.066 14.9442 48.934 14.9442 52.6701H11.3706C11.3706 50.9645 10.3959 50.1523 8.36548 50.1523C6.37563 50.1523 5.36041 51.0051 5.36041 52.6701V58.7614C5.36041 60.467 6.37563 61.3198 8.36548 61.3198C10.3553 61.3198 11.3706 60.467 11.3706 58.7614V57.7462H8.36548V54.7005H14.9442V58.7614C14.9442 62.4975 12.7513 64.3655 8.36548 64.3655C3.9797 64.3655 1.7868 62.4975 1.7868 58.7614V52.6701C1.7868 48.934 3.9797 47.066 8.36548 47.066ZM23.3503 47.066C27.736 47.066 29.9289 48.934 29.9289 52.6701V58.7614C29.9289 62.4975 27.736 64.3655 23.3503 64.3655C18.9645 64.3655 16.7716 62.4975 16.7716 58.7614V52.6701C16.7716 48.934 18.9645 47.066 23.3503 47.066ZM26.3553 52.6701C26.3553 50.9645 25.3401 50.1523 23.3503 50.1523C21.3604 50.1523 20.3452 51.0051 20.3452 52.6701V58.7614C20.3452 60.467 21.3604 61.3198 23.3503 61.3198C25.3401 61.3198 26.3553 60.467 26.3553 58.7614V52.6701ZM31.797 64.3655V47.1066H35.3706V61.3198H43.736V64.3655H31.797ZM51.5736 47.066C56.3655 47.066 58.7614 49.0965 58.7614 53.1574V58.2335C58.7614 62.2944 56.3655 64.3249 51.5736 64.3249H45.6041V47.066H51.5736ZM51.5736 61.3198C53.9695 61.3198 55.1472 60.3046 55.1472 58.2741V53.198C55.1472 51.1675 53.9695 50.1523 51.5736 50.1523H49.1777V61.3198H51.5736ZM71.9594 47.066V50.1117H64.1624V54.1726H70.7411V57.2183H64.1624V61.2792H71.9188V64.3249H60.5888V47.066H71.9594ZM77.401 47.066L83.3706 57.7462V47.066H86.9442V64.3249H83.3706L77.401 53.6447V64.3249H73.8274V47.066H77.401V47.066ZM99.2487 64.3655L95.9188 47.1066H99.736L101.888 59.8985L104.528 47.1066H109.32L111.959 59.8985L114.112 47.1066H117.929L114.599 64.3655H109.563L106.924 52.1828L104.284 64.3655H99.2487ZM131.046 47.066V50.1117H123.289V54.1726H129.868V57.2183H123.289V61.2792H131.046V64.3249H119.675V47.066H131.046ZM132.386 59.2487H135.959C135.959 60.5889 136.975 61.2792 138.964 61.2792C140.954 61.2792 141.97 60.5889 141.97 59.2487C141.97 58.1117 140.995 57.4213 138.964 57.2183C134.822 57.0152 132.751 55.3097 132.751 52.1421C132.751 48.7716 134.822 47.066 138.964 47.066C143.107 47.066 145.178 48.7716 145.178 52.1421H141.604C141.604 50.802 140.711 50.1117 138.964 50.1117C137.218 50.1117 136.325 50.802 136.325 52.1421C136.325 53.2792 137.218 53.9696 138.964 54.1726C143.35 54.3757 145.543 56.0812 145.543 59.2487C145.543 62.6193 143.35 64.3249 138.964 64.3249C134.579 64.3655 132.386 62.6599 132.386 59.2487ZM160 47.066V50.1117H155.208V64.3249H151.635V50.1117H146.843V47.066H160ZM52.0609 67.7361V69.1574H48.4467V71.066H51.4924V72.4873H48.4467V75.8173H46.7817V67.7767H52.0609V67.7361ZM55.797 67.7361C57.8274 67.7361 58.8832 68.5889 58.8832 70.335V73.1777C58.8832 74.9239 57.868 75.7767 55.797 75.7767C53.7665 75.7767 52.7107 74.9239 52.7107 73.1777V70.335C52.7107 68.5889 53.7665 67.7361 55.797 67.7361ZM57.1777 70.335C57.1777 69.5635 56.731 69.1574 55.797 69.1574C54.8629 69.1574 54.4162 69.5635 54.4162 70.335V73.1777C54.4162 73.9493 54.8629 74.3554 55.797 74.3554C56.731 74.3554 57.1777 73.9493 57.1777 73.1777V70.335ZM63.0254 67.7361C65.0558 67.7361 66.0711 68.5889 66.0711 70.335V73.1777C66.0711 74.9239 65.0558 75.7767 63.0254 75.7767C60.9949 75.7767 59.9391 74.9239 59.9391 73.1777V70.335C59.9797 68.5889 60.9949 67.7361 63.0254 67.7361ZM64.4467 70.335C64.4467 69.5635 64 69.1574 63.066 69.1574C62.132 69.1574 61.6853 69.5635 61.6853 70.335V73.1777C61.6853 73.9493 62.132 74.3554 63.066 74.3554C64 74.3554 64.4467 73.9493 64.4467 73.1777V70.335ZM70.0101 67.7361C72.2437 67.7361 73.3401 68.6701 73.3401 70.5787V72.934C73.3401 74.8427 72.203 75.7767 70.0101 75.7767H67.2081V67.7361H70.0101ZM70.0101 74.3554C71.1472 74.3554 71.6751 73.868 71.6751 72.934V70.5787C71.6751 69.6447 71.1066 69.1574 70.0101 69.1574H68.9137V74.3554H70.0101ZM81.1777 67.7361C83.2081 67.7361 84.264 68.5889 84.264 70.335H82.599C82.599 69.5635 82.1523 69.1574 81.2183 69.1574C80.2843 69.1574 79.8376 69.5635 79.8376 70.335V73.1777C79.8376 73.9493 80.2843 74.3554 81.2183 74.3554C82.1523 74.3554 82.599 73.9493 82.599 73.1777V72.6904H81.2183V71.2691H84.3046V73.1777C84.3046 74.9239 83.2893 75.7767 81.2183 75.7767C79.1472 75.7767 78.132 74.9239 78.132 73.1777V70.335C78.0914 68.5889 79.1066 67.7361 81.1777 67.7361ZM88.4061 67.7361C90.4365 67.7361 91.4924 68.5889 91.4924 70.335C91.4924 71.4315 91.0863 72.2031 90.2741 72.6092L91.4924 75.8173H89.7056L88.6091 72.9746H87.0254V75.8173H85.3604V67.7767H88.4061V67.7361ZM88.4061 71.5127C89.3401 71.5127 89.7868 71.1066 89.7868 70.335C89.7868 69.5635 89.3401 69.1574 88.4061 69.1574H87.0254V71.5127H88.4061ZM95.6751 67.7361C97.7056 67.7361 98.7614 68.5889 98.7614 70.335V73.1777C98.7614 74.9239 97.7462 75.7767 95.6751 75.7767C93.6447 75.7767 92.6294 74.9239 92.6294 73.1777V70.335C92.5888 68.5889 93.6041 67.7361 95.6751 67.7361ZM97.0558 70.335C97.0558 69.5635 96.6091 69.1574 95.6751 69.1574C94.7411 69.1574 94.2944 69.5635 94.2944 70.335V73.1777C94.2944 73.9493 94.7411 74.3554 95.6751 74.3554C96.6091 74.3554 97.0558 73.9493 97.0558 73.1777V70.335ZM101.523 67.7361V73.1777C101.523 73.9493 101.97 74.3554 102.904 74.3554C103.838 74.3554 104.284 73.9493 104.284 73.1777V67.7361H105.949V73.1777C105.949 74.9239 104.934 75.7767 102.863 75.7767C100.832 75.7767 99.8173 74.9239 99.8173 73.1777V67.7361H101.523ZM110.173 67.7361C112.203 67.7361 113.259 68.5889 113.259 70.335C113.259 72.0812 112.244 72.934 110.173 72.934H108.792V75.7767H107.127V67.7361H110.173ZM110.173 71.5127C111.107 71.5127 111.553 71.1066 111.553 70.335C111.553 69.5635 111.107 69.1574 110.173 69.1574H108.792V71.5127H110.173ZM44.5076 71.5533H0V72.3655H44.5076V71.5533ZM160 42.9239H1.74619V43.7361H160V42.9239ZM16.4061 0C27.3706 0 32.8122 4.38579 32.8122 13.1168H23.8782C23.8782 9.13706 21.401 7.14721 16.4061 7.14721C11.4112 7.14721 8.93401 9.13706 8.93401 13.1168V27.4518C8.93401 31.4315 11.4112 33.4213 16.4061 33.4213C21.401 33.4213 23.8782 31.4315 23.8782 27.4518V25.0558H16.4061V17.9086H32.8122V27.4518C32.8122 36.1828 27.3299 40.5685 16.4061 40.5685C5.48223 40.5685 0 36.1828 0 27.4518V13.1168C0 4.38579 5.48223 0 16.4061 0ZM43.4518 40.5685L35.0863 0H44.67L50.0305 30.0508L56.6091 0H68.5482L75.1269 30.0508L80.4873 0H90.0305L81.665 40.5685H69.1167L62.5381 11.9391L55.9594 40.5685H43.4518ZM121.665 0V7.14721H102.254V16.6904H118.66V23.8376H102.254V40.5279H93.2792V0H121.665ZM141.482 0C152.447 0 157.888 4.38579 157.888 13.1168H148.914C148.914 9.13706 146.437 7.14721 141.442 7.14721C136.447 7.14721 133.97 9.13706 133.97 13.1168V27.4518C133.97 31.4315 136.447 33.4213 141.442 33.4213C146.437 33.4213 148.914 31.4315 148.914 27.4518V25.0558H141.442V17.9086H157.848V27.4518C157.848 36.1828 152.365 40.5685 141.442 40.5685C130.477 40.5685 125.036 36.1828 125.036 27.4518V13.1168C125.076 4.38579 130.518 0 141.482 0ZM160 71.9594H115.492V72.7716H160V71.9594ZM116.832 68.0609C116.832 68.9543 116.142 69.6447 115.208 69.6447C114.315 69.6447 113.584 68.9543 113.584 68.0609C113.584 67.2081 114.315 66.4772 115.208 66.4772C116.102 66.4772 116.832 67.1675 116.832 68.0609ZM113.99 68.0609C113.99 68.7513 114.518 69.3198 115.208 69.3198C115.898 69.3198 116.386 68.7513 116.386 68.0609C116.386 67.3706 115.898 66.8021 115.168 66.8021C114.437 66.8021 113.99 67.3706 113.99 68.0609ZM114.964 68.8731H114.599V67.2894C114.761 67.2488 114.924 67.2488 115.208 67.2488C115.492 67.2488 115.655 67.2894 115.736 67.3706C115.817 67.4518 115.898 67.5736 115.898 67.6955C115.898 67.8579 115.777 68.0203 115.574 68.0609C115.736 68.1015 115.817 68.2234 115.858 68.4264C115.898 68.6701 115.939 68.7513 115.98 68.8325H115.574C115.533 68.7919 115.492 68.6295 115.452 68.467C115.411 68.3046 115.33 68.2234 115.127 68.2234H114.964V68.8731ZM114.964 67.9797H115.127C115.33 67.9797 115.492 67.8985 115.492 67.7361C115.492 67.5736 115.371 67.4924 115.168 67.4924C115.086 67.4924 115.005 67.4924 114.964 67.4924V67.9797V67.9797Z" fill="white"></path></g><defs><clipPath id="clip0"><rect width="160" height="75.7767" fill="white"></rect></clipPath></defs></svg> 