<svg width="114" height="50" viewBox="0 0 114 50" fill="none" xmlns="http://www.w3.org/2000/svg">
<path d="M68.647 8.70142H61.1798V41.0246H84.1175V34.7296H68.647V8.70142Z" fill="#8D785C"/>
<path d="M100.544 28.7045H106.623V34.3554C105.503 34.7835 103.319 35.2116 101.238 35.2116C94.5152 35.2116 92.2748 31.795 92.2748 24.8619C92.2748 17.9288 94.4072 14.3542 101.128 14.3542C104.865 14.3542 106.995 15.5284 108.755 17.7688L113.398 13.5021C110.57 9.44946 105.609 8.22327 100.968 8.22327C90.5145 8.22327 85.0197 13.9302 85.0197 24.8099C85.0197 35.6897 89.9804 41.5066 100.914 41.5066C105.929 41.5066 110.836 40.2264 113.502 38.3601V22.6776H100.542V28.7045H100.544Z" fill="#8D785C"/>
<path fill-rule="evenodd" clip-rule="evenodd" d="M50.004 24.998C50.004 38.8002 38.8102 50 25.002 50C11.1958 50 0 38.8082 0 24.998C0 11.1878 11.1918 0 25.002 0C38.8122 0 50.004 11.1958 50.004 24.998ZM24.0098 35.9418V14.0263H25.9961V33.9875H30.9749V35.9418H24.0098ZM17.0207 20.0092C18.679 20.0092 20.0232 18.665 20.0232 17.0148C20.0232 15.3645 18.679 14.0143 17.0207 14.0143C15.3624 14.0143 14.0282 15.3585 14.0282 17.0148C14.0282 18.671 15.3724 20.0092 17.0207 20.0092ZM25.004 4.06464C25.2461 4.06464 25.7441 4.07064 25.9962 4.08064L25.9982 4.08264V6.03295C25.7701 6.02695 25.2361 6.02095 25.006 6.02095C19.9412 6.02095 15.1825 7.99326 11.5959 11.5798C8.0113 15.1624 6.03699 19.9272 6.03699 24.994C6.03699 30.0608 8.00931 34.8256 11.5959 38.4061C15.1825 41.9887 19.9432 43.961 25.006 43.961C35.0356 43.961 43.2729 36.1358 43.9391 26.2682V25.9861H30.989V24.0418H45.0892L45.9254 24.0378V24.992C45.9254 30.5789 43.755 35.8337 39.8064 39.7824C35.8458 43.739 30.5869 45.9113 25.004 45.9113C19.4211 45.9113 14.1643 43.739 10.2017 39.7824C6.25302 35.8337 4.08468 30.5789 4.08468 24.992C4.08468 13.4541 13.4722 4.06464 25.004 4.06464Z" fill="#8D785C"/>
</svg>
