<svg width="350" height="642" viewBox="0 0 350 642" fill="none" xmlns="http://www.w3.org/2000/svg">
<rect opacity="0.9" x="-188.262" width="524" height="524" rx="40" transform="rotate(15 -188.262 0)" fill="url(#paint0_linear_443_26555)"/>
<rect x="176" y="232.047" width="150" height="150" rx="30" transform="rotate(-10 176 232.047)" fill="#FD4F00"/>
<path d="M256.361 319.776L279.309 315.729C317.383 309.016 307.99 272.562 307.99 272.562C307.99 272.562 301.63 240.358 259.645 247.761C247.634 249.886 229.035 256.643 219.71 260.69L220.47 268.587C227.873 266.227 246.084 261.214 256.686 259.345C272.786 256.506 287.175 260.017 290.263 277.532C293.047 293.32 286.107 302.17 277.011 303.773L273.059 304.47L269.148 264.522L246.2 268.568C208.126 275.282 217.518 311.729 217.518 311.729C217.518 311.729 223.878 343.933 265.863 336.53C277.882 334.411 296.481 327.653 305.806 323.607L305.046 315.709C297.643 318.069 279.432 323.082 268.83 324.952C252.73 327.791 238.348 324.279 235.259 306.764C232.476 290.976 239.416 282.126 248.512 280.522L252.464 279.825L256.374 319.773L256.361 319.776Z" fill="black"/>
<defs>
<linearGradient id="paint0_linear_443_26555" x1="73.738" y1="0" x2="73.738" y2="524" gradientUnits="userSpaceOnUse">
<stop stop-color="#FD4F00"/>
<stop offset="1" stop-color="#FD4F00" stop-opacity="0"/>
</linearGradient>
</defs>
</svg>
