<svg width="154" height="50" viewBox="0 0 154 50" fill="none" xmlns="http://www.w3.org/2000/svg">
<path fill-rule="evenodd" clip-rule="evenodd" d="M57.9677 11.2784C58.4801 10.3816 58.5058 9.25412 57.942 8.30603C57.4039 7.33232 56.4046 6.79422 55.354 6.7686C51.9717 6.97359 48.5893 5.99988 45.8219 4.05246C37.9042 -1.20043 26.6296 -1.50792 17.0207 4.07809C7.41171 9.6641 2.10757 19.6062 2.74816 29.087C3.05565 32.4694 2.23569 35.8773 0.390764 38.7216C-0.121714 39.6184 -0.147337 40.7459 0.416388 41.694C0.980114 42.6421 1.97945 43.1801 3.0044 43.2058C6.38676 43.0264 9.76911 44.0001 12.5365 45.9475C20.4543 51.2004 31.7288 51.5079 41.3378 45.9219C50.9467 40.3359 56.2509 30.3938 55.6103 20.913C55.3028 17.5306 56.1227 14.1227 57.9677 11.2784ZM101.503 26.2426V45.3324H115.263V41.0533H106.807V37.4403H113.905V33.7761H106.807V30.4962H115.007V26.2426H101.503ZM153.417 26.2426V45.3324H147.831V37.2353C144.782 38.3884 141.143 38.5421 141.22 38.5165H141.066V45.3324H135.506V26.2426H141.066V34.2373C141.297 34.2373 144.218 34.2117 147.857 32.9817V26.2426H153.417ZM73.1373 38.7471V45.3324H67.5769V26.2939H81.0294V30.9574H73.1373V34.7242H79.4151V38.7471H73.1373ZM101.631 19.5292V23.8084H87.871V4.71857H101.734V8.97214H93.1752V12.252H100.273V15.9162H93.1752V19.5292H101.631ZM132.098 19.1192V23.7827H118.953V4.69294H124.513V19.1192H132.098ZM117.005 19.1192V23.7827H103.86V4.69294H109.421V19.1192H117.005ZM148.369 14.2507C148.42 11.227 146.319 8.86964 143.27 8.89526C140.221 8.86964 138.145 11.227 138.196 14.2507C138.196 15.3012 138.401 16.2749 138.837 17.0693C140.528 20.426 145.986 20.426 147.703 17.0693C148.138 16.2749 148.369 15.3269 148.369 14.2507ZM153.776 14.2507C153.904 20.3235 149.138 24.3721 143.27 24.2952C137.402 24.3721 132.687 20.3235 132.764 14.2507C132.764 12.252 133.225 10.4839 134.097 8.97214C137.786 2.61741 148.728 2.64304 152.418 8.97214C153.314 10.4583 153.776 12.252 153.776 14.2507ZM85.488 4.69294V23.7571H79.902V15.66C76.8528 16.813 73.2142 16.9668 73.291 16.9412H73.1373V23.7827H67.5769V4.69294H73.1373V12.6876C73.3679 12.6876 76.289 12.662 79.9276 11.432V4.69294H85.488ZM133.84 39.4389C133.712 43.7694 129.228 45.7681 125.256 45.6912C121.797 45.7168 118.082 44.4356 116.647 41.2582L121.003 38.9521C121.105 39.4389 121.31 39.9002 121.618 40.2845C122.438 41.3351 123.744 41.7707 125.154 41.822C126.461 41.8988 128.408 41.5145 128.511 40.0283C128.562 39.0033 127.614 38.5677 126.742 38.2859C126.178 38.1302 125.356 37.9598 124.482 37.7788C123.054 37.4831 121.49 37.1591 120.695 36.8253C119.722 36.4922 118.876 35.9029 118.158 35.0829C116.749 33.5198 116.929 30.0606 118.287 28.3694C120.516 25.2946 125.538 25.0127 128.844 26.3964C130.407 27.0882 131.637 28.1388 132.328 29.6506L128.331 31.7774C128.024 30.3168 126.742 29.5737 125.256 29.5225C124.411 29.4969 123.488 29.6506 122.95 30.24C122.412 30.8037 122.438 31.8543 123.078 32.3155C123.386 32.5717 123.796 32.7511 124.257 32.8792C124.763 33.0057 125.495 33.1512 126.289 33.3092C127.747 33.5993 129.416 33.9311 130.279 34.2629C131.278 34.596 132.149 35.1854 132.867 36.0053C133.558 36.8253 133.892 37.9784 133.84 39.4389ZM90.869 35.0316H88.4348V30.1631H90.869C91.8427 30.1631 92.8421 30.5475 93.4058 31.3162C94.3026 32.5717 93.6877 34.1348 92.304 34.7242C91.8684 34.9291 91.3815 35.0316 90.869 35.0316ZM89.511 38.6959C91.1253 42.7701 94.687 45.6399 99.1712 45.5887C99.1968 45.5887 99.2224 45.5887 99.2737 45.6143V40.797C98.6843 40.7714 98.1206 40.6433 97.6337 40.4383C95.7888 39.6696 94.9945 37.7478 94.9945 37.7478C96.7369 37.1328 98.2231 36.236 98.9149 34.7498C99.6836 33.0842 99.4274 30.7781 98.4025 29.2919C96.9163 27.1395 94.277 26.2939 91.5609 26.2939H82.8744V45.3837H88.4348V38.6959H89.511Z" fill="#8D785C"/>
</svg>
