<svg width="167" height="167" viewBox="0 0 167 167" fill="none" xmlns="http://www.w3.org/2000/svg">
<g filter="url(#filter0_d_24_146)">
<g clip-path="url(#clip0_24_146)">
<rect x="16" y="30.8945" width="110.111" height="110.111" rx="21.8475" transform="rotate(-15 16 30.8945)" fill="white"/>
<g clip-path="url(#clip1_24_146)">
<path d="M102.842 70.9277C102.463 71.0293 102.222 71.3986 102.278 71.7869L102.731 74.8551C101.44 75.7306 100.356 76.8248 99.4976 78.092L96.4199 77.6359C96.0326 77.5789 95.6681 77.8229 95.5681 78.2028L94.0883 83.7098C93.9883 84.0897 94.1866 84.4845 94.5495 84.6268L97.3931 85.749C97.4503 86.5155 97.5645 87.2848 97.7694 88.0495C97.9743 88.8142 98.2564 89.5355 98.5922 90.2242L96.6979 92.622C96.4557 92.9297 96.4784 93.3715 96.757 93.6468L100.786 97.6776C101.063 97.9566 101.505 97.9784 101.812 97.7354L104.245 95.8089C105.618 96.475 107.107 96.8828 108.663 96.9955L109.805 99.8789C109.948 100.247 110.344 100.443 110.724 100.341L116.227 98.8663C116.607 98.7646 116.848 98.3954 116.791 98.0071L116.338 94.9389C117.63 94.0633 118.713 92.9692 119.572 91.702L122.65 92.1581C123.037 92.2151 123.401 91.9681 123.501 91.5912L124.981 86.0841C125.081 85.7043 124.883 85.3095 124.52 85.1672L121.675 84.0392C121.621 83.2749 121.505 82.5092 121.3 81.7445C121.095 80.9797 120.813 80.2585 120.477 79.5698L122.371 77.172C122.614 76.8643 122.591 76.4225 122.312 76.1472L118.283 72.1164C118.007 71.8374 117.565 71.8156 117.258 72.0586L114.825 73.9851C113.451 73.319 111.962 72.9112 110.406 72.7985L109.264 69.9151C109.121 69.5467 108.725 69.3513 108.346 69.453L102.842 70.9277ZM108.155 79.7497C110.997 78.9883 113.92 80.6735 114.682 83.5178C115.443 86.3591 113.755 89.283 110.914 90.0443C108.073 90.8057 105.149 89.1175 104.387 86.2762C103.625 83.4319 105.314 80.511 108.155 79.7497Z" fill="url(#paint0_linear_24_146)"/>
<path d="M57.8985 45.1401C54.6484 46.0109 52.7212 49.3488 53.5921 52.599L66.2022 99.6603C67.073 102.91 70.4109 104.838 73.6611 103.967L93.2163 98.7268L92.4488 97.9535C91.131 96.6358 90.4612 94.9066 90.4452 93.1644L72.0848 98.084L68.9323 86.3187L88.4933 81.0773L89.6837 76.6269C89.9416 75.6719 90.4053 74.8274 90.9958 74.1018L67.3561 80.436L64.2035 68.6707L99.4995 59.2132L101.08 65.1131C101.145 65.0957 101.204 65.0616 101.265 65.045L106.769 63.5704C106.834 63.553 106.896 63.5549 106.957 63.5384L100.648 39.9905C99.7768 36.7403 96.4389 34.8132 93.1887 35.6841L57.8985 45.1401ZM59.4748 51.0227L94.7707 41.5652L97.9232 53.3305L62.6273 62.788L59.4748 51.0227Z" fill="url(#paint1_linear_24_146)"/>
</g>
</g>
</g>
<defs>
<filter id="filter0_d_24_146" x="-4.77447" y="-4.52931" width="176.407" height="176.407" filterUnits="userSpaceOnUse" color-interpolation-filters="sRGB">
<feFlood flood-opacity="0" result="BackgroundImageFix"/>
<feColorMatrix in="SourceAlpha" type="matrix" values="0 0 0 0 0 0 0 0 0 0 0 0 0 0 0 0 0 0 127 0" result="hardAlpha"/>
<feOffset dy="13.8496"/>
<feGaussianBlur stdDeviation="10.3872"/>
<feComposite in2="hardAlpha" operator="out"/>
<feColorMatrix type="matrix" values="0 0 0 0 0 0 0 0 0 0 0 0 0 0 0 0 0 0 0.05 0"/>
<feBlend mode="normal" in2="BackgroundImageFix" result="effect1_dropShadow_24_146"/>
<feBlend mode="normal" in="SourceGraphic" in2="effect1_dropShadow_24_146" result="shape"/>
</filter>
<linearGradient id="paint0_linear_24_146" x1="105.594" y1="70.1903" x2="113.475" y2="99.6036" gradientUnits="userSpaceOnUse">
<stop stop-color="#FE4C4E"/>
<stop offset="1" stop-color="#982E2F"/>
</linearGradient>
<linearGradient id="paint1_linear_24_146" x1="91.3062" y1="99.2387" x2="75.5436" y2="40.4121" gradientUnits="userSpaceOnUse">
<stop stop-color="#586971"/>
<stop offset="1" stop-color="#B1B1B1"/>
</linearGradient>
<clipPath id="clip0_24_146">
<rect x="16" y="30.8945" width="110.111" height="110.111" rx="21.8475" transform="rotate(-15 16 30.8945)" fill="white"/>
</clipPath>
<clipPath id="clip1_24_146">
<rect width="73.0821" height="73.0821" fill="white" transform="translate(38.6758 43.9858) rotate(-15)"/>
</clipPath>
</defs>
</svg>
