<svg width="128" height="128" viewBox="0 0 128 128" fill="none" xmlns="http://www.w3.org/2000/svg">
<g filter="url(#filter0_d_24_151)">
<rect x="34.4902" y="1.80664" width="83.4665" height="83.4665" rx="16.5608" transform="rotate(15 34.4902 1.80664)" fill="white"/>
<g clip-path="url(#clip0_24_151)">
<path d="M69.3792 32.8403C64.2848 31.4753 58.83 32.7256 54.8209 36.0986C47.0219 34.3139 39.1224 39.0256 37.0353 46.815C35.3497 53.1056 37.963 59.5376 43.0535 63.0251L45.2802 60.517L45.6375 59.1837C42.1339 56.7649 40.3195 52.3471 41.4825 48.0066C42.9608 42.4898 48.6532 39.2032 54.1701 40.6814L56.0531 41.2977L57.057 40.2959C59.9646 37.3785 64.2295 36.227 68.1875 37.2876C73.6843 38.7604 77.2368 43.9375 76.6424 49.5982L76.4054 51.8202L78.9355 52.1584C79.1773 52.1898 79.4197 52.2136 79.662 52.2786C83.9537 53.4285 86.5093 57.855 85.3594 62.1467C84.3113 66.058 80.5417 68.4923 76.6334 68.029L76.4111 68.8585L77.2004 72.7054C82.9341 72.8762 88.2587 69.1153 89.8067 63.3383C91.5727 56.7474 87.7761 49.9528 81.3074 47.9622C81.1382 40.8909 76.3814 34.7165 69.3792 32.8403ZM51.0937 56.6099L49.447 62.7553L45.6182 67.0732C44.4699 66.8389 43.2754 67.0514 42.2784 67.6673C41.2813 68.2832 40.5566 69.2562 40.252 70.3879C39.936 71.5674 40.1014 72.8241 40.712 73.8816C41.3225 74.9391 42.3282 75.7108 43.5077 76.0268C44.6872 76.3429 45.9439 76.1774 47.0014 75.5669C48.0589 74.9563 48.8305 73.9507 49.1466 72.7712C49.3791 71.8998 49.3506 70.9792 49.0646 70.1239L53.6127 64.998L55.541 57.8016L51.0937 56.6099ZM59.9882 58.9932L56.8474 70.7151C56.068 70.9239 55.3573 71.3338 54.7863 71.9038C54.2152 72.4738 53.804 73.1839 53.5938 73.9628C53.2778 75.1423 53.4433 76.3991 54.0538 77.4566C54.6644 78.5141 55.67 79.2857 56.8495 79.6017C58.029 79.9178 59.2857 79.7523 60.3432 79.1418C61.4007 78.5312 62.1723 77.5256 62.4884 76.3461C62.6968 75.5659 62.6963 74.7446 62.487 73.9646C62.2776 73.1846 61.8668 72.4734 61.2958 71.9024L64.4355 60.1849L59.9882 58.9932ZM68.8828 61.3765L66.9545 68.5729L68.3291 75.2905C67.6549 75.8872 67.1704 76.6685 66.9357 77.5378C66.6196 78.7173 66.7851 79.974 67.3956 81.0315C68.0062 82.089 69.0118 82.8606 70.1913 83.1767C71.3708 83.4927 72.6275 83.3273 73.685 82.7167C74.7425 82.1062 75.5141 81.1005 75.8302 79.921C76.1323 78.7887 75.9912 77.5837 75.4356 76.5518C74.8801 75.5199 73.9519 74.7386 72.8403 74.3673L71.6834 68.7135L73.33 62.5681L68.8828 61.3765Z" fill="url(#paint0_linear_24_151)"/>
</g>
</g>
<defs>
<filter id="filter0_d_24_151" x="-3.7057" y="-3.72441" width="135.411" height="135.411" filterUnits="userSpaceOnUse" color-interpolation-filters="sRGB">
<feFlood flood-opacity="0" result="BackgroundImageFix"/>
<feColorMatrix in="SourceAlpha" type="matrix" values="0 0 0 0 0 0 0 0 0 0 0 0 0 0 0 0 0 0 127 0" result="hardAlpha"/>
<feOffset dy="11.0621"/>
<feGaussianBlur stdDeviation="8.29658"/>
<feComposite in2="hardAlpha" operator="out"/>
<feColorMatrix type="matrix" values="0 0 0 0 0 0 0 0 0 0 0 0 0 0 0 0 0 0 0.05 0"/>
<feBlend mode="normal" in2="BackgroundImageFix" result="effect1_dropShadow_24_151"/>
<feBlend mode="normal" in="SourceGraphic" in2="effect1_dropShadow_24_151" result="shape"/>
</filter>
<linearGradient id="paint0_linear_24_151" x1="69.3792" y1="32.8403" x2="56.8495" y2="79.6017" gradientUnits="userSpaceOnUse">
<stop stop-color="#29AFE5"/>
<stop offset="1" stop-color="#325BA7"/>
</linearGradient>
<clipPath id="clip0_24_151">
<rect width="55.2498" height="55.2498" fill="white" transform="translate(44.4656 19.0845) rotate(15)"/>
</clipPath>
</defs>
</svg>
