<svg width="134" height="135" viewBox="0 0 134 135" fill="none" xmlns="http://www.w3.org/2000/svg">
<g filter="url(#filter0_d_24_142)">
<rect x="52.0938" y="0.803223" width="83.0303" height="83.0303" rx="16.4743" transform="rotate(30 52.0938 0.803223)" fill="white"/>
<path d="M80.4907 31.2705C79.8709 30.9127 79.0777 31.0541 78.6227 31.6075L75.4031 35.5228C74.0442 35.0216 72.6594 34.6601 71.2631 34.4224L70.4243 29.414C70.3078 28.7067 69.6949 28.1861 68.9761 28.1876L65.6013 28.1904C64.884 28.1894 64.2709 28.7072 64.155 29.4124L63.3214 34.4076C61.9091 34.6517 60.5195 35.0241 59.1743 35.5188L55.9548 31.6096C55.5018 31.0568 54.712 30.9149 54.0913 31.2745L51.1672 32.9595C50.544 33.3176 50.2735 34.0748 50.5262 34.7456L52.304 39.5024C51.2137 40.4065 50.1951 41.4119 49.2689 42.5255L44.523 40.7445C43.8507 40.4953 43.0961 40.7644 42.7368 41.3867L41.047 44.3134C40.6892 44.9331 40.8306 45.7264 41.384 46.1813L45.2993 49.4009C44.7981 50.7599 44.4366 52.1447 44.1988 53.541L39.1905 54.3798C38.4832 54.4963 37.9651 55.1106 37.9641 55.828L37.9669 59.2028C37.9658 59.9201 38.4837 60.5332 39.1888 60.6491L44.1841 61.4827C44.4282 62.895 44.8005 64.2845 45.2953 65.6297L41.3861 68.8493C40.8319 69.3048 40.694 70.0935 41.051 70.7128L42.736 73.6368C43.0955 74.2576 43.8528 74.528 44.5221 74.2778L49.274 72.4972C50.1789 73.5891 51.187 74.6078 52.302 75.5352L50.521 80.2811C50.2717 80.9533 50.5409 81.708 51.1631 82.0673L54.0899 83.757C54.7096 84.1148 55.5028 83.9735 55.9578 83.4201L59.1774 79.5047C60.5364 80.006 61.9212 80.3674 63.3175 80.6052L64.1563 85.6136C64.2728 86.3209 64.8871 86.8389 65.6045 86.8399L68.9793 86.8372C69.6966 86.8382 70.3096 86.3204 70.4256 85.6152L71.2592 80.62C72.6715 80.3758 74.061 80.0035 75.4062 79.5088L78.6258 83.418C79.0813 83.9722 79.87 84.1101 80.4893 83.7531L83.4133 82.0681C84.0341 81.7085 84.3045 80.9513 84.0543 80.2819L82.2737 75.5301C83.3656 74.6252 84.3843 73.6171 85.3117 72.5021L90.0576 74.2831C90.7298 74.5323 91.4845 74.2632 91.8438 73.6409L93.5335 70.7142C93.8913 70.0944 93.75 69.3012 93.1966 68.8462L89.2812 65.6267C89.7825 64.2677 90.1439 62.8829 90.3817 61.4866L95.3901 60.6478C96.0974 60.5313 96.6154 59.917 96.6164 59.1996L96.6137 55.8248C96.6147 55.1075 96.0969 54.4944 95.3917 54.3785L90.3965 53.5449C90.1523 52.1326 89.78 50.743 89.2853 49.3978L93.1945 46.1783C93.7487 45.7228 93.8866 44.934 93.5296 44.3148L91.8446 41.3907C91.485 40.77 90.7278 40.4996 90.0584 40.7498L85.3066 42.5304C84.4017 41.4385 83.3935 40.4198 82.2786 39.4924L84.0596 34.7465C84.3088 34.0742 84.0397 33.3196 83.4174 32.9603L80.4907 31.2705ZM73.417 41.0366L68.8746 48.9041C65.3232 48.2671 61.567 49.8302 59.6708 53.1147C59.3967 53.5894 59.1837 54.0831 59.0077 54.5838L49.9463 54.584C50.2893 52.5758 50.9696 50.589 52.0513 48.7155C56.4267 41.137 65.497 38.069 73.417 41.0366ZM78.4966 43.9693C85.0265 49.3444 86.9048 58.7335 82.5293 66.312C81.4473 68.1861 80.0629 69.765 78.4946 71.0664L73.969 63.2217C74.3147 62.819 74.6357 62.3877 74.9098 61.9129C76.806 58.6285 76.2817 54.594 73.9543 51.8369L78.4966 43.9693ZM68.7567 54.974C70.1895 55.8012 70.6573 57.5474 69.8301 58.9802C69.0029 60.413 67.2567 60.8809 65.8239 60.0536C64.3911 59.2264 63.9232 57.4802 64.7504 56.0474C65.5777 54.6146 67.3239 54.1467 68.7567 54.974ZM59.0562 60.4455C59.732 62.3533 61.0194 64.0526 62.8912 65.1333C64.7629 66.214 66.8783 66.4792 68.8683 66.1105L73.4363 74.0194C68.6962 75.7861 63.238 75.4929 58.492 72.7528C53.746 70.0127 50.763 65.4324 49.923 60.4439L59.0562 60.4455Z" fill="url(#paint0_linear_24_142)"/>
</g>
<defs>
<filter id="filter0_d_24_142" x="-5.21188" y="-4.46028" width="145.002" height="145.002" filterUnits="userSpaceOnUse" color-interpolation-filters="sRGB">
<feFlood flood-opacity="0" result="BackgroundImageFix"/>
<feColorMatrix in="SourceAlpha" type="matrix" values="0 0 0 0 0 0 0 0 0 0 0 0 0 0 0 0 0 0 127 0" result="hardAlpha"/>
<feOffset dy="10.527"/>
<feGaussianBlur stdDeviation="7.89525"/>
<feComposite in2="hardAlpha" operator="out"/>
<feColorMatrix type="matrix" values="0 0 0 0 0 0 0 0 0 0 0 0 0 0 0 0 0 0 0.05 0"/>
<feBlend mode="normal" in2="BackgroundImageFix" result="effect1_dropShadow_24_142"/>
<feBlend mode="normal" in="SourceGraphic" in2="effect1_dropShadow_24_142" result="shape"/>
</filter>
<linearGradient id="paint0_linear_24_142" x1="92.6887" y1="72.1775" x2="41.8919" y2="42.85" gradientUnits="userSpaceOnUse">
<stop stop-color="#004482"/>
<stop offset="1" stop-color="#6DADE8"/>
</linearGradient>
</defs>
</svg>
