<svg width="100" height="30" viewBox="0 0 100 30" fill="none" xmlns="http://www.w3.org/2000/svg">
<path d="M69.5519 21.226V29.9934H75.7316V16.245C75.7316 15.6209 76.2111 15.5258 76.5459 15.8606L91.1127 29.9975H99.5453L84.1146 14.9967L99.5411 0H91.1086L76.5418 14.1369C76.207 14.4717 75.7275 14.3767 75.7275 13.7525V0H69.5519V8.81697C69.5519 11.9792 71.6104 13.8972 75.3017 14.9016C75.4464 14.9512 75.4464 15.0918 75.3017 15.1414C71.6104 16.1458 69.5519 18.0638 69.5519 21.226Z" fill="#8D785C"/>
<path d="M34.5238 11.6443C34.5238 15.4761 37.7356 17.8736 42.0966 17.8736H56.7584C57.6472 17.8075 58.416 18.473 58.4821 19.3617C58.4863 19.4403 58.4863 19.5229 58.4821 19.6015V22.094C58.5483 22.9828 57.8828 23.7516 56.9941 23.8177C56.9155 23.8219 56.8328 23.8219 56.7543 23.8177H36.1028V29.9975H56.899C61.0036 30.1008 64.418 26.8601 64.5213 22.7554C64.5213 22.6314 64.5213 22.5033 64.5213 22.3792V19.6511C64.6247 15.5464 61.3839 12.1362 57.2834 12.0328C57.1553 12.0328 57.0313 12.0328 56.9031 12.0328H42.2867C41.398 12.099 40.6291 11.4335 40.563 10.5448C40.5589 10.4662 40.5589 10.3835 40.563 10.305V7.33295C40.5093 6.75011 40.9392 6.23754 41.522 6.1838C41.5881 6.17967 41.6501 6.17967 41.7163 6.1838H62.0329V-6.05611e-05H44.6387C42.3239 -0.0124614 40.4349 1.85179 40.4225 4.16661V5.89032C40.4266 6.04326 40.3108 6.1714 40.1579 6.17967H40.1372C37.1693 6.27474 34.5362 7.95299 34.5362 11.6443H34.5238Z" fill="#8D785C"/>
<path d="M27.6497 12.0288H17.729V13.8889C17.7166 16.0797 19.4817 17.8654 21.6725 17.8778H24.0989V22.6687C24.0989 23.3052 23.5822 23.8178 22.9497 23.8178H7.90758C6.95271 23.8178 6.18387 23.0448 6.18387 22.0941V12.0205V7.90758C6.18387 6.95271 6.95271 6.17973 7.90758 6.17973H24.0534V0H7.45701C6.29961 0 5.1546 0.268684 4.11707 0.789518C2.67031 1.49636 1.49636 2.67031 0.789518 4.1212C0.268684 5.1546 0 6.29961 0 7.45701V22.5364C0 23.6979 0.268684 24.8429 0.789518 25.8805C1.49636 27.3272 2.67031 28.5012 4.11707 29.2039C5.1546 29.7247 6.29547 29.9934 7.45701 29.9934H19.9777C22.3049 29.9934 24.1898 28.1043 24.194 25.7771V24.0989C24.1898 23.9459 24.3056 23.8178 24.4585 23.8095H24.4792C27.8315 23.7145 29.9893 22.0858 29.9893 19.2584V12.0288H27.6414H27.6497Z" fill="#8D785C"/>
</svg>
