<svg width="60" height="60" viewBox="0 0 60 60" fill="none" xmlns="http://www.w3.org/2000/svg">
<rect width="60" height="60" rx="12" fill="#FD4F00"/>
<path d="M25.5632 40.1401H34.884C50.3485 40.1401 49.1807 25.1278 49.1807 25.1278C49.1807 25.1278 48.9122 12 31.8591 12C26.9801 12.0028 19.1842 13.3728 15.2295 14.3191L14.9804 17.4828C18.0606 17.0674 25.5825 16.3576 29.8887 16.3576C36.4282 16.3576 41.8524 18.74 41.8524 25.8541C41.8524 32.2667 38.5038 35.2708 34.8092 35.2708H33.2041L34.4384 19.2627H25.1176C9.65302 19.2627 10.8209 34.2722 10.8209 34.2722C10.8209 34.2722 11.0893 47.4 28.1424 47.4C33.0242 47.4 40.8202 46.03 44.7749 45.0837L45.024 41.92C41.9438 42.3354 34.4218 43.0452 30.1156 43.0452C23.5761 43.0452 18.1547 40.6628 18.1547 33.5487C18.1547 27.1361 21.5033 24.132 25.1979 24.132H26.803L25.5687 40.1401H25.5632Z" fill="black"/>
</svg>
