<svg width="167" height="50" viewBox="0 0 167 50" fill="none" xmlns="http://www.w3.org/2000/svg">
<path d="M109.902 24.6334C109.902 24.3889 109.841 24.0221 109.78 23.5942C109.719 22.9219 109.535 22.1884 109.352 21.516C107.763 16.5038 103.484 13.2642 98.4719 13.2642C97.9829 13.2642 97.4328 13.3253 96.9438 13.3864C90.5257 14.2422 86.1247 20.049 86.9804 26.6505C87.7751 32.6407 92.5428 36.736 98.4108 36.736C98.8998 36.736 99.4499 36.6749 99.9389 36.6138C103.056 36.247 105.807 34.9023 107.885 32.3351C108.007 32.2128 108.068 32.0294 108.007 31.8461C108.007 31.7238 107.885 31.5404 107.763 31.4182C107.396 31.1737 106.174 30.5625 105.501 30.2568C105.318 30.1346 105.134 30.0735 105.073 30.0123C104.89 29.8901 104.707 29.8901 104.584 29.8901C104.401 29.8901 104.279 29.9512 104.095 30.1346C102.751 31.6627 101.1 32.4573 99.3888 32.7018C99.022 32.7629 98.7164 32.7629 98.4108 32.7629C95.2934 32.7629 92.1149 30.6847 91.198 27.8118V27.7507L91.2592 27.6896C91.4425 27.6285 92.9095 26.9561 95.0489 26.9561C95.2934 26.9561 95.599 26.9561 95.8435 27.0172C96.4548 27.0783 97.066 27.1395 97.7384 27.2006C98.9609 27.384 100.183 27.5062 101.711 27.5062C102.628 27.5062 103.484 27.4451 104.401 27.3228C107.946 26.6505 109.413 25.6114 109.413 25.6114C109.963 25.3669 109.902 25.1224 109.902 24.6334ZM105.868 23.1664C105.257 23.3497 104.462 23.5331 103.484 23.6554C102.995 23.7165 102.506 23.7776 101.834 23.7776C100.795 23.7776 99.6333 23.7165 98.5941 23.5942H98.533C97.4939 23.5331 96.577 23.472 95.6601 23.472C94.9878 23.472 94.3765 23.5331 93.8264 23.5942C92.1149 23.7776 90.7702 24.3277 90.7702 24.3277V24.2055C91.0758 20.7825 94.0098 17.7874 97.4939 17.3595C97.7995 17.2984 98.1663 17.2984 98.4719 17.2984C101.773 17.2984 104.951 19.8045 105.929 23.1052V23.1664H105.868Z" fill="#8D785C"/>
<path d="M165.893 14.6088C165.893 14.3032 165.648 14.0587 165.343 14.0587H162.409C162.103 14.0587 161.858 14.3032 161.858 14.6088V35.6357C161.858 35.9414 162.103 36.1859 162.409 36.1859H165.343C165.648 36.1859 165.893 35.9414 165.893 35.6357V14.6088Z" fill="#8D785C"/>
<path d="M163.875 6.54041C162.408 6.54041 161.186 7.7629 161.186 9.22989C161.186 10.6969 162.408 11.9194 163.875 11.9194C165.342 11.9194 166.565 10.6969 166.565 9.22989C166.504 7.7629 165.342 6.54041 163.875 6.54041Z" fill="#8D785C"/>
<path d="M124.572 36.736C124.755 36.736 124.939 36.736 125.122 36.736C128.178 36.736 130.99 35.5747 133.068 33.4353C135.208 31.2959 136.369 28.3008 136.369 25.1224C136.369 18.4598 131.235 13.2642 124.694 13.2642C119.376 13.2642 114.914 16.7483 113.509 21.9439C113.264 22.7996 113.02 25.0612 113.02 27.3228V43.8265C113.02 44.1321 113.264 44.3766 113.57 44.3766H116.504C116.809 44.3766 117.054 44.1321 117.054 43.8265V33.4353L117.237 33.5576C118.704 35.0246 121.394 36.6138 124.572 36.736ZM124.694 17.2984C128.912 17.2984 132.152 20.7214 132.152 25.1835C132.152 29.6456 129.034 32.9463 124.878 32.9463C122.799 32.9463 120.843 32.2128 119.438 30.8681C117.971 29.4622 117.176 27.5062 117.176 25.3057C117.237 20.8436 120.599 17.2984 124.694 17.2984Z" fill="#8D785C"/>
<path d="M71.8215 36.736C72.0049 36.736 72.1882 36.736 72.3716 36.736C75.4278 36.736 78.2396 35.5747 80.3178 33.4353C82.4572 31.2959 83.6186 28.3008 83.6186 25.1224C83.6186 18.4598 78.4841 13.2642 71.9437 13.2642C66.6259 13.2642 62.1638 16.7483 60.7579 21.9439C60.5134 22.7996 60.2689 25.0612 60.2689 27.3228V43.8265C60.2689 44.1321 60.5134 44.3766 60.819 44.3766H63.753C64.0587 44.3766 64.3031 44.1321 64.3031 43.8265V33.4353L64.4254 33.5576C65.9535 35.0246 68.643 36.6138 71.8215 36.736ZM71.9437 17.2984C76.1613 17.2984 79.401 20.7214 79.401 25.1835C79.401 29.6456 76.2836 32.9463 72.1271 32.9463C70.0489 32.9463 68.0929 32.2128 66.687 30.8681C65.22 29.4622 64.4254 27.5062 64.4254 25.3057C64.4865 20.8436 67.8484 17.2984 71.9437 17.2984Z" fill="#8D785C"/>
<path d="M139.242 33.0685C141.809 35.3913 144.56 36.736 148.228 36.736H148.35C154.584 36.6749 157.396 33.2519 157.396 29.89C157.396 25.2446 152.995 23.9609 151.65 23.6553C151.223 23.5942 150.795 23.472 150.306 23.4108C149.206 23.2275 148.105 22.983 147.066 22.6773C146.333 22.494 144.01 21.6993 144.01 19.9267C144.01 17.9707 146.149 16.9316 148.166 16.9316C149.878 16.9316 151.284 17.2372 153.056 18.6431C153.179 18.7653 153.423 18.8876 153.606 18.8876C153.79 18.8876 153.973 18.8265 154.157 18.7042C154.646 18.3375 155.562 17.5429 156.174 16.9316C156.296 16.8094 156.357 16.626 156.357 16.4426C156.357 16.1981 156.174 15.9536 156.051 15.8925C153.668 13.9976 151.345 13.203 148.044 13.203C143.338 13.203 139.792 16.1981 139.792 20.2323C139.792 23.4108 142.421 25.6724 147.127 26.5893L150.061 27.1394C152.017 27.5062 153.117 28.5453 153.056 29.9512C152.995 31.357 151.284 32.824 148.472 32.824C146.149 32.824 144.132 31.9072 142.421 30.379C142.298 30.2568 142.176 30.1345 141.932 30.1345C141.809 30.1345 141.626 30.1957 141.504 30.3179C141.32 30.4402 139.364 32.0294 139.12 32.2128C138.998 32.335 138.998 32.3962 138.998 32.5184C138.998 32.7629 139.12 32.9463 139.242 33.0685Z" fill="#8D785C"/>
<path d="M45.9047 11.4304C46.3937 13.0808 46.6993 14.7923 46.6993 16.5649C46.6993 22.3717 43.8264 27.4451 39.4866 30.6847C31.9683 36.247 20.9658 36.247 5.80688 41.0148C10.3912 46.516 17.2372 50.0001 24.9389 50.0001C38.7531 50.0001 49.8778 38.8143 49.8778 25.0612C49.8778 19.9879 48.4108 15.3424 45.9047 11.4304Z" fill="#8D785C"/>
<path d="M39.9144 5.01223C35.7579 1.89487 30.5623 0 24.9389 0C11.1247 0 0 11.1858 0 25C0 30.5623 1.83374 35.6968 4.88998 39.7922C21.6381 34.9022 34.9022 21.7604 39.9144 5.01223Z" fill="#8D785C"/>
</svg>
