<svg width="201" height="43" viewBox="0 0 201 43" fill="none" xmlns="http://www.w3.org/2000/svg">
<g clip-path="url(#clip0_342_27821)">
<path d="M17.8596 34.1807H29.1364C47.8464 34.1807 46.4334 15.944 46.4334 15.944C46.4334 15.944 46.1087 -0.00341797 25.4768 -0.00341797C19.5739 -7.60866e-05 10.1419 1.66418 5.35722 2.81379L5.05588 6.65695C8.78247 6.15233 17.883 5.29012 23.0929 5.29012C31.0048 5.29012 37.5673 8.18419 37.5673 16.8263C37.5673 24.6162 33.5159 28.2656 29.046 28.2656H27.104L28.5974 8.81915H17.3205C-1.38948 8.81915 0.0234744 27.0525 0.0234744 27.0525C0.0234744 27.0525 0.348254 42.9999 20.9801 42.9999C26.8864 42.9999 36.3184 41.3357 41.103 40.1861L41.4044 36.3429C37.6778 36.8475 28.5773 37.7097 23.3674 37.7097C15.4555 37.7097 8.89631 34.8157 8.89631 26.1735C8.89631 18.3836 12.9477 14.7343 17.4176 14.7343H19.3596L17.8663 34.1807H17.8596Z" fill="black"/>
<path d="M87.1355 17.9124C86.2164 16.4096 84.8793 15.75 82.774 15.75C79.1325 15.75 76.5174 18.2335 76.5065 24.1681C76.5108 29.8733 79.2617 32.3874 83.1636 32.3874C85.0084 32.3874 86.2864 31.6513 87.1027 30.0262L87.5994 31.9134H91.5014L91.5232 16.2262H87.5907L87.1377 17.9124H87.1355ZM84.0214 28.755C82.5924 28.755 81.8505 27.4051 81.844 24.2008C81.833 20.8436 82.6777 19.4173 84.1505 19.4173C85.6868 19.4173 86.3039 21.2892 86.328 23.9715C86.3039 26.7476 85.6802 28.755 84.0214 28.755V28.755Z" fill="black"/>
<path d="M103.483 28.7527H100.605L100.351 19.4129H103.562L103.542 16.2239H100.347L100.36 12.052H96.6442L96.4822 13.3254C96.2349 14.9505 95.9373 16.2239 94.3398 16.2239H93.4797L93.4469 19.3823H95.2283L95.3617 27.9686C95.3946 30.0632 97.2897 31.9111 99.4037 31.9133H103.485L103.479 28.7505L103.483 28.7527Z" fill="black"/>
<path d="M115.515 17.9124C114.595 16.4096 113.258 15.75 111.153 15.75C107.512 15.75 104.897 18.2335 104.87 24.1681C104.87 26.0225 105.161 27.5427 105.715 28.7528C106.805 31.2537 108.914 32.3874 111.543 32.3874C113.37 32.3874 114.666 31.6513 115.466 30.0262L115.979 31.9134H119.88L119.902 16.2262H115.97L115.515 17.9124ZM112.401 28.755C110.971 28.755 110.214 27.4051 110.208 24.2008C110.212 20.8436 111.057 19.4173 112.532 19.4173C114.007 19.4173 114.685 21.2892 114.709 23.9715C114.685 26.7476 114.062 28.755 112.401 28.755V28.755Z" fill="black"/>
<path d="M187.268 16.2239H182.057L178.768 21.2236L178.667 10.6125H173.783L173.752 31.9133H178.792L178.834 28.2787L178.797 24.3842L182.329 31.9133H187.598L182.773 22.9885L187.268 16.2239Z" fill="black"/>
<path d="M140.714 24.1133C140.714 18.6833 143.935 15.7629 148.43 15.7629C152.925 15.7629 156.116 18.6833 156.116 24.1133C156.116 29.5433 152.923 32.3763 148.43 32.3763C143.938 32.3763 140.714 29.4843 140.714 24.1133ZM150.765 24.1133C150.765 20.6316 149.908 19.2752 148.43 19.2752C146.953 19.2752 146.065 20.6316 146.065 24.1133C146.065 27.595 146.923 28.864 148.43 28.864C149.938 28.864 150.765 27.5666 150.765 24.1133Z" fill="black"/>
<path d="M157.541 24.0827C157.541 18.6527 160.644 15.7607 165.021 15.7607C168.717 15.7607 171.317 17.7375 172.146 21.6626L167.535 22.5778C167.121 20.4525 166.353 19.4805 165.2 19.4805C163.692 19.4805 162.893 20.8959 162.893 24.0827C162.893 27.2695 163.692 28.6565 165.2 28.6565C166.382 28.6565 167.211 27.6539 167.535 25.5287L172.177 26.5618C171.378 30.3689 168.717 32.3741 165.023 32.3741C160.648 32.3741 157.543 29.5411 157.543 24.0827H157.541Z" fill="black"/>
<path d="M187.371 27.3437L191.568 26.9593C191.745 28.6127 192.986 28.9666 194.021 28.995C195.085 28.995 195.796 28.6105 195.796 27.7259C195.796 26.6338 194.201 26.162 192.249 25.3953C190.032 24.5391 187.843 23.2111 187.843 20.3498C187.843 17.2809 190.415 15.7476 194.111 15.7476C197.777 15.7476 200.348 17.3399 200.643 20.5289L196.564 20.9417C196.356 19.5853 195.47 19.0239 194.317 19.0239C193.282 19.0239 192.721 19.4673 192.721 20.2034C192.721 21.2649 194.139 21.6778 195.796 22.2981C198.989 23.4186 201 24.8362 201 27.5796C201 31.2688 197.394 32.3609 194.229 32.3609C190.682 32.3609 187.784 31.0045 187.371 27.3437V27.3437Z" fill="black"/>
<path d="M74.8105 21.3067C74.8105 27.6213 71.587 31.9002 64.7286 31.9002H57.6031V10.6257H64.7286C71.587 10.6257 74.8105 14.9636 74.8105 21.3067ZM69.2235 21.3067C69.2235 17.0277 67.9236 14.6076 64.7308 14.6076H62.8969V27.9446H64.7308C67.8055 27.9446 69.2235 25.5834 69.2235 21.3045V21.3067Z" fill="black"/>
<path d="M139.32 21.3067C139.32 27.6213 136.097 31.9002 129.238 31.9002H122.113V10.6257H129.238C136.097 10.6257 139.32 14.9636 139.32 21.3067ZM133.733 21.3067C133.733 17.0277 132.433 14.6076 129.24 14.6076H127.406V27.9446H129.24C132.315 27.9446 133.733 25.5834 133.733 21.3045V21.3067Z" fill="black"/>
</g>
<defs>
<clipPath id="clip0_342_27821">
<rect width="201" height="43" fill="white"/>
</clipPath>
</defs>
</svg>
