<svg width="48" height="48" viewBox="0 0 48 48" fill="none" xmlns="http://www.w3.org/2000/svg">
<path d="M44 32H12V10H32V16H38L44 26V32Z" fill="#EFE2D2"/>
<path d="M36 33.5C37.378 33.5 38.5 34.622 38.5 36C38.5 37.378 37.378 38.5 36 38.5C34.622 38.5 33.5 37.378 33.5 36C33.5 34.622 34.622 33.5 36 33.5ZM36 30C32.686 30 30 32.686 30 36C30 39.314 32.686 42 36 42C39.314 42 42 39.314 42 36C42 32.686 39.314 30 36 30ZM12 33.5C13.378 33.5 14.5 34.622 14.5 36C14.5 37.378 13.378 38.5 12 38.5C10.622 38.5 9.5 37.378 9.5 36C9.5 34.622 10.622 33.5 12 33.5ZM12 30C8.686 30 6 32.686 6 36C6 39.314 8.686 42 12 42C15.314 42 18 39.314 18 36C18 32.686 15.314 30 12 30Z" fill="black"/>
<path d="M46 36H40V32H42V26.944L37.528 18H30V14H37.528C39.044 14 40.428 14.856 41.106 16.212L46 26V36ZM16 32H32V36H16V32ZM12 20H16V26H12V20ZM12 10H16V16H12V10ZM2 20H6V26H2V20Z" fill="black"/>
<path d="M14 10V14H28V32H32V10H14Z" fill="black"/>
<path d="M2 10V16H6V14H8V10H2ZM6 30H2V36H8V32H6V30Z" fill="black"/>
</svg>
