<svg width="139" height="143" viewBox="0 0 139 143" fill="none" xmlns="http://www.w3.org/2000/svg">
<path d="M27.0331 76.6655C27.7182 76.5719 28.2457 76.2316 28.618 75.6458C28.9902 75.0601 29.1709 74.3451 29.1612 73.5046C29.1541 72.8899 29.0496 72.3529 28.8449 71.8983C28.6416 71.4413 28.3656 71.0888 28.0146 70.8394C27.6636 70.59 27.2696 70.4685 26.8255 70.4769C26.4559 70.4847 26.1386 70.5788 25.8783 70.7618C25.6179 70.9448 25.4001 71.1773 25.2296 71.4621C25.059 71.7468 24.919 72.0429 24.8141 72.3531C24.707 72.6619 24.623 72.9468 24.5561 73.2073L24.194 74.6275C24.1037 74.9929 23.9785 75.3972 23.8157 75.8453C23.6529 76.2934 23.431 76.726 23.1513 77.1409C22.8716 77.5557 22.5061 77.8993 22.062 78.1756C21.6192 78.4495 21.0715 78.5944 20.4216 78.6055C19.6718 78.6181 18.9944 78.4357 18.386 78.0533C17.7763 77.6733 17.2911 77.1097 16.9242 76.3682C16.5572 75.6267 16.3702 74.7181 16.3578 73.6517C16.3483 72.6555 16.4975 71.7915 16.8092 71.0587C17.1209 70.3258 17.5623 69.7489 18.1288 69.3251C18.6952 68.9013 19.3598 68.6557 20.1167 68.588L20.1373 70.3259C19.6146 70.3792 19.1858 70.5647 18.8486 70.8809C18.5113 71.1971 18.2627 71.5956 18.104 72.0741C17.9439 72.5549 17.8682 73.072 17.8744 73.6238C17.8809 74.2663 17.9938 74.8424 18.2084 75.3494C18.423 75.8565 18.7213 76.2562 19.102 76.5507C19.4816 76.8416 19.9246 76.9852 20.4291 76.9742C20.8889 76.9656 21.2604 76.8311 21.5486 76.5676C21.8369 76.3041 22.0651 75.9624 22.2398 75.5367C22.4167 75.1124 22.5692 74.6552 22.6987 74.163L23.1663 72.4422C23.4657 71.3503 23.8989 70.482 24.4683 69.8387C25.0377 69.1955 25.7919 68.8645 26.7234 68.8478C27.4985 68.8342 28.1785 69.0337 28.7633 69.4461C29.3481 69.8585 29.8057 70.4217 30.1373 71.1334C30.4689 71.8452 30.6387 72.6442 30.6491 73.5318C30.66 74.4291 30.5089 75.2266 30.1991 75.9294C29.8893 76.6322 29.461 77.1918 28.9152 77.6119C28.3695 78.0321 27.747 78.2583 27.0486 78.2944L27.0308 76.6641L27.0331 76.6655Z" fill="black"/>
<path d="M23.9268 83.2245L17.9174 84.995L17.4755 83.4563L30.794 79.5286L31.236 81.0673L26.345 82.5084L26.3813 82.6384C26.9652 82.7201 27.4772 82.9533 27.9174 83.3321C28.3587 83.7146 28.6912 84.296 28.9171 85.0838C29.1134 85.7672 29.1493 86.4017 29.0267 86.9945C28.9041 87.5873 28.6033 88.1083 28.1256 88.5553C27.6502 89.0036 26.9838 89.354 26.125 89.609L19.7786 91.481L19.3367 89.9423L25.5813 88.1019C26.375 87.8686 26.9295 87.4815 27.2471 86.9421C27.5647 86.4027 27.62 85.7711 27.4107 85.0458C27.2656 84.5415 27.031 84.1226 26.7046 83.7877C26.3782 83.4528 25.9774 83.2308 25.5045 83.1229C25.0316 83.0149 24.5053 83.0476 23.9235 83.2194L23.9268 83.2245Z" fill="black"/>
<path d="M21.6825 95.5302L30.9907 90.8323L31.7014 92.2645L22.3932 96.9624L21.6825 95.5302ZM32.9046 90.7753C32.7659 90.4958 32.743 90.2085 32.8325 89.9143C32.9232 89.6178 33.1026 89.4036 33.3696 89.268C33.6366 89.1324 33.914 89.1181 34.2032 89.2228C34.4923 89.3274 34.7063 89.5195 34.845 89.799C34.9838 90.0785 35.0066 90.3658 34.9172 90.66C34.8264 90.9565 34.6471 91.1707 34.3801 91.3063C34.1131 91.4419 33.8357 91.4562 33.5465 91.3515C33.2573 91.2469 33.0433 91.0548 32.9046 90.7753Z" fill="black"/>
<path d="M21.3708 103.341L32.7677 94.6186L33.6979 95.8473L32.3795 96.8556L32.4939 97.0057C32.7077 96.989 32.9921 96.9787 33.3424 96.9722C33.6949 96.9671 34.0778 97.0541 34.4946 97.2325C34.9114 97.4108 35.3228 97.7698 35.7326 98.3086C36.2611 99.0063 36.5508 99.753 36.6064 100.551C36.6621 101.35 36.4787 102.144 36.0674 102.932C35.6524 103.72 35.0105 104.446 34.139 105.115C33.2624 105.786 32.3877 106.219 31.5207 106.413C30.6514 106.606 29.8444 106.573 29.0913 106.313C28.3405 106.054 27.7032 105.577 27.1814 104.889C26.7795 104.358 26.5448 103.864 26.481 103.407C26.4158 102.952 26.4351 102.549 26.5303 102.202C26.6291 101.854 26.7173 101.577 26.7978 101.368L26.7144 101.261L22.3331 104.616L21.3695 103.344L21.3708 103.341ZM29.5709 99.041C28.9444 99.5205 28.4626 100.034 28.1253 100.58C27.7866 101.129 27.6174 101.68 27.6172 102.237C27.6171 102.795 27.8095 103.33 28.1959 103.839C28.5977 104.37 29.0779 104.707 29.6305 104.848C30.183 104.99 30.7688 104.966 31.3864 104.781C32.0039 104.595 32.6082 104.278 33.1981 103.824C33.7804 103.378 34.2404 102.887 34.576 102.348C34.9116 101.81 35.0808 101.26 35.084 100.691C35.0873 100.123 34.8863 99.5708 34.4779 99.0297C34.0859 98.5137 33.6273 98.1773 33.0995 98.0252C32.5716 97.8731 32.0083 97.8843 31.4044 98.0622C30.8019 98.2377 30.1923 98.5648 29.5722 99.0387L29.5709 99.041Z" fill="black"/>
<path d="M38.5764 115.605L45.7362 103.654L52.8524 107.919L52.0829 109.203L46.4033 105.8L43.9843 109.839L49.131 112.923L48.3614 114.208L43.2148 111.124L40.0118 116.468L38.5751 115.608L38.5764 115.605Z" fill="black"/>
<path d="M53.0052 122.77C52.3733 122.589 51.8335 122.303 51.3903 121.913C50.9471 121.523 50.6387 121.055 50.4687 120.508C50.2986 119.962 50.3097 119.364 50.4987 118.709C50.6658 118.136 50.9143 117.7 51.2418 117.406C51.5729 117.112 51.9542 116.917 52.3906 116.82C52.8271 116.723 53.2884 116.691 53.7759 116.72C54.2634 116.749 54.747 116.801 55.2259 116.872C55.8547 116.967 56.3641 117.049 56.7554 117.116C57.1467 117.183 57.4443 117.193 57.6494 117.143C57.8545 117.093 57.9924 116.945 58.0645 116.697L58.0799 116.644C58.2658 116 58.2379 115.449 57.9936 114.993C57.7493 114.537 57.2724 114.206 56.5662 114.004C55.8341 113.793 55.2139 113.79 54.7047 113.991C54.1942 114.195 53.8028 114.455 53.5281 114.77L52.2238 113.83C52.6602 113.294 53.1454 112.92 53.682 112.703C54.2162 112.485 54.7636 112.383 55.3195 112.396C55.8767 112.406 56.4067 112.485 56.9087 112.628C57.2299 112.72 57.5864 112.864 57.9827 113.061C58.379 113.259 58.7396 113.529 59.0615 113.877C59.3835 114.225 59.6079 114.672 59.7297 115.223C59.8514 115.773 59.7971 116.445 59.5668 117.241L57.6454 123.848L56.1113 123.408L56.5056 122.05L56.4289 122.027C56.2621 122.215 56.0197 122.399 55.7067 122.576C55.3925 122.756 55.0088 122.874 54.5543 122.933C54.0997 122.991 53.5838 122.936 53.0052 122.77ZM53.6421 121.453C54.2467 121.627 54.7945 121.654 55.2841 121.535C55.7713 121.414 56.1781 121.197 56.501 120.879C56.8263 120.562 57.0477 120.195 57.169 119.775L57.5787 118.364C57.492 118.423 57.329 118.453 57.091 118.453C56.853 118.453 56.5871 118.436 56.2901 118.399C55.9931 118.361 55.7058 118.323 55.4308 118.28C55.1558 118.236 54.932 118.2 54.7604 118.176C54.3471 118.115 53.9518 118.092 53.5745 118.108C53.1972 118.124 52.8679 118.218 52.5917 118.385C52.3155 118.553 52.12 118.832 52.0052 119.224C51.8501 119.761 51.9306 120.222 52.2466 120.607C52.565 120.993 53.0283 121.273 53.6389 121.448L53.6421 121.453Z" fill="black"/>
<path d="M70.2633 116.778L68.8129 117.13C68.7332 116.888 68.6111 116.649 68.4481 116.412C68.2837 116.177 68.0582 115.978 67.7664 115.819C67.476 115.657 67.0968 115.569 66.6339 115.551C65.9982 115.527 65.4636 115.654 65.0291 115.93C64.5946 116.206 64.3676 116.567 64.3489 117.017C64.3323 117.416 64.4638 117.735 64.7419 117.976C65.0201 118.218 65.4626 118.427 66.0682 118.605L67.5939 119.043C68.5128 119.306 69.1905 119.675 69.6243 120.156C70.0582 120.637 70.2594 121.243 70.2293 121.97C70.2026 122.568 70.0096 123.095 69.6503 123.552C69.291 124.008 68.7987 124.362 68.1783 124.611C67.5579 124.861 66.8454 124.97 66.037 124.939C64.978 124.898 64.1121 124.635 63.4369 124.148C62.7631 123.66 62.3531 122.971 62.2073 122.077L63.7387 121.755C63.857 122.322 64.1125 122.753 64.5051 123.048C64.8977 123.344 65.4178 123.504 66.0715 123.529C66.8163 123.557 67.4129 123.419 67.8682 123.118C68.3212 122.815 68.5587 122.442 68.5773 121.991C68.594 121.63 68.4788 121.321 68.2377 121.063C67.9952 120.808 67.6159 120.608 67.1006 120.466L65.387 119.994C64.4466 119.731 63.7646 119.353 63.3412 118.859C62.9177 118.365 62.7215 117.757 62.7522 117.039C62.7795 116.451 62.9644 115.938 63.3179 115.497C63.6678 115.057 64.1387 114.718 64.7233 114.483C65.308 114.247 65.9686 114.142 66.6977 114.171C67.7245 114.209 68.5222 114.467 69.0922 114.943C69.6599 115.417 70.0518 116.029 70.268 116.78L70.2633 116.778Z" fill="black"/>
<path d="M72.8999 111.552L74.4797 111.302L75.9656 121.123C76.0325 121.57 76.1492 121.892 76.3145 122.094C76.4798 122.295 76.6707 122.415 76.8904 122.457C77.1101 122.5 77.3325 122.501 77.5668 122.465C77.7404 122.437 77.8832 122.404 77.9913 122.367C78.0994 122.33 78.1856 122.299 78.252 122.275L78.7874 123.646C78.6864 123.703 78.5441 123.767 78.3592 123.841C78.1742 123.915 77.9338 123.973 77.6398 124.021C77.1942 124.091 76.7426 124.064 76.2888 123.939C75.835 123.814 75.4363 123.577 75.1 123.227C74.76 122.879 74.5482 122.404 74.4548 121.805L72.9032 111.557L72.8999 111.552ZM77.0479 113.423L77.2509 114.765L71.9249 115.609L71.7219 114.268L77.0479 113.423Z" fill="black"/>
<path d="M86.7124 121.505C85.774 121.86 84.8868 121.955 84.0541 121.795C83.2213 121.636 82.4835 121.247 81.8379 120.634C81.1924 120.022 80.6877 119.213 80.3176 118.215C79.9476 117.216 79.8042 116.264 79.8884 115.362C79.9704 114.459 80.2629 113.669 80.7623 112.991C81.2617 112.314 81.9499 111.808 82.8316 111.476C83.339 111.283 83.8721 111.179 84.4298 111.162C84.9876 111.144 85.5401 111.248 86.0874 111.474C86.6346 111.699 87.1435 112.077 87.6126 112.61C88.0853 113.141 88.4884 113.863 88.8255 114.774L89.0621 115.409L81.5491 118.246L81.0691 116.951L87.0588 114.689C86.8542 114.138 86.5639 113.687 86.1867 113.338C85.8094 112.989 85.374 112.763 84.8824 112.666C84.3898 112.565 83.873 112.619 83.3312 112.823C82.734 113.049 82.2737 113.39 81.9504 113.849C81.6247 114.306 81.4329 114.815 81.3738 115.372C81.3147 115.93 81.3848 116.479 81.5842 117.017L81.905 117.882C82.1785 118.619 82.5368 119.194 82.9808 119.609C83.4261 120.022 83.9259 120.276 84.4792 120.368C85.0347 120.461 85.6138 120.391 86.2184 120.163C86.6137 120.015 86.9467 119.824 87.2257 119.592C87.5024 119.359 87.7168 119.085 87.8663 118.772C88.0148 118.456 88.0896 118.107 88.0922 117.722L89.6891 117.581C89.7183 118.131 89.6215 118.658 89.3997 119.165C89.1779 119.673 88.8379 120.127 88.3868 120.534C87.9334 120.939 87.3767 121.265 86.719 121.515L86.7124 121.505Z" fill="black"/>
<path d="M94.3352 117.647L88.7782 108.865L90.0834 108.03L90.9235 109.356L91.0161 109.298C90.9019 108.761 90.9682 108.223 91.2149 107.683C91.4639 107.145 91.851 106.705 92.3758 106.369C92.4748 106.305 92.5999 106.227 92.7511 106.137C92.9022 106.047 93.0182 105.98 93.0978 105.938L93.9661 107.312C93.912 107.331 93.7985 107.377 93.6191 107.458C93.4411 107.535 93.2629 107.635 93.0826 107.749C92.6555 108.023 92.3304 108.355 92.1111 108.746C91.8882 109.137 91.7806 109.549 91.7833 109.983C91.7861 110.418 91.9152 110.832 92.1655 111.229L95.6829 116.786L94.3325 117.652L94.3352 117.647Z" fill="black"/>
<path d="M56.1504 22.4276C55.8715 21.7962 55.3995 21.3866 54.7344 21.1989C54.0694 21.0112 53.3387 21.0442 52.5366 21.2976C51.9503 21.4825 51.4677 21.7397 51.0887 22.0692C50.7097 22.3987 50.451 22.7665 50.3098 23.1772C50.1686 23.5879 50.1642 24.0028 50.2938 24.4266C50.4027 24.7792 50.5824 25.0574 50.8296 25.2562C51.0768 25.4549 51.3614 25.5943 51.6797 25.6753C51.998 25.7563 52.3196 25.8049 52.6457 25.8187C52.9719 25.8325 53.2665 25.8313 53.5329 25.82L54.9891 25.7573C55.3618 25.7388 55.7859 25.7437 56.2581 25.7671C56.7326 25.7919 57.2066 25.8818 57.6806 26.0308C58.1568 26.1811 58.5847 26.4313 58.973 26.777C59.3599 27.1249 59.6469 27.6084 59.8387 28.2301C60.0594 28.9463 60.0751 29.6532 59.8798 30.3505C59.6846 31.0477 59.2831 31.6789 58.6776 32.2452C58.0685 32.8126 57.2556 33.2561 56.2399 33.5793C55.2928 33.8799 54.4242 33.9859 53.6376 33.8962C52.8509 33.8066 52.1767 33.5544 51.6119 33.1286C51.0481 32.7065 50.6269 32.1393 50.3529 31.4297L52.0076 30.9053C52.2054 31.3933 52.5027 31.7519 52.8981 31.9833C53.2935 32.2147 53.7437 32.3406 54.2466 32.3537C54.7495 32.3668 55.2641 32.29 55.7903 32.1234C56.4036 31.9292 56.921 31.6547 57.3447 31.3012C57.7698 30.9454 58.0691 30.5449 58.2429 30.0939C58.4167 29.6428 58.4292 29.1764 58.2779 28.6935C58.1421 28.2537 57.9084 27.935 57.5783 27.735C57.2469 27.5375 56.8543 27.4136 56.4003 27.3695C55.9475 27.3231 55.4663 27.31 54.9615 27.327L53.1887 27.3752C52.0617 27.4037 51.1115 27.2383 50.3395 26.8767C49.5652 26.5138 49.0419 25.8876 48.7649 24.9956C48.5351 24.2523 48.5377 23.5404 48.7682 22.8572C49.001 22.1754 49.4093 21.57 49.9964 21.046C50.5836 20.5221 51.3009 20.1262 52.1462 19.8572C52.9987 19.5862 53.8037 19.4995 54.5623 19.5948C55.3186 19.6887 55.9762 19.9376 56.5292 20.3409C57.0821 20.7443 57.4706 21.277 57.7007 21.9395L56.1491 22.43L56.1504 22.4276Z" fill="black"/>
<path d="M67.0526 31.6504C66.0519 31.6957 65.182 31.5143 64.4398 31.1014C63.6975 30.6884 63.117 30.0916 62.6951 29.3059C62.2732 28.5202 62.0404 27.5945 61.998 26.5264C61.9557 25.4584 62.1139 24.5092 62.4694 23.6738C62.8271 22.8399 63.346 22.1768 64.0285 21.6861C64.7109 21.1953 65.5212 20.9279 66.4593 20.8838C66.9994 20.8592 67.5376 20.9238 68.0724 21.0799C68.6072 21.236 69.0999 21.508 69.5471 21.8908C69.9966 22.275 70.362 22.7943 70.6467 23.4478C70.9291 24.1 71.0909 24.913 71.1296 25.8856L71.1555 26.5641L63.1495 26.9327L63.0946 25.5489L69.4764 25.2551C69.4532 24.6685 69.3176 24.1478 69.0646 23.6964C68.8139 23.2464 68.4703 22.8985 68.0351 22.6503C67.5985 22.4045 67.091 22.2922 66.5145 22.3207C65.8791 22.3495 65.3375 22.5321 64.8872 22.8672C64.437 23.2023 64.0989 23.6271 63.8707 24.1402C63.6425 24.6534 63.5409 25.1991 63.5626 25.7724L63.5997 26.6941C63.6308 27.4816 63.795 28.1403 64.0873 28.6735C64.3833 29.2058 64.7791 29.6026 65.2762 29.8615C65.7733 30.1205 66.3467 30.2366 66.9894 30.2058C67.409 30.1863 67.7855 30.1077 68.122 29.9749C68.4576 29.8384 68.745 29.6461 68.9822 29.3905C69.2205 29.1386 69.3999 28.8279 69.5205 28.4582L71.0797 28.8226C70.9393 29.3553 70.6848 29.8283 70.3162 30.2416C69.9476 30.655 69.488 30.9847 68.9329 31.2281C68.3765 31.4739 67.7486 31.6129 67.047 31.644L67.0526 31.6504Z" fill="black"/>
<path d="M77.2058 32.5246C76.2256 32.3201 75.4293 31.9257 74.8131 31.3425C74.1969 30.7594 73.7832 30.0345 73.5696 29.1666C73.3547 28.3011 73.3594 27.3443 73.5803 26.2973C73.8035 25.2517 74.1895 24.3686 74.7422 23.6472C75.2949 22.9257 75.9595 22.4122 76.7421 22.107C77.5223 21.8005 78.3737 21.7406 79.2897 21.933C79.8202 22.043 80.3247 22.2408 80.801 22.5251C81.2773 22.8094 81.6895 23.1939 82.0281 23.6791C82.3667 24.1643 82.5927 24.759 82.7059 25.463C82.8192 26.1671 82.7744 26.9948 82.5703 27.9486L82.4275 28.6139L74.5929 26.9816L74.8813 25.6247L81.1281 26.926C81.2509 26.3489 81.2463 25.8103 81.1165 25.3117C80.9844 24.8118 80.7392 24.3898 80.3776 24.0409C80.016 23.6919 79.5533 23.459 78.9896 23.3423C78.3677 23.2138 77.7965 23.2547 77.2806 23.4678C76.7633 23.6832 76.3304 24.0096 75.9829 24.4507C75.6354 24.8919 75.4006 25.395 75.2836 25.9567L75.0921 26.8617C74.9282 27.6332 74.9229 28.3124 75.0769 28.9029C75.231 29.4934 75.5157 29.9755 75.9333 30.3506C76.351 30.7257 76.8747 30.9814 77.505 31.1116C77.9168 31.1967 78.2991 31.215 78.658 31.1667C79.0169 31.1185 79.3417 31.0007 79.6347 30.8147C79.9277 30.6287 80.1783 30.3715 80.3865 30.0431L81.8055 30.7844C81.5372 31.2651 81.1757 31.6608 80.7173 31.9725C80.259 32.2842 79.7328 32.4882 79.1338 32.5879C78.5372 32.6889 77.8942 32.6666 77.2058 32.5246Z" fill="black"/>
<path d="M96.0914 24.356L97.6921 25.5543L94.5464 37.642L94.6762 37.7387L105.351 31.2846L106.952 32.4829L98.6256 43.6515L97.3706 42.7119L103.696 34.2264L103.588 34.1454L93.8018 40.0409L92.5892 39.1351L95.4513 28.0582L95.3434 27.9772L89.0181 36.4627L87.763 35.5232L96.0914 24.356Z" fill="black"/>
<path d="M102.076 49.0892C101.54 48.3187 101.255 47.5155 101.219 46.6783C101.182 45.841 101.382 45.0282 101.815 44.2408C102.248 43.4533 102.908 42.7501 103.79 42.1283C104.679 41.5046 105.569 41.121 106.457 40.9763C107.346 40.8353 108.173 40.9237 108.943 41.2465C109.712 41.5693 110.363 42.1135 110.899 42.8839C111.435 43.6544 111.72 44.4576 111.757 45.2948C111.793 46.132 111.592 46.9472 111.151 47.7366C110.713 48.5274 110.048 49.234 109.159 49.8578C108.279 50.4772 107.394 50.8574 106.509 50.9974C105.624 51.1375 104.797 51.0467 104.028 50.7239C103.258 50.4011 102.605 49.8556 102.071 49.0865L102.076 49.0892ZM103.253 48.261C103.661 48.8456 104.144 49.2208 104.706 49.3893C105.269 49.5555 105.858 49.559 106.471 49.3962C107.087 49.2347 107.68 48.9536 108.25 48.5506C108.82 48.1512 109.29 47.6868 109.657 47.1575C110.023 46.6306 110.229 46.0703 110.27 45.4801C110.311 44.8898 110.127 44.3013 109.723 43.7157C109.315 43.1312 108.83 42.7547 108.264 42.5931C107.698 42.428 107.106 42.4291 106.485 42.5939C105.866 42.76 105.27 43.0421 104.702 43.4429C104.129 43.8446 103.664 44.3079 103.299 44.8326C102.937 45.3585 102.736 45.9155 102.696 46.5034C102.657 47.0913 102.844 47.6788 103.248 48.2644L103.253 48.261Z" fill="black"/>
<path d="M105.556 54.5186L115.132 50.4058L115.732 51.8268L114.286 52.45L114.328 52.549C114.877 52.5201 115.393 52.6715 115.882 53.0036C116.368 53.3343 116.735 53.7862 116.976 54.3611C117.022 54.4688 117.076 54.6058 117.139 54.77C117.202 54.9341 117.247 55.0597 117.275 55.1446L115.778 55.7879C115.769 55.7331 115.741 55.6108 115.695 55.4223C115.647 55.2325 115.583 55.043 115.499 54.8451C115.304 54.3801 115.031 54.0049 114.684 53.7231C114.336 53.4413 113.95 53.2684 113.522 53.2053C113.096 53.1398 112.664 53.202 112.233 53.3861L106.172 55.9901L105.551 54.516L105.556 54.5186Z" fill="black"/>
<path d="M108.617 64.5142C108.415 63.5311 108.457 62.6368 108.747 61.8351C109.034 61.0321 109.534 60.3547 110.238 59.8048C110.942 59.255 111.818 58.8694 112.86 58.6454C113.901 58.4214 114.862 58.4185 115.739 58.6315C116.615 58.8446 117.348 59.2462 117.94 59.8401C118.529 60.4325 118.92 61.1911 119.11 62.1107C119.218 62.6407 119.238 63.185 119.167 63.7421C119.096 64.2992 118.908 64.8291 118.6 65.3401C118.293 65.8511 117.839 66.2995 117.242 66.6901C116.646 67.0808 115.871 67.378 114.922 67.5807L114.259 67.7214L112.639 59.8578L113.99 59.5694L115.28 65.8404C115.855 65.7176 116.343 65.4945 116.746 65.1701C117.15 64.8456 117.439 64.4481 117.614 63.973C117.789 63.4979 117.817 62.9781 117.701 62.4127C117.573 61.7875 117.308 61.2823 116.908 60.8925C116.507 60.5051 116.038 60.2405 115.496 60.1021C114.954 59.9637 114.404 59.9515 113.842 60.0726L112.939 60.2648C112.17 60.4283 111.549 60.7017 111.071 61.0835C110.594 61.4653 110.267 61.9245 110.088 62.4598C109.909 62.995 109.885 63.5826 110.017 64.2166C110.101 64.6292 110.237 64.9882 110.423 65.2982C110.609 65.6081 110.845 65.8594 111.132 66.0532C111.419 66.247 111.753 66.3711 112.134 66.4291L112.021 68.0339C111.475 67.9833 110.971 67.8108 110.506 67.5175C110.041 67.2242 109.646 66.8214 109.317 66.3138C108.988 65.8062 108.753 65.2062 108.61 64.5162L108.617 64.5142Z" fill="black"/>
<path d="M29.1411 48.1185C30.3905 48.8398 31.9922 48.4047 32.7186 47.1465C33.445 45.8883 33.021 44.2836 31.7716 43.5623C30.5221 42.8409 28.9204 43.276 28.194 44.5342C27.4676 45.7924 27.8916 47.3971 29.1411 48.1185Z" fill="black"/>
<path d="M109.494 94.5101C110.743 95.2314 112.345 94.7963 113.071 93.5381C113.798 92.2799 113.374 90.6752 112.124 89.9539C110.875 89.2325 109.273 89.6676 108.547 90.9258C107.82 92.184 108.244 93.7887 109.494 94.5101Z" fill="black"/>
</svg>
