<?xml version="1.0" encoding="utf-8"?>
<!-- Generator: Adobe Illustrator 27.4.0, SVG Export Plug-In . SVG Version: 6.00 Build 0)  -->
<svg version="1.1" id="Layer_1" xmlns="http://www.w3.org/2000/svg" xmlns:xlink="http://www.w3.org/1999/xlink" x="0px" y="0px"
	 viewBox="0 0 787.8 322.7" style="enable-background:new 0 0 787.8 322.7;" xml:space="preserve">
<style type="text/css">
	.st0{fill:#FFF8E9;}
</style>
<g>
	<path class="st0" d="M787.7,98c-35.2,0-69.8,0-104.7,0c-0.1-1.6-0.2-2.9-0.2-4.3c0-15,0-30,0-45c0-6.5-3.1-10.4-9.4-12.2
		c-6.4-1.8-13.6,0.4-16.3,5.2c-0.9,1.5-1.4,3.5-1.4,5.3c-0.1,43.6,0,87.3-0.1,130.9c0,5.9,5.9,11.4,13.9,11
		c8.9-0.4,13.6-5.8,13.4-14.2c-0.4-15.6-0.1-31.3-0.1-46.9c0-1.5,0-2.9,0-4.8c35.2,0,69.8,0,104.8,0c0,5.1,0.1,10.1,0,15.1
		c-0.4,15.5,0.2,31.1-1.7,46.4c-3,23.3-16.5,41.6-43.2,46.1c-5,0.8-10.2,0.4-15.3,0.4c-43,0-86,0-129,0c-12.4,0-24.1-2.6-34.5-9.5
		c-14.9-10-21.6-24.9-23.4-42.1c-0.8-7.8-0.6-15.7-0.6-23.6c0-30,0.1-60-0.1-90c-0.1-11.4,1.1-22.4,5.7-32.9
		c8.4-19.5,23.9-29.5,44.5-32c5.3-0.7,10.7-0.8,16.1-0.8c42.1-0.1,84.3,0,126.4,0c25.1,0,46.7,16.9,52.1,41.3
		c1.8,8,2.6,16.3,2.9,24.4C788.1,76.4,787.7,87,787.7,98z"/>
	<path class="st0" d="M0.7,230.6c3.6-8.3,7-16.5,10.5-24.6C37.1,145.8,63,85.6,88.8,25.4c3.3-7.6,6.6-15.1,9.7-22.7
		c0.8-1.8,1.7-2.7,3.8-2.7c58,0.1,116,0.1,174,0.1c0.5,0,1,0.1,1.7,0.2c0,76.7,0,153.4,0,230.4c-32.7,0-65.3,0-98.4,0
		c0-2,0-3.7,0-5.4c0-56.6,0-113.3,0-169.9c0-6.8-3.9-10.7-11.1-10.4c-6.7,0.3-11.1,3.1-11,10.3c0.2,21.5,0.2,43,0,64.5
		c-0.1,4.1-1.4,8.3-2.8,12.2c-12.1,32-24.4,63.8-36.6,95.8c-0.7,1.8-1.2,3.2-3.8,3.2c-37.2-0.1-74.5-0.1-111.7-0.1
		C2.1,230.9,1.6,230.8,0.7,230.6z"/>
	<path class="st0" d="M291.7,130c34.4,0,68.5,0,102.9,0c0.1,1.6,0.2,2.9,0.2,4.2c0,15,0,30,0,45c0,10.4,6.1,16,16.6,15.1
		c2-0.2,4-0.6,5.8-1.3c5.9-2,7.9-4.9,7.9-11.1c0-52,0-104,0-156c0-6.9,0-13.8,0-20.6c0-1.6,0.2-3.2,0.3-5c33.8,0,67.2,0,101.2,0
		c0.1,1.3,0.2,2.6,0.2,3.9c0,53.6,0,107.3,0,160.9c0,16.1-3.9,31.2-13.5,44.4c-8.7,11.9-20.8,18.5-35.2,20.6
		c-4.8,0.7-9.7,0.9-14.6,0.9c-34.3,0-68.5,0.7-102.7-0.4c-20.1-0.6-38.8-7.2-53.4-22.1c-10.1-10.3-15.2-22.9-15.8-37.1
		c-0.6-13.2-0.1-26.5-0.1-39.8C291.4,131.2,291.6,130.8,291.7,130z"/>
</g>
<path class="st0" d="M85.4,269.3c6.7-30.3,47.5-39.5,65.3-13.6c15.6,24.2,4.9,65.3-27.5,66.6C93.8,325.3,78.6,295,85.4,269.3z
	 M137.5,265.4c-12-20.7-36.6-8.6-36.9,12.9c-1,11.4,3.1,26.3,15.6,29.6c8.6,2.3,18-2.3,21.5-10.4C142.5,287.8,142.6,275,137.5,265.4
	z"/>
<path class="st0" d="M234.3,241.8c9.8-1.5,20.1-0.8,29.3,3c0.7,0.4,2.2,0.7,1.8,1.8c-0.7,3.9-2.3,7.5-3.1,11.3
	c-0.1,0.8-0.3,1.6-1.4,1.6c-11.6-6.2-28.4-6.2-37.9,3.9c-8.6,10.8-8.5,28.5,1.6,38.3c6.7,6.6,17.3,7,26,5.4
	c2.1-0.4,0.4-12.6,0.9-15.2c0-1.2-0.2-1.4-1.4-1.4c-4.2,0-8.4,0-12.5,0c-2.1,0.7-0.5-10.7-1.1-12.7c0-0.9,0.3-1.2,1.2-1.1
	c9.3,0,18.6-0.1,27.9,0c1.8,0,1.7-0.3,1.7,1.8c0,12.9,0.1,25.7,0,38.6c0,0.4,0.1,0.9-0.5,0.7c-10.2,2.7-20.9,5.5-31.7,3.9
	C188.6,317.7,189.3,248.3,234.3,241.8z"/>
<path class="st0" d="M739.6,302.2c7.2,4,15.4,7.5,23.9,5.4c7.5-1.3,9.8-11.9,3.4-16c-9.7-6.2-23.6-8.1-28.1-20.3
	c-1.2-3.7-1.8-7.8-1.2-11.7c0.5-3.3,2-6.4,4.1-9.1c2.1-2.6,4.9-4.7,7.9-6.3c3.2-1.6,6.7-2.7,10.2-3.3c3.7-0.6,7.4-0.6,11.1-0.1
	s7.3,1.5,10.6,3.2c0.8,0.4,1.7,0.7,2.3,1.3c0.7,0.7,0.5,1.6,0.3,2.4c-1,3.6-2.3,7.2-3.9,10.6c-0.3,0.7-0.7,1.1-1.5,0.6
	c-4.7-2.9-10.3-4.4-15.8-4.2c-1.8,0.1-3.6,0.3-5.2,1.2c-1.5,0.8-2.6,2.1-3.3,3.6c-0.9,1.8-1.2,4-0.4,5.9c0.8,2,2.7,3.4,4.5,4.5
	c5.3,3.2,11.4,4.9,16.7,8c3.4,1.9,6.4,4.5,8.4,7.9c13.1,26.5-14.6,42.5-38.4,34.7c-15.1-4.5-10.4-5.4-6-18.1l0.1-0.2
	C739.5,302.3,739.5,302.3,739.6,302.2z"/>
<path class="st0" d="M385,244.1c10.7-5.1,23.8-4,34.4,1.4c2.1,1.1-2.8,10.1-3.5,13.4c-0.2,0.8-0.6,0.9-1.3,0.5
	c-3.4-2.2-7.2-3.5-11.1-4.2c-9.4-2.6-20.6,6.3-10.7,14.2c8.1,5.6,19.3,6.8,25.4,15.2c12.9,20.2-4.2,39.7-26.3,38
	c-4.1,0-23.9-3.3-20.3-9.3c0.3-0.7,0.5-1,1-2.3c6.1-14.5-0.9-7.3,14.7-3.6c4.6,1.1,9,1.2,13.5-0.5c6.6-2.3,7.3-11.5,1.7-15.3
	c-6.5-4.7-14.8-5.7-21-11c-12-8.3-10.9-27.5,1.2-35.1C383.4,245.1,384.2,244.6,385,244.1z"/>
<path class="st0" d="M635.3,261.9c7.5-15.3,25.2-22.8,41.7-21.1c5.6,0.4,11.1,1.5,16,4.2c1.6,1.1-1.8,7.5-1.9,9.5
	c-1.7,11-5.3-3.6-27.3,1.7c-7.7,2.3-14,8.9-15.6,16.8c-6.4,27.2,14.7,42.6,39.4,31.7c1.6-0.6,2.5-1.4,2.8,0.8c0.4,1.7,1,3.4,1.3,5.1
	c0.1,2.3,3.4,6.6,0.3,7.7c-11,5.3-24,5.3-35.7,2.4C632.2,313.4,624.7,282.9,635.3,261.9z"/>
<path class="st0" d="M524.6,256.6c-6.9-0.6-13.9-0.1-20.8-0.3c-0.6,0-1.8-0.2-1.7,0.7c0.4,20.2,0,40.5,0.1,60.7
	c-0.2,1.2,0.8,3.6-1,3.7c-4.7,0-9.4,0-14.1,0c-0.6,0-0.7-0.1-0.8-0.7c-0.4-12.6,0.3-25.3-0.1-37.9c-0.1-8.4,0-16.8-0.1-25.3
	c0-0.9-0.2-1.2-1.2-1.2c-6.9-0.1-14.3,0.3-21.1-0.1c-0.3-4.3,0-9-0.1-13.4c0-0.7,0.1-1,1-1c20,0.2,40.2-0.3,60.2,0.2
	c0,4.2,0,8.4,0,12.6C524.9,255.3,525.3,256,524.6,256.6z"/>
<path class="st0" d="M0.1,249.6c0.1-2.5-0.3-4.9,0-7.4c0-0.5,0.5-0.4,0.8-0.4c4.9,0,9.8,0,14.8,0c1.1,21,0,42.6,0.4,63.7
	c-0.1,1.6-0.1,1.6,1.5,1.6c9.5,0,19,0,28.6,0c1.5,0,1.5,0,1.5,1.5c0,4,0,8,0,12c0,0.7-0.2,0.8-0.8,0.8c-15.3,0-30.5,0-45.8,0
	c-0.7,0-0.8-0.2-0.8-0.9C0.1,296.9,0.2,273.3,0.1,249.6z"/>
<path class="st0" d="M571.1,241.8c4.6,0,9.1,0,13.7,0c1.5,0,1.3-0.2,1.3,1.3c0,25.7,0,51.3,0,77c0,1.4,0,1.4-1.3,1.4
	c-3.9,0-7.7,0-11.6,0c-1.2-0.3-3.5,0.7-3.2-1.2c0-25.9,0-51.7,0-77.6C569.8,241.9,570.4,241.6,571.1,241.8z"/>
<path class="st0" d="M315,241.8c1.9,0.5,14-1.1,13.1,1.1c0,25.6,0,51.2,0,76.8c0,0.9,0.2,2-1.1,1.8c-4.6,0-9.3,0-13.9,0
	c-1.6,0.6-0.6-6.1-0.9-7.3c0-22.7,0-45.5,0-68.2C312.5,243.1,311,241.3,315,241.8z"/>
</svg>
