<?xml version="1.0" encoding="utf-8"?>
<!-- Generator: Adobe Illustrator 27.4.0, SVG Export Plug-In . SVG Version: 6.00 Build 0)  -->
<svg version="1.1" id="Layer_1" xmlns="http://www.w3.org/2000/svg" xmlns:xlink="http://www.w3.org/1999/xlink" x="0px" y="0px"
	 viewBox="0 0 1046.2 616" style="enable-background:new 0 0 1046.2 616;" xml:space="preserve">
<style type="text/css">
	.st0{fill:#FFF8E9;}
</style>
<g>
	<g>
		<path class="st0" d="M440.7,229.3c0.1-0.1,0.2-0.2,0.3-0.3l0.1-0.1c0-0.3,0-0.6-0.1-0.9c-0.4-0.3-0.8-0.6-1.1-1
			c-12.7-12.7-25.4-25.4-38-38c-0.4-0.4-0.7-0.8-1.1-1.2c-0.1-0.1-0.2-0.2-0.3-0.3c-1-1.8-1-2.6,0.6-4.2
			c5.2-5.3,10.5-10.6,15.7-15.9c0.1-0.1,0.2-0.2,0.3-0.3l0.1-0.1c0.1-0.1,0.2-0.2,0.4-0.4c0.5-0.5,0.9-1,1.4-1.5
			c6.3-6.4,12.5-12.8,18.8-19.2c0.8-0.8,1.6-1.5,2.4-2.3c0.3-0.6,0.7-1.2,1-1.8c-0.6-0.5-1.1-1-1.7-1.6
			c-14.7-14.7-29.5-29.5-44.2-44.2c-6.8-6.8-13.5-13.5-20.3-20.3c-0.5-0.5-1.1-1-1.8-1.5c-18.5,25-30.3,52.6-34.5,83.1
			c-5.1,36.5-0.9,72,14.7,105.7c5.4,11.8,11.8,23.1,19.9,33.5c0.8-0.8,1.4-1.3,2-1.9c21.3-21.3,42.5-42.5,63.8-63.8
			C439.5,230.3,440.1,229.8,440.7,229.3z"/>
		<path class="st0" d="M707.4,159.1c-1-6.2-2.3-12.4-3.7-18.5c-2.6-11.1-6.4-21.8-11.3-32.2c-2-4.3-3.8-8.7-6.2-12.8
			c-2.9-5.1-6.3-9.9-9.5-14.8c-1.2-1.9-2.6-3.7-4-5.7c-22.9,22.8-45.6,45.4-68.4,68.1c0.8,0.6,1.4,1.1,1.9,1.7
			c12.4,12.4,24.9,24.8,37.3,37.3c0.6,0.6,1.2,1.2,1.8,1.8c0.9,1,1.1,2,0.3,3.1c-0.4,0.6-1,1.2-1.5,1.7c-12.7,12.7-25.3,25.3-38,38
			c-0.5,0.5-1,1.1-1.7,1.8c1.3,1.3,2.6,2.5,3.8,3.7c3.7,3.6,7.3,7.3,11,10.9c0.1,0.1,0.2,0.2,0.4,0.4l0.1,0.1
			c0.1,0.1,0.2,0.2,0.4,0.4l0.1,0.1c0.1,0.3,0.3,0.5,0.4,0.8c7.7,7.7,15.3,15.4,23,23.1c0.4,0.4,0.8,0.8,1.2,1.2
			c3.8,3.8,7.6,7.5,11.4,11.3c0.1,0.1,0.2,0.2,0.4,0.4l0.1,0.1c0.1,0.1,0.2,0.2,0.3,0.3c0.6,0.7,1.1,1.4,1.8,2
			c4.6,4.7,9.3,9.4,13.9,14.1c0.1,0,0.3-0.1,0.4-0.1l0.1-0.1c0.1-0.1,0.2-0.3,0.3-0.4c0.4-0.6,0.8-1.3,1.2-1.9
			c4.8-6.7,9.3-13.7,13.1-21.1c2.2-4.3,4.3-8.7,6.3-13.1c3.3-7.2,5.9-14.7,8.1-22.4c2.5-8.8,4.4-17.8,5.6-26.9
			c0.8-5.8,1.4-11.6,1.6-17.5C709.7,182.3,709.3,170.6,707.4,159.1z"/>
		<path class="st0" d="M521.6,59.4c0.4,0.4,0.9,0.6,1.3,0.9c0.2-0.1,0.3-0.1,0.5-0.2c0.4-0.5,0.8-1,1.2-1.4
			c16.6-16.6,33.2-33.2,49.8-49.8c0.4-0.4,1-0.8,1.4-1.2c0-0.2-0.1-0.3-0.1-0.5c-1.3-0.4-2.6-0.8-3.9-1.2c-0.3-0.1-0.5-0.2-0.8-0.3
			c-2.5-0.6-5-1.2-7.5-1.8c-0.4-0.1-0.8-0.2-1.3-0.3c-0.1,0-0.3,0-0.4-0.1c-31.2-4.8-62-5.7-92.4,3.7c0.3,0.4,0.4,0.6,0.6,0.7
			C487.2,25,504.4,42.2,521.6,59.4z"/>
		<path class="st0" d="M624.2,305.2c-15.3-15.3-30.6-30.6-45.9-45.9c-0.3-0.3-0.6-0.6-0.9-0.9c-1.1-1-1.2-1-2.2,0
			c-2.6,2.5-5.1,5.1-7.7,7.7c-4.9,4.9-9.9,9.9-14.8,14.8c21.7,21.7,43.3,43.3,65.1,65.1c9.5-5.8,18.9-12.1,27.8-19.9
			c-0.7-0.6-1.4-0.9-1.8-1.4C637.2,318.3,630.7,311.8,624.2,305.2z"/>
		<path class="st0" d="M575.9,113.3c0.3-0.3,0.6-0.9,1-1.4c22.1-22.1,44.2-44.2,66.2-66.2c0.4-0.4,0.8-0.9,1.2-1.4
			c-0.1-0.1-0.2-0.3-0.3-0.4c-2.5-2-5.1-4-7.6-6.1c-5.4-4.4-11.2-8.1-17-11.8c-0.9-0.5-1.8-1-2.3-1.3
			c-21.8,21.8-43.4,43.3-64.9,64.8C559.9,97.4,567.8,105.2,575.9,113.3z"/>
		<path class="st0" d="M471.4,112.9c7.5-7.5,15-15,22.5-22.5c0.3-0.3,0.4-0.8,0.6-1.2c-0.4-0.3-0.8-0.6-1.1-0.9
			c-20.8-20.8-41.7-41.7-62.5-62.5c-0.3-0.3-0.5-0.6-0.8-0.9c-1.6,0.8-3.3,1.5-4.8,2.5c-6.3,4-12.5,8.3-18.3,12.9
			c-1.7,1.3-3.2,2.8-4.8,4.2c23,23,45.9,45.9,68.8,68.8C471,113.1,471.2,113,471.4,112.9z"/>
		<path class="st0" d="M468.3,307.6c0.1-0.1,0.2-0.2,0.3-0.3c0.3-0.4,0.6-0.8,0.9-1.1c7.7-7.7,15.4-15.5,23.2-23.2
			c0.3-0.3,0.7-0.6,1.1-0.9c0.2-0.2,0.5-0.3,0.7-0.5c0-0.1,0-0.2,0-0.4c-0.1-0.2-0.2-0.3-0.3-0.5c-0.3-0.3-0.7-0.5-1-0.8
			c-6.5-6.5-13-12.9-19.4-19.4c-0.8-0.8-1.5-1.6-2.2-2.4c-0.4-0.5-0.9-0.5-1.3,0.1l0,0c-0.5,0.4-1,0.8-1.4,1.2
			c-21.7,21.7-43.4,43.4-65.1,65.1c-0.5,0.5-0.9,1.1-1.3,1.6c-0.1,0-0.2,0-0.3,0.1c0.1,0,0.2,0,0.3,0c0,0,0,0,0-0.1v0.1v0.1h0.1
			c0.1,0.1,0.2,0.3,0.3,0.4c0.6,0.6,1.3,1.1,1.9,1.7c0.2,0.2,0.4,0.5,0.6,0.7c0.6,0.5,1.2,0.9,1.8,1.4c0.4,0.3,0.7,0.6,1.1,0.9
			c0.1,0.1,0.3,0.3,0.4,0.4c0.3,0.2,0.6,0.5,0.8,0.7c0.4,0.3,0.9,0.6,1.3,0.9c0.4,0.3,0.8,0.6,1.2,0.9c0.2,0.1,0.3,0.3,0.5,0.4
			c0.3,0.1,0.5,0.3,0.8,0.4l0,0c0.1,0.1,0.3,0.3,0.4,0.4l0,0c0.3,0.2,0.6,0.5,0.8,0.7c0.3,0.2,0.6,0.4,0.9,0.5
			c0.3,0.1,0.5,0.3,0.8,0.4l0,0c0.1,0.1,0.3,0.3,0.4,0.4l0,0c0.3,0.2,0.6,0.5,0.8,0.7c0.1,0.1,0.2,0.1,0.4,0.1
			c0.3,0.2,0.6,0.5,0.9,0.7c0.1,0.1,0.2,0.1,0.4,0.1c0.3,0.2,0.6,0.5,0.9,0.7c0.1,0.1,0.2,0.1,0.4,0.1c0.3,0.2,0.6,0.5,0.9,0.7
			c0.1,0.1,0.2,0.1,0.4,0.1c0.3,0.2,0.6,0.5,0.9,0.7c0.1,0.1,0.2,0.1,0.4,0.1c0.3,0.2,0.6,0.5,0.9,0.7c0.1,0,0.3,0.1,0.4,0.1
			c0.3,0.1,0.6,0.2,0.8,0.4l0,0c0.3,0.2,0.5,0.5,0.8,0.7c0.1,0.1,0.2,0.1,0.4,0.1c0.3,0.2,0.6,0.5,0.9,0.7c0.1,0.1,0.3,0.1,0.4,0.1
			c0.3,0.1,0.6,0.3,0.9,0.4l0,0c0.3,0.2,0.6,0.5,0.8,0.7c1.2,0.1,1.7-0.9,2.3-1.5c11.9-11.9,23.8-23.8,35.7-35.6
			C467.6,308.4,467.9,308,468.3,307.6z"/>
		<path class="st0" d="M446.6,137.7c6.3-6.6,12.7-13.2,18.8-19.4c-23-23-45.8-45.8-68.7-68.7c-0.3,0.2-0.8,0.7-1.4,1.1
			c-0.3,0.1-0.5,0.2-0.8,0.4c-2.4,2.4-4.8,4.8-7.2,7.2c-0.1,0.2-0.2,0.4-0.3,0.5c0,0.1,0,0.2-0.2,0.3c-0.1,0.1-0.2,0.2-0.3,0.3
			c-0.4,0.4-0.9,0.9-1.3,1.3c-1,1.1-2,2.2-3,3.4c-0.1,0.1-0.2,0.2-0.3,0.3c-1.5,1.3-3,2.7-4.3,3.9C378.5,70,443.5,135.2,446.6,137.7
			z"/>
		<path class="st0" d="M464,250.1c-0.1-0.1-0.2-0.2-0.3-0.3l-0.1-0.1c-0.1-0.1-0.2-0.2-0.3-0.3c-3.2-3.4-6.5-6.8-9.7-10.1
			c-0.1-0.1-0.2-0.2-0.3-0.3l-0.1-0.1c-0.1-0.1-0.2-0.2-0.3-0.3c-1.9-1.8-3.7-3.7-5.3-5.2c-23.1,23-45.9,45.9-68.9,68.8
			c1.7,1.9,3.6,3.9,5.5,5.9c0.1,0.1,0.3,0.2,0.4,0.3v0.1c0.6,0.6,1.1,1.1,1.7,1.7c0.1,0.1,0.2,0.2,0.3,0.3s0.1,0.3,0.2,0.4
			c0.1,0.1,0.2,0.1,0.3,0.1l-0.1,0.1l0.1-0.1l0,0c0.7,0.8,1.5,1.6,2.2,2.4c0.1,0.1,0.2,0.2,0.3,0.3c1.6,1.6,3.1,3.1,4.7,4.7
			c0.1,0.1,0.2,0.2,0.3,0.3c0.5,0.4,1,0.9,1.5,1.3l0.1,0.1c0.6,0.4,1.1,0.8,1.9,1.4c22.9-22.8,45.8-45.6,68.7-68.4
			C465.5,251.9,464.7,251,464,250.1z"/>
		<path class="st0" d="M581.5,118c-0.1,0.2-0.2,0.3-0.4,0.5c0.4,0.5,0.7,1.2,1.2,1.6c5.5,5.5,11,11,16.5,16.5c0.3,0.3,0.7,0.6,1.1,1
			c0.6-0.5,1-0.9,1.5-1.3c5.4-5.4,10.9-10.7,16.3-16.1c0.5-0.5,1-0.9,1.5-1.4c0.1-0.1,0.2-0.2,0.4-0.4l0,0c0.1-0.1,0.2-0.2,0.4-0.4
			l0,0c0.1-0.1,0.2-0.2,0.4-0.4c0.1-0.2,0.3-0.3,0.4-0.5c12-11.9,24.1-23.8,36.1-35.8c0.2-0.2,0.5-0.4,0.8-0.7
			c0.1-0.1,0.2-0.2,0.4-0.4l0.1-0.1c0.1-0.1,0.2-0.2,0.3-0.3c3.3-3.5,7-6.7,10.3-10.4c-6.1-7-12.1-13.7-19.3-20
			c-0.6,0.8-1.1,1.6-1.6,2.2c-21.5,21.6-43.1,43.1-64.7,64.7C582.7,117,582.1,117.5,581.5,118z"/>
		<path class="st0" d="M599.7,234c-0.8,0.9-1.5,1.9-2.3,2.9c-0.1,0.1-0.2,0.2-0.3,0.3c-0.6,0.6-1.1,1.2-1.7,1.8c-1,1.1-2,2.2-3,3.3
			c-0.1,0.1-0.2,0.2-0.3,0.4c-0.6,0.6-1.2,1.2-1.7,1.8c-0.9,1-1.7,1.9-2.6,2.9c-0.1,0.1-0.2,0.2-0.3,0.3c-1.4,1.4-2.9,2.9-4.3,4.3
			c-0.1,0.2-0.2,0.3-0.3,0.5c0,0.2,0,0.3-0.2,0.3c-0.1,0.1-0.2,0.2-0.3,0.3c-0.3,0.5-0.6,1,0,1.5c0.4,0.3,0.7,0.7,1,1
			c17.8,17.7,35.6,35.3,53.4,53c2.3,2.3,4.5,4.5,6.8,6.8c2,2,4,4,6.1,6.1c1.1,1.1,1.2,1.1,2.3,0c0.8-0.8,1.4-1.6,2.2-2.5
			c2.5-2.8,5-5.6,7.6-8.4c0.2-0.2,0.4-0.3,0.6-0.5c2.2-2.4,4.3-4.8,6.4-7.2C666.8,300.2,601.1,234.8,599.7,234z"/>
		<path class="st0" d="M530,67.8c3.5,3.5,7.1,7.1,10.6,10.6c2.2,2.2,4.4,4.4,6.5,6.5c21.2-21.2,42.3-42.3,63.5-63.5
			c-8.6-4.7-17.5-8.5-26.8-11.4c-1.7,1.7-3.4,3.4-5,5.1c-16.3,16.3-32.5,32.5-48.8,48.8C528.1,65.9,528.1,65.9,530,67.8z"/>
		<path class="st0" d="M518.4,65.9c-0.5-0.5-0.9-1-1.3-1.4c-17.5-17.5-34.9-34.9-52.4-52.4c-0.5-0.5-1-1.1-1.6-1.7
			c-0.4,0-0.8-0.1-1.2-0.1c-1.6,0.6-3.1,1.1-4.7,1.7c-6.3,2.4-12.5,4.8-18.4,7.9c-1,0.5-2,1.1-2.9,1.5
			c21.3,21.3,42.4,42.4,63.4,63.4C505.6,78.6,512,72.3,518.4,65.9z"/>
		<path class="st0" d="M517.2,306.7c0.1-0.1,0.2-0.2,0.3-0.3c0.2-0.2,0.4-0.4,0.6-0.5c-0.1-0.3-0.2-0.6-0.3-0.9
			c-0.4-0.3-0.8-0.5-1.1-0.9c-5.3-5.2-10.5-10.5-15.8-15.8c-0.3-0.3-0.6-0.8-0.8-1.2c-0.2-0.1-0.3-0.2-0.5-0.3
			c-0.5,0.3-1.1,0.6-1.5,1c-7,6.9-14,13.7-21,20.6c-13.3,13.2-26.5,26.5-39.8,39.7c-0.5,0.5-0.9,1-1.6,1.7c2.2,1.2,4.2,2.4,6.2,3.3
			c2.9,1.4,5.8,2.7,8.8,3.9c3.5,1.4,7.1,2.7,10.7,4.1c0.7,0.3,1.2,0.2,1.7-0.2c0.5-0.6,1-1.1,1.5-1.7c17.3-17.3,34.6-34.6,51.9-51.9
			C516.8,307.3,517,307,517.2,306.7z"/>
		<path class="st0" d="M609.5,348.6c-14.5-14.4-29.1-28.8-43.6-43.2c-5.5-5.4-10.9-10.9-16.4-16.4c-0.5-0.5-1-1.2-1.4-1.7
			c-0.2-0.1-0.3-0.2-0.5-0.3c-0.6,0.4-1.3,0.8-1.8,1.3c-5,5-10,9.9-15,14.9c-0.8,0.8-1.7,1.6-2.4,2.2c18.7,18.7,37.2,37.2,56,55.9
			c8.2-3,16.8-6.6,25.2-10.6c0.4-0.3,1-0.6,0.7-1.3C610.2,349.1,609.8,348.9,609.5,348.6z"/>
		<path class="st0" d="M446.4,147.2c-2.4,2.2-4.8,4.4-7.1,6.7c-10,10-20,20-30,30c-0.4,0.4-0.7,0.8-1.2,1.4c0.9,0.8,1.7,1.5,2.4,2.2
			c2.2,2.1,4.3,4.3,6.5,6.4c0.1,0.1,0.2,0.2,0.3,0.3c0.9,1,1.8,2.1,2.8,3.1c3.4,3.5,6.9,7,10.4,10.5c2.3,2.3,4.7,4.7,7.1,7
			c0.1,0.1,0.2,0.2,0.4,0.4l0.1,0.1c0.1,0.1,0.2,0.2,0.3,0.3c2.6,2.7,5.2,5.5,7.9,8.2c0.1,0.1,0.4,0.1,0.6,0.1
			c0.2-0.1,0.3-0.2,0.5-0.3c0.5-0.6,1-1.1,1.6-1.7c5.2-5.2,10.3-10.3,15.5-15.5c0.5-0.5,0.9-1,1.5-1.6c-3.7-3.7-7.3-7.3-10.9-10.8
			c-2-2-4-4.1-6-6.1c-0.1-0.1-0.2-0.2-0.3-0.4c-1-1.9-1-2.5,0.6-4.2c4.9-5.2,9.9-10.3,14.9-15.5c0.1-0.1,0.2-0.2,0.3-0.3l0.1-0.1
			c0.1-0.1,0.2-0.2,0.3-0.3c0.3-0.4,0.5-0.8,0.7-1.1c-4.5-4.6-8.9-9.1-13.4-13.6c0,0,0,0.1-0.1,0.1l-0.1-0.1l0.1-0.1
			c-1.8-1.8-3.6-3.5-5.4-5.3C446.6,147.1,446.5,147.1,446.4,147.2z"/>
		<path class="st0" d="M638,185.4c-0.3-0.3-0.8-0.8-1.2-1.3c-3.2-3.2-6.3-6.3-9.5-9.5c-8.7-8.6-17.5-17.2-26.2-25.8
			c-0.3-0.3-0.8-0.6-1.1-0.9c-0.1,0.1-0.3,0.1-0.4,0.2c-1.5,1.5-2.9,3-4.4,4.5c-4.5,4.5-9.1,9-13.6,13.5c-0.1,0.4-0.1,0.8-0.2,1.2
			c5.3,5.3,10.6,10.5,15.8,15.8c2.1,2.1,2.1,3.1,0,5.2c-4.9,4.9-9.8,9.8-14.7,14.6c-0.6,0.6-1.3,1-1.7,1.3c6.6,6.6,13,13,19.1,19.1
			C612.5,210.9,625.2,198.2,638,185.4z"/>
		<path class="st0" d="M490.2,219.7c1.4,1.4,2.9,2.8,4.4,4.2c0.3-0.1,0.5-0.2,0.8-0.4c0.5-0.6,1-1.1,1.6-1.7
			c6.6-6.7,13.3-13.3,20-20c0.5-0.5,1-1.1,1.7-1.7c-2.2-2.1-4.2-4-6.1-6c-2-2-4.1-4-6-6.1c-1.4-1.4-2.1-2.6,0-4.8
			c1.8-1.8,3.6-3.7,5.5-5.5c2.2-2.1,4.4-4.3,6.6-6.4c-8-8-15.8-15.8-23.7-23.6c-2.2,2-4.5,4-6.6,6.1c-3.7,3.7-7.4,7.4-11.1,11.1
			c-1.7,1.7-1.7,1.7-0.1,3.3c0.7,0.7,1.4,1.4,2.1,2.1c4.4,4.4,8.9,8.9,13.3,13.3c1.3,1.3,1.3,2.5,0.1,4c-0.3,0.4-0.7,0.7-1,1
			c-4.7,4.7-9.5,9.5-14.2,14.2c-1.9,1.9-1.9,1.9,0.1,3.9C481.6,211.1,485.9,215.4,490.2,219.7z"/>
		<path class="st0" d="M570.8,204.6c-0.2-0.2-0.6-0.6-1-1c-4.9-4.9-9.7-9.8-14.6-14.7c-0.4-0.4-0.9-0.9-1.3-1.4
			c-1.1-1.5-1.1-2.5,0.2-3.9c1.4-1.4,3-2.7,4.4-4.1c0.1-0.1,0.2-0.2,0.4-0.4l0.1-0.1c0.1-0.1,0.2-0.2,0.3-0.3c3-2.8,5.9-5.6,8.9-8.5
			c0.1-0.1,0.2-0.2,0.4-0.4l0.1-0.1c0.1-0.1,0.2-0.2,0.3-0.3c0.9-0.9,1.8-1.9,2.8-2.8c-2.5-2.5-4.9-5-7.4-7.5
			c-0.1-0.1-0.2-0.2-0.3-0.3l-0.1-0.1c-0.1-0.1-0.2-0.2-0.3-0.3l-0.1-0.1c-0.1-0.1-0.2-0.2-0.4-0.3c-3.6-3.5-7.3-6.9-11-10.5
			c-2,1.8-3.9,3.6-5.8,5.5c-4,4-8,8.1-12.1,12.1c-1.8,1.8-3.7,3.6-5.5,5.4c-0.1,0.2-0.2,0.4-0.3,0.6c0.5,0.6,0.9,1.2,1.4,1.8
			c3.7,3.7,7.4,7.4,11.1,11.1c1.2,1.2,1.1,2.2,0,3.4c-2.3,2.2-4.5,4.5-6.8,6.8c-2,1.9-4,3.8-6,5.8c8,8.2,15.8,16.1,23.4,23.9
			C558.1,217.3,564.4,211,570.8,204.6z"/>
		<path class="st0" d="M547.1,228.3c-0.3-0.3-0.8-0.8-1.2-1.3c-6.5-6.6-13.1-13.1-19.7-19.6c-0.6-0.6-1.3-1.2-2-1.8
			c-0.4-0.5-0.8-0.6-1.2,0c-2.8,2.8-5.6,5.6-8.4,8.4c-0.1,0.1-0.2,0.2-0.3,0.3c-4.7,4.7-9.3,9.5-14.1,14.3
			c7.9,8,15.7,15.8,23.3,23.3C531.3,244.1,539.1,236.2,547.1,228.3z"/>
		<path class="st0" d="M545.8,140.6c-5.3-5.3-10.6-10.5-15.8-15.8c-1.7-1.7-3.4-3.5-5.2-5.2c-1.1-1.1-1.6-1-2.5,0.2
			c-0.6,0.7-1.1,1.4-1.7,2.1c-6.2,6.3-12.5,12.5-18.8,18.8c-0.5,0.5-1,1-1.3,1.4c7.9,7.9,15.7,15.7,23.3,23.3
			c7.7-7.7,15.5-15.5,23.6-23.5C546.9,141.5,546.3,141.1,545.8,140.6z"/>
		<path class="st0" d="M477.3,255.7c6.8,6.8,13.6,13.6,20.4,20.4c0.4,0.4,0.9,0.8,1.5,1.4c6.4-6.7,12.8-13.3,19.6-20.3
			c-0.9-0.6-1.6-1-2.2-1.6c-6.6-6.5-13.1-13.1-19.7-19.7c-0.5-0.5-1-1.1-1.5-1.7c-0.4-0.1-0.8-0.1-1.2-0.2c-1.1,1.2-2.1,2.4-3.2,3.6
			c-0.1,0.1-0.2,0.2-0.3,0.3l-0.1,0.1c-0.1,0.1-0.2,0.2-0.3,0.4c-1,1-2.1,2-3,3.1c-2.2,2.3-4.4,4.7-6.7,7.1
			c-0.1,0.1-0.2,0.2-0.3,0.3c-1.2,1.2-2.3,2.4-3.5,3.5c-1.1,1-1.2,1.4-0.2,2.6C476.8,255.2,477,255.5,477.3,255.7z"/>
		<path class="st0" d="M498.3,95.6c-3.3,3.3-6.5,6.5-9.8,9.8c-3.9,3.9-7.8,7.8-11.7,11.7c-1.4,1.4-1.4,1.6,0,3c2,2,4,4,6.1,6.1
			c3.5,3.5,7.1,7.1,10.6,10.6c1.1,1.1,1.3,1,2.2-0.2c0.4-0.5,0.8-0.9,1.3-1.4c6.6-6.6,13.2-13.2,19.8-19.8c0.5-0.5,0.9-1,1.3-1.4
			c-6.4-6.4-12.7-12.7-19.1-19.1C498.8,95.2,498.5,95.4,498.3,95.6z"/>
		<path class="st0" d="M546.4,95.7c-5.6,5.6-11.2,11.2-16.8,16.8c-0.2,0.2-0.6,0.5-0.7,0.8c-0.1,0.5-0.1,1,0,1.5
			c0.2,0.4,0.6,0.7,1,1.1c6.8,6.8,13.7,13.7,20.5,20.5c0.4,0.4,0.9,0.8,1.2,1.1c6.4-6.4,12.8-12.8,19-19
			c-7.7-7.7-15.5-15.5-23.4-23.4C546.9,95.2,546.6,95.4,546.4,95.7z"/>
		<path class="st0" d="M547.4,276.7c8.1-7.9,16-15.7,23.9-23.4c-3.4-4-18.2-18.6-19.6-19.3c-0.1,0.1-0.2,0.1-0.3,0.2
			c-7.4,7.3-14.7,14.7-22,22c-1.2,1.2-1.2,1.4,0.2,2.7c5.5,5.5,10.9,10.9,16.4,16.4C546.3,275.8,546.7,276.2,547.4,276.7z"/>
		<path class="st0" d="M471.5,123c-0.4-0.1-0.9-0.2-1.3,0c-0.4,0.1-0.6,0.5-0.9,0.8c-5.9,5.9-11.7,11.7-17.6,17.6
			c-0.3,0.3-0.5,0.6-0.8,1c0.4,0.3,0.6,0.5,0.9,0.8c0.2,0.1,0.3,0.1,0.5,0.2c0.1,0.1,0.2,0.2,0.3,0.3c0.5,0.5,1,1.1,1.4,1.6
			c1.1,1,2.2,1.9,3.3,2.9c0.2,0.1,0.3,0.1,0.5,0.2c0.1,0.1,0.2,0.2,0.3,0.3c0.5,0.5,1,1.1,1.4,1.6c1,0.8,2.1,1.7,3.1,2.5
			c0.2,0.1,0.3,0.2,0.5,0.3c1.2,1.2,2.3,2.3,3.5,3.5c0.1,0.1,0.2,0.2,0.3,0.3c0.4,0.3,0.8,0.7,1.1,1l-0.1,0.1l0.1-0.1
			c1,0.8,2,1.7,3,2.5c0.2-0.1,0.3-0.2,0.5-0.3c2.3-2.3,4.6-4.6,6.8-6.8c0.1-0.1,0.1-0.2,0.2-0.2c3.2-3.1,6.3-6.2,9.5-9.4
			c0.6-0.6,1.2-1.2,1.8-1.7c-0.4-0.6-0.6-1.2-1.1-1.7c-5.5-5.5-11-11-16.5-16.5C472.1,123.4,471.8,123,471.5,123z"/>
		<path class="st0" d="M469.4,246.3c1.5,1.5,1.5,1.5,3.1-0.1c4.1-4.1,8.2-8.2,12.3-12.3c1.7-1.7,3.5-3.4,5.3-5.1
			c-0.4-0.5-0.4-0.7-0.6-0.9c-5.8-5.8-11.6-11.6-17.4-17.5c-0.1-0.1-0.3-0.4-0.5-0.4c-0.5-0.1-1-0.2-1.5,0c-0.4,0.1-0.6,0.5-0.9,0.8
			c-5.5,5.5-11,10.9-16.4,16.4c-0.4,0.4-0.7,0.8-1.1,1.2c0.4,0.4,0.6,0.7,0.9,1C458.3,235.1,463.8,240.7,469.4,246.3z"/>
		<path class="st0" d="M593.8,141.2c-5.6-5.6-11.2-11.2-16.9-16.9c-0.2-0.2-0.4-0.5-0.6-0.6c-0.5-0.1-1-0.2-1.5-0.1
			c-0.4,0.1-0.6,0.5-0.9,0.8c-5.5,5.5-11,11-16.6,16.6c-0.3,0.3-0.6,0.7-1.1,1.2c6.5,6.3,12.9,12.6,19.2,18.7
			c6.4-6.4,12.7-12.7,19.1-19C594.4,141.8,594.1,141.5,593.8,141.2z"/>
		<path class="st0" d="M595.2,228.2c-0.1-0.1-0.4-0.5-0.8-0.8c-5.5-5.5-11-11-16.6-16.6c-1.5-1.5-1.5-1.5-3,0
			c-5.5,5.5-11,11-16.6,16.6c-0.4,0.4-0.7,0.8-0.9,1.1c6.4,6.4,12.7,12.7,18.8,18.8C582.6,240.7,588.9,234.5,595.2,228.2z"/>
		<path class="st0" d="M542.6,281.2c0,0,0-0.1,0-0.2c-6-6-12-12.1-18-18.1c-0.8-0.8-1.3-0.7-2.1,0.2s-1.5,1.8-2.3,2.6
			c-4.7,4.7-9.4,9.4-14,14.1c-0.4,0.4-0.8,0.9-1.3,1.4c6.4,6.4,12.6,12.6,18.8,18.8C529.8,293.9,536.1,287.6,542.6,281.2z"/>
		<path class="st0" d="M524.2,71.9c-0.3-0.3-0.5-0.7-0.7-1c-0.3,0-0.6,0.1-0.9,0.1c-0.9,0.7-1.8,1.3-2.5,2.1c-5,5-10,10-15,15
			c-0.4,0.4-0.8,0.9-1.2,1.3c0.2,0.3,0.3,0.5,0.5,0.6c5.8,5.9,11.7,11.7,17.6,17.5c0.3,0.3,0.8,0.5,1.2,0.7c0.3-0.2,0.6-0.4,0.9-0.6
			c0.3-0.4,0.5-0.8,0.9-1.1c5.2-5.2,10.5-10.5,15.7-15.7c0.3-0.3,0.8-0.6,1.1-0.9c0-0.2,0-0.3,0-0.5s0-0.3,0.1-0.5
			c-0.4-0.3-0.8-0.5-1.1-0.8C535,82.8,529.6,77.4,524.2,71.9z"/>
		<path class="st0" d="M484.5,184.7c-4-4-8.1-8.1-12.1-12.1c-1.5-1.5-1.5-1.5-3,0c-3.9,3.9-7.9,7.9-11.8,11.8
			c-0.4,0.4-0.8,0.9-1.2,1.2c4.9,4.9,9.7,9.7,14.2,14.2c4.7-4.7,9.6-9.5,14.5-14.4C485.1,185.3,484.8,185,484.5,184.7z"/>
		<path class="st0" d="M578.1,198.7c0.9-0.9,1.8-1.8,2.7-2.7c3.4-3.3,6.7-6.7,10-10c-4.9-4.9-9.6-9.6-14.4-14.4
			c-0.4,0.3-0.9,0.8-1.4,1.3c-3.8,3.8-7.6,7.6-11.4,11.4c-0.3,0.3-0.6,0.6-0.9,0.9c-0.6,0.5-0.5,1.1,0,1.6c0.3,0.3,0.6,0.6,0.9,0.9
			c3.7,3.7,7.4,7.4,11.1,11.1C576.3,200.4,576.3,200.4,578.1,198.7z"/>
		<path class="st0" d="M522.8,176.9c-0.8,0.8-1.6,1.6-2.3,2.4c-2.1,2.1-4.2,4.2-6.4,6.4c0.3,0.4,0.4,0.6,0.6,0.7
			c2.7,2.8,5.4,5.6,8,8.4c0.8,0.8,1.1,0.8,2.1-0.1c2.1-2,4.1-4.1,6.2-6.2c0.9-0.9,1.8-1.8,2.8-2.8c-3.1-3.1-6-6.1-9-9
			C523.8,175.8,523.6,175.9,522.8,176.9z"/>
		<path class="st0" d="M576.6,363.2c-0.5-0.5-0.9-1-1.4-1.5c-2.5-2.5-4.9-4.9-7.4-7.4c-6.9-7-13.7-14-20.6-21c-1-1-2.2-1.9-3.3-2.9
			c-1.8-1.7-3.5-3.5-5.2-5.2c-3.8-3.8-7.7-7.7-11.5-11.5c-0.4-0.4-0.8-0.8-1.1-1.2c-1.9-2.5-2.2-2.6-4.4-0.4
			c-16.6,16.6-33.1,33.1-49.7,49.7c-0.5,0.5-1.2,0.9-2,1.5c0.6,0.5,0.9,0.8,1.2,0.9c31.2,9,69.7,12,100.9,1c0.3-0.1,0.5-0.2,0.8-0.3
			c0.1,0,0.3-0.1,0.4-0.1c0.4-0.1,0.8-0.2,1.2-0.3c0.2,0,0.3-0.1,0.5-0.1c0.3-0.1,0.5-0.2,0.8-0.3c0.1,0,0.3-0.1,0.4-0.1
			c0.2-0.1,0.5-0.2,0.7-0.3C576.7,363.5,576.6,363.4,576.6,363.2z"/>
	</g>
	<g>
		<path class="st0" d="M71.6,555.3c-4-2.3-8.2-4.1-12.6-5.5c-5.5-1.7-11-3.4-16.7-4.6c-4.4-0.9-8.7-2.5-12.9-4.1
			c-2.5-1-4.9-2.3-7.2-3.8c-3.7-2.4-5.9-5.9-6.5-10.3c-0.4-2.7-0.5-5.4-0.3-8.1c0.6-8.2,5.6-14,13.6-16.1c1.4-0.4,2.9-0.5,4.3-0.8
			c1.4,0,2.8,0,4.2,0c3.3,0.6,6.6,1,9.8,1.8c6.9,1.9,13,5.3,17.7,10.9c2.4,2.9,4.4,6.1,5.3,9.9c2.8,0,5.5,0,8.3,0.1
			c0-0.2,0.1-0.4,0.1-0.6c0-10.3,0-20.6,0-31c0-0.3-0.1-0.6-0.1-1c-2.8,0-5.5,0-8.2,0c-1,4-2,7.9-3,11.7c-0.3-0.1-0.5-0.1-0.6-0.2
			c-5.9-5.4-12.7-9.2-20.7-10.6c-2.5-0.4-5-0.9-7.5-1.1c-3.7-0.3-7.4,0.2-11,0.9C11,496.3,1.4,508,0.2,522.2c0,2.2-0.1,4.3-0.1,6.5
			c0.8,5.6,2.6,10.8,6.3,15.1c3,3.4,6.6,6,10.6,8.1c6.5,3.4,13.5,5.4,20.6,7.4c5.3,1.5,10.6,3,15.8,4.7c2.4,0.8,4.8,1.9,7,3.2
			c4.9,2.7,8,6.9,8.8,12.5c0.5,3.5,0.6,7.1-0.4,10.6c-2.2,7.7-7.7,11.7-15.1,13.4c-1,0.2-2,0.3-3,0.5c-1.3,0.3-2.7,0.5-4,0.5
			c-0.6,0-1.3,0-1.9-0.1c0.6,0.1,1.3,0.1,1.9,0.1c1.3,0,2.7-0.2,4-0.5c-2.7,0-5.3,0-8,0c0.6,0.1,1.3,0.3,1.9,0.3
			c-0.6-0.1-1.3-0.2-1.9-0.3c-5.2-0.4-10.1-1.8-14.8-4c-8.1-3.8-14.4-9.6-19.3-17c-0.1-0.2-0.2-0.5-0.3-0.8l0,0l0,0l0,0l0,0
			c-0.1-0.1-0.3-0.3-0.4-0.3c-2.6,0-5.2,0-7.8,0.1c0,0.1,0.1,0.2,0.1,0.4c0,0.8-0.1,1.5-0.1,2.3c0,9.6,0,19.2,0,28.8
			c0,0.8-0.1,1.5-0.1,2.3c2.9,0,5.9,0,8.8,0c0-0.5-0.1-1,0-1.4c1.1-4.3,2.3-8.6,3.4-13.1c0.5,0.4,0.9,0.7,1.3,1.1
			c6.4,5.8,13.8,9.8,22.2,11.8c2.1,0.5,4.2,1.2,6.4,1.2c0.2,0,0.3,0.2,0.4,0.4c3.1,0,6.1,0,9.2,0c0.1-0.1,0.3-0.3,0.5-0.3
			c2.7-0.6,5.5-1,8.1-1.8c17.3-5.3,26.4-20.9,25-36.6C84.4,567.6,79.9,560.3,71.6,555.3z"/>
		<path class="st0" d="M1008,491.3c-0.7,0-1.4,0.3-2.1,0.4c0,3.1,0,6.2,0,9.2c1.3,0,2.7,0,4,0c-1.3,0-2.7,0-4,0c0,0.1,0,0.3,0,0.4
			c3.2,0,6.4,0.1,9.6,0.1c-0.2,0.2-0.5,0.5-0.7,0.7c-1.3,1.8-2.6,3.6-3.8,5.4c-4,5.7-8,11.3-12,17c-3,4.3-6.1,8.6-9.2,12.8
			c0,0.1,0,0.2-0.2,0.2l-0.1,0.1c-0.1,0.1-0.2,0.3-0.3,0.4c0,0.1,0,0.1-0.1,0.2c0,0-0.2,0.1-0.2,0c-0.9-1.2-1.9-2.4-2.7-3.6
			c-5-7.4-10.1-14.9-15.1-22.4c-2.3-3.4-4.5-6.8-6.7-10.2c-0.1-0.3-0.3-0.6-0.4-0.9c3.2,0,6.4-0.1,9.6-0.1c0-0.1,0-0.3-0.1-0.4
			c0-3.1,0-6.1,0-9.2l0,0l0,0l0,0l0,0c-0.1-0.1-0.2-0.2-0.3-0.3c-0.4,0-0.8-0.1-1.2-0.1c-12.5,0-24.9,0-37.4,0
			c-0.4,0-0.8,0.1-1.2,0.1l0,0c-0.1,0.1-0.2,0.2-0.3,0.3c0,3.1,0,6.1,0,9.2c-0.1,0.1-0.1,0.2-0.1,0.4c3.8,0,7.5,0,11.3,0
			c0.1,0.2,0.2,0.3,0.3,0.5c2.1,3.2,4.2,6.4,6.3,9.6c9.1,13.7,18.2,27.4,27.3,41.1c1,1.5,1,1.5,0,3c-1.8,2.6-3.6,5.2-5.3,7.8
			c-1,1.5-2,3-2.9,4.5c-0.2,0.1-0.4,0.3-0.6,0.4c-1.5,2.3-3,4.7-4.6,7c-1.8,2.7-3.7,5.4-5.5,8.1c-1.8,2.6-3.6,5.3-5.4,7.9
			c-1,1.5-2,3.1-3.1,4.6c-0.2,0.1-0.4,0.3-0.6,0.4c-0.3,0.5-0.5,0.9-0.8,1.4c-0.9,1.5-1.9,3-2.8,4.5c-0.6,0.9-1.3,1.7-1.9,2.6
			c-0.1,0.1-0.2,0.2-0.3,0.3c-0.8,0-1.6,0.1-2.5,0.1c-3.1,0-6.2,0.1-9.3,0.1c-0.1,0.1-0.2,0.2-0.2,0.3c0,3,0,6.1,0,9.2
			c-0.1,0.1-0.1,0.2-0.1,0.3c0.3,0,0.7,0.1,1,0.1c13.2,0,26.3,0,39.5,0c0-0.1,0-0.3,0-0.4c0-3.2,0-6.3,0-9.7c-4.2,0-8.1,0-12.1,0
			c-0.2,0-0.4-0.1-0.5-0.1c0.2-0.3,0.3-0.5,0.5-0.8c0.4-0.7,0.8-1.5,1.2-2.2c7.6-11.5,15.2-23,22.7-34.4c0.6-0.9,1.3-1.8,2.1-2.9
			c0.8,1.4,1.5,2.6,2.2,3.7c2.5,3.7,5.1,7.5,7.7,11.2c1.8,2.6,3.4,5.3,5.1,7.9c0.3,0.3,0.6,0.5,0.9,0.8c2.1,3.2,4.2,6.4,6.2,9.6
			c0.3,0.3,0.6,0.5,0.9,0.8c1.1,1.7,2.2,3.3,3.4,5c0.2,0.2,0.4,0.3,0.5,0.6c0.5,0.8,0.1,0.9-0.5,0.7c-3.1,0-6.2,0.1-9.2,0.1
			c-0.1,0.1-0.2,0.2-0.3,0.3c0,3.1,0,6.1,0,9.2c-0.1,0.1-0.1,0.2-0.1,0.4c1.2,0,2.4,0.1,3.6,0.1c11.5,0,23,0,34.5,0
			c0.8,0,1.6,0,2.4-0.1c0-0.1,0-0.3-0.1-0.4c0-3.1,0-6.1,0-9.2l0,0c0.1-0.1,0.1-0.2,0.1-0.4c-0.1,0-0.3,0-0.4,0c-3.5,0-6.9,0-10.3,0
			c-12.3-18.5-24.5-36.8-36.7-55.1c0.5-0.7,0.9-1.3,1.3-1.9c10-14.6,20-29.1,30.1-43.7c0.7-1,1.4-1.9,2.1-2.9c0-0.1,0.1-0.3,0.2-0.4
			c5.3,0,10.6,0,15.9,0c0-0.1,0-0.3,0-0.4c0-3.1,0-6.1,0-9.2c0-0.1,0-0.3,0-0.4C1033.4,491.3,1020.7,491.3,1008,491.3z M964.1,501.3
			L964.1,501.3c0.1,0,0.1-0.1,0.2-0.1C964.2,501.2,964.1,501.3,964.1,501.3z M973.5,491.7L973.5,491.7L973.5,491.7z M933.5,491.7
			h-0.2C933.4,491.7,933.5,491.7,933.5,491.7c13.3,0,26.5,0,39.8,0C960,491.7,946.8,491.7,933.5,491.7z M1015.5,501.4
			c-0.3-0.1-0.5-0.2-0.8-0.3C1015,501.2,1015.2,501.3,1015.5,501.4L1015.5,501.4z"/>
		<path class="st0" d="M503.3,569.8c-1.7,7.6-4.3,14.8-9.1,21c-5.9,7.5-13.6,11.6-23.1,12.6c-2.4,0-4.8,0-7.2,0
			c-3.2-0.1-6.1-1-9.1-2c-8.8-3.2-14.8-9.4-19-17.6c-3.6-7-5.5-14.5-6.2-22.3c-0.8-8.4-0.8-16.8,0.8-25.1c1.2-6.2,3.1-12.1,6.2-17.6
			c4.7-8.2,11.3-14.1,20.6-16.5c7.3-1.9,14.5-1.1,21.5,0.9c5,1.5,9.5,4,13.4,7.5c5.1,4.5,9.2,9.8,11.7,16.2c0.2,0.1,0.3,0.3,0.5,0.3
			c2.4,0,4.9,0,7.3,0c0.2,0,0.4-0.3,0.5-0.5c0-0.4,0.1-0.8,0.1-1.2c0-11.1,0-22.1,0-33.2c0-0.5-0.1-1-0.1-1.5l0,0
			c-0.3-0.1-0.7-0.4-1-0.4c-2.4,0-4.7,0-7.1,0c-0.3,0-0.6,0.2-0.9,0.3c-0.3,1-0.5,1.9-0.8,2.9c-0.8,3.1-1.5,6.3-2.3,9.7
			c-1.4-1.2-2.6-2.3-3.8-3.3c-6.4-5.2-13.6-8.4-21.9-9.3c-4.3-0.8-8.7-0.6-13,0c-2.3,0.3-4.6,0.5-6.9,1c-9.1,2-17.1,6.2-24,12.5
			c-10.9,10-16.8,22.6-18.9,37.1c-1.4,9.3-1.1,18.6,0.9,27.8c1.2,5.7,3,11.2,5.9,16.2c8.6,15.4,21.3,25.3,39,28.3
			c1.2,0.1,2.5,0.3,3.7,0.4c1.9,0,3.9,0,5.8,0c1.9-0.1,3.9-0.3,5.8-0.4c1.8-0.3,3.5-0.5,5.3-0.8c9.4-2,17.5-6.4,23.9-13.7
			c6.2-7,9.7-15.4,11.9-24.4c0.5-2.1,0.8-4.2,1.1-6.3c0.2-1.5,0.4-3,0.6-4.5c-3.6,0-7.2,0-10.8,0C504.2,566,503.7,567.9,503.3,569.8
			z"/>
		<path class="st0" d="M908.7,605.5L908.7,605.5L908.7,605.5L908.7,605.5L908.7,605.5c-0.2-0.2-0.5-0.4-0.7-0.5
			c-3.5,0-6.9,0.1-10.4,0.1c-0.1-0.3-0.1-0.6-0.2-0.9c0-0.5-0.1-1-0.1-1.4c0-33.3,0-66.6,0-99.9c0-0.5,0.2-1,0.3-1.5l-0.1-0.1
			c3.8,0,7.5,0,11.3,0c0-0.1,0-0.3-0.1-0.4c0-3,0-6.1,0-9.1l0,0c-0.1-0.1-0.2-0.2-0.2-0.3c-2.9,0-5.9-0.1-8.8-0.1
			c-9.8,0-19.5,0-29.3,0c-0.7,0-1.4,0.3-2.1,0.4c13.4,0,26.7,0,40.1,0c-13.4,0-26.7,0-40.1,0c0,3.1,0,6.1,0,9.2
			c-0.1,0.1-0.1,0.2-0.1,0.4c3.8,0,7.5,0,11.3,0l0,0c0,0.1,0,0.3,0,0.4c0,0.7,0.1,1.4,0.1,2.1c0,32.9,0,65.9,0,98.8
			c0,0.7-0.1,1.4-0.1,2.1c0,0.1-0.1,0.3-0.1,0.4c-0.1,0-0.3-0.1-0.4-0.1c-3.1,0-6.1,0-9.2,0.1c-0.5,0-1.1,0.3-1.6,0.4
			c0,3.1,0,6.1,0,9.2c-0.1,0.1-0.1,0.2-0.1,0.4c2.9,0,5.7,0.1,8.6,0.1c9.8,0,19.6,0,29.5,0c0.8,0,1.7-0.1,2.5-0.1
			c0-0.1,0-0.2-0.1-0.3C908.7,611.6,908.7,608.6,908.7,605.5z"/>
		<path class="st0" d="M202.2,490.4c-32.8,0-65.5,0-98.3,0c-0.6,0-1.1,0-1.7,0c-0.2,0-0.4,0.3-0.6,0.4c0,8.8,0,17.5-0.1,26.3
			c3.1,0,6.1,0,9.2,0c-0.2-3.9,0.9-7.6,2-11.3c0.2-0.8,0.6-1.6,1.1-2.2c0.7-0.7,1.5-1.4,2.5-1.8c1.1-0.4,2.4-0.4,3.6-0.6
			c1,0,1.9,0.1,2.9,0.1c7.3,0,14.5,0.1,21.8,0.1c0.1-0.1,0.3-0.1,0.4,0l0,0c0.1,0.1,0,0.3-0.1,0.4c0,0.6,0.1,1.3,0.1,1.9
			c0,33.1,0,66.1,0,99.2c0,0.6,0,1.3-0.1,1.9c-0.1,0.1-0.2,0.2-0.3,0.4c-3.6,0-7.3,0.1-10.9,0.1c0,3.3,0,6.4,0,9.6
			c0.4,0.1,0.8,0.4,1.3,0.4c12.6,0,25.1,0,37.7,0c0.4,0,0.8-0.3,1.2-0.4c0-3.1,0-6.3,0-9.7c-3.7,0-7.3,0-10.9,0
			c-0.1-0.1-0.2-0.2-0.3-0.4c0-0.6-0.1-1.2-0.1-1.9c0-33.1,0-66.1,0-99.2c0-0.6,0.1-1.2,0.1-1.9c-0.1-0.1-0.1-0.2,0-0.4
			c0.1,0,0.3,0,0.4,0.1c4.6,0,9.1,0,13.7-0.1c3.4,0,6.8-0.1,10.2-0.1c1.3,0.2,2.6,0.2,3.8,0.6c1.7,0.5,2.8,1.8,3.3,3.5
			c1.2,3.6,2.1,7.2,2.1,11c2.8,0,5.5,0.1,8.3,0.1c0-4.1,0.1-8.3,0.1-12.4c0-4.4-0.1-8.7-0.1-13.1
			C203.7,490.7,202.9,490.4,202.2,490.4z"/>
		<path class="st0" d="M396.1,490.8c-0.8-0.1-1.5-0.4-2.3-0.4c-32.8,0-65.5,0-98.3,0c-0.6,0-1.1,0-1.7,0c-0.2,0-0.4,0.3-0.6,0.4
			c0,8.8,0,17.5-0.1,26.3c3.1,0,6.1,0,9.2,0c-0.1-3.6,0.8-7,1.7-10.5c0.2-0.9,0.7-1.8,1.1-2.7c0.6-1.2,1.6-1.9,2.9-2.2
			c1.3-0.3,2.6-0.4,3.9-0.5c0.8,0,1.7,0.1,2.5,0.1c7.3,0,14.5,0,21.8,0.1c0.1-0.1,0.3-0.1,0.4,0l0,0c0.1,0.1,0,0.3,0,0.4
			c0,0.6,0.1,1.3,0.1,1.9c0,33.1,0,66.1,0,99.2c0,0.6,0,1.3-0.1,1.9c-0.1,0.1-0.2,0.2-0.3,0.4c-3.6,0-7.3,0.1-10.9,0.1
			c0,3.3,0,6.4,0,9.5c0.4,0.1,0.8,0.4,1.2,0.4c12.6,0,25.1,0,37.7,0c0.4,0,0.8-0.3,1.2-0.4c0-3.2,0-6.3,0-9.7c-3.7,0-7.3,0-10.9,0
			c-0.1-0.1-0.2-0.2-0.3-0.3c0-0.6-0.1-1.2-0.1-1.9c0-33.1,0-66.1,0-99.2c0-0.6,0.1-1.2,0.1-1.9c-0.1-0.1-0.1-0.2,0-0.4
			c0.1,0,0.3,0,0.4,0.1c4.7,0,9.4,0,14.1-0.1c3.3,0,6.5-0.1,9.8-0.1c1.3,0.2,2.6,0.2,3.8,0.6c1.8,0.5,2.8,1.9,3.4,3.6
			c1.2,3.5,2,7.1,2,10.8c2.8,0,5.5,0.1,8.3,0.1c0-0.7,0.1-1.4,0.1-2.1c0-5.4,0-10.8,0-16.2C396.2,495.7,396.2,493.3,396.1,490.8
			L396.1,490.8z"/>
		<path class="st0" d="M1044,615L1044,615C1043.9,615.1,1043.9,615.1,1044,615C1043.9,615.1,1044,615,1044,615z"/>
		<path class="st0" d="M752.3,615.1c13.4,0,26.8,0,40.2,0c0-0.1,0-0.3,0-0.4c-13.4,0-26.8,0-40.2,0
			C752.3,614.8,752.3,615,752.3,615.1z"/>
		<path class="st0" d="M258.5,501.4c3,0,6,0,9.1-0.1c0.6,0,1.2-0.3,1.9-0.4c0-3.1,0-6.1,0-9.2c-0.3-0.1-0.5-0.4-0.8-0.4
			c-1.2,0-2.5,0-3.8,0c-11.2,0-22.4,0-33.6,0c-0.7,0-1.4,0.3-2.1,0.4c0,3.1,0,6.1,0,9.2c3.1,0,6.2,0,9.4,0c-3.1,0-6.2,0-9.4,0
			c0.5,0.1,1.1,0.4,1.6,0.4c3.1,0.1,6.2,0.1,9.3,0.1c0.1-0.1,0.3-0.1,0.4-0.1l0,0c0.1,0.1,0,0.3,0,0.4c0,0.6,0.1,1.2,0.1,1.9
			c0,33.1,0,66.1,0,99.2c0,0.6,0,1.2-0.1,1.9c-0.1,0.1-0.2,0.2-0.3,0.4c-3.6,0-7.3,0.1-10.9,0.1c0,3.3,0,6.4,0,9.5
			c0.4,0.1,0.8,0.4,1.2,0.4c12.6,0,25.1,0,37.7,0c0.4,0,0.8-0.3,1.3-0.4l0,0c0-3.2,0-6.3,0-9.7c-3.7,0-7.3,0-10.9,0
			c-0.1-0.1-0.2-0.2-0.3-0.4c0-0.6-0.1-1.3-0.1-1.9c0-33.1,0-66.1,0-99.2c0-0.6,0-1.3,0.1-1.9c-0.1-0.1-0.1-0.2,0-0.4
			C258.2,501.3,258.3,501.4,258.5,501.4z"/>
		<path class="st0" d="M646.4,501.4c2.7,0,5.4,0,8.1-0.1c0.8,0,1.5-0.1,2.3-0.2c0-0.1-0.1-0.2-0.2-0.3c0-3,0-6.1,0-9.1l0,0l0.1-0.1
			c-0.1-0.1-0.2-0.1-0.2-0.2c-1.5,0-2.9-0.1-4.4-0.1c-11.2,0-22.5,0-33.7,0c-0.7,0-1.4,0.3-2,0.4c0,3.1,0,6.1,0,9.2
			c-0.1,0.1-0.1,0.3,0,0.4c4,0,8.1,0.1,12.1,0.1c0.1,0.1,0,0.3,0,0.4c0,0.5,0.1,1,0.1,1.5c0,15.5,0,31,0,46.5c0,0.5,0,1-0.1,1.5
			c0.1,0.1,0.1,0.2,0,0.4h-0.2h-0.2c-0.5,0-1,0.1-1.5,0.1c-18.1,0-36.2,0-54.3,0c-0.6,0-1.2-0.1-1.9-0.1c0-16.1,0-32.2,0-48.3
			c0-0.6,0.2-1.2,0.3-1.7l-0.1-0.1c3.5,0,7,0,10.5,0c0-0.1,0-0.3-0.1-0.4c0-3.1,0-6.1,0-9.2l0,0l0,0l0,0l0,0
			c-0.1-0.1-0.2-0.2-0.3-0.3c-0.3,0-0.7-0.1-1-0.1c-12.6,0-25.2,0-37.8,0c-0.3,0-0.7,0.1-1,0.1c-0.1,0.1-0.2,0.2-0.3,0.3
			c0,3.1,0,6.1,0,9.2l0,0c-0.1,0.1-0.1,0.2-0.1,0.4c4,0,8.1,0,12.1,0.1c0,0.1,0,0.3,0,0.4c0,0.7,0.1,1.4,0.1,2.1
			c0,32.9,0,65.9,0,98.8c0,0.7-0.1,1.4-0.1,2.1c-0.1,0.1-0.3,0.2-0.4,0.4c-3.5,0-7,0.1-10.5,0.1c-0.1,0.1-0.2,0.2-0.3,0.3
			c0,3.1,0,6.1,0,9.2c-0.1,0.1-0.1,0.2-0.1,0.4c0.3,0,0.7,0.1,1,0.1c12.7,0,25.3,0,38,0c0.5,0,1-0.1,1.5-0.1c0-0.1,0-0.2-0.1-0.4
			c0-3,0-6.1,0-9.1c-0.1-0.1-0.2-0.2-0.3-0.3c-0.1-0.1-0.3-0.1-0.4-0.2c-3.2,0-6.5,0.1-9.7,0.1c-0.5,0-1.2,0.1-0.9-0.9
			c0-0.3-0.1-0.5-0.1-0.8c0-13.8,0-27.6,0-41.4c0.1-0.1,0.2-0.3,0.3-0.4c0.6,0,1.3-0.1,1.9-0.1c17.9,0,35.8,0,53.8,0
			c0.7,0,1.4,0.3,2.1,0.4c0,0.1,0,0.3,0,0.4c0,14.1,0,28.2,0,42.3c-0.1,0.1-0.2,0.2-0.3,0.4c-3.9,0-7.7,0.1-11.7,0.1
			c0,3.3,0,6.4,0,9.5c-0.1,0.1-0.1,0.3,0,0.4c12.4,0,24.8,0,37.2,0c1,0,2,0,2.9,0c0.1-0.2,0.1-0.3,0.2-0.5c0-3,0-6.1,0-9.1l0.1-0.1
			c-0.1,0-0.2-0.1-0.3-0.1c-0.1-0.1-0.3-0.1-0.4-0.2c-3.2,0-6.4,0-9.6,0c-0.1-0.3-0.2-0.5-0.4-0.8c0-0.6-0.1-1.3-0.1-1.9
			c0-32.9,0-65.8,0-98.7c0-0.6,0-1.3,0.1-1.9c-0.1-0.1-0.1-0.2,0-0.4c0.5-0.1,0.9-0.3,1.4-0.4c-0.5,0.1-0.9,0.3-1.4,0.4
			C646.2,501.3,646.3,501.3,646.4,501.4z M541,491.7h-0.2H541c13.3,0,26.5,0,39.8,0C567.5,491.7,554.2,491.7,541,491.7z"/>
		<path class="st0" d="M846.9,489.2c-0.1,0-0.3,0-0.4,0c-0.8,0-1.5-0.1-2.3-0.1c-30.3,0-60.6,0-91,0c-1,0-1.9,0.1-2.9,0.1
			c0.4,2.1,0.8,4.1,1.2,6.2c0.3,1.8,0.5,3.7,0.7,5.5c0,0.1,0.1,0.2,0.1,0.3c3.9,0,7.8,0.1,11.7,0.1c0.1,0,0.3-0.1,0.4,0l0,0
			c0.1,0.1,0,0.3-0.1,0.4c0,0.6,0.1,1.3,0.1,1.9c0,33.1,0,66.1,0,99.2c0,0.6,0,1.3-0.1,1.9c-0.1,0.1-0.2,0.2-0.3,0.4
			c-3.9,0-7.8,0.1-11.7,0.1c0,3.3,0,6.4,0,9.5c13.4,0,26.8,0,40.2,0c0-3.2,0-6.3,0-9.7c-3.4,0-6.8,0-10.1,0
			c-0.1-0.1-0.2-0.2-0.4-0.4c0-0.3-0.1-0.7-0.1-1c0-13.4,0-26.8,0-40.2c0-0.3,0.1-0.7,0.1-1c0-0.1,0-0.3,0-0.4
			c0.3-0.1,0.5-0.4,0.8-0.4c7,0,13.9,0,20.9,0c0.5,0,1,0.3,1.6,0.4c2,0.6,3.9,1.5,4.2,3.8c0.3,1.7,1.8,2.9,1.4,4.8
			c2.8,0,5.5,0.1,8.3,0.1c0-0.3,0.1-0.7,0.1-1c0-9.7,0-19.4,0-29.1c0-0.4-0.1-0.8-0.2-1.1c-2.8,0-5.4,0-7.9,0
			c-0.8,1.7-1.6,3.3-2.4,5c0,0.2,0,0.5,0,0.7c-0.1,0.2-0.2,0.4-0.3,0.6v0.2l-0.1,0.1c-0.1,0.2-0.3,0.3-0.4,0.5
			c-0.1,0.1-0.3,0.3-0.4,0.4c-0.7,1-1.2,2.3-2.6,2.5c-0.4,0.1-0.8,0.2-1.1,0.4c-0.3,0-0.6,0.1-0.8,0.1c-0.7,0.1-1.5,0.4-2.2,0.4
			c-6,0-12,0-18,0c-0.5,0-1-0.3-1.5-0.4c0-0.1,0-0.3,0-0.4c0-0.4-0.1-0.8-0.1-1.3c0-15.5,0-31.1,0-46.6c0-0.5,0.1-1,0.1-1.5
			c0.4-0.1,0.8-0.4,1.2-0.4c13.9,0,27.8,0,41.7,0c0.9,0,2-0.2,2.6,0.8c3.3,0,5.3,1.9,6.7,4.6c0.1,0.1,0.3,0.3,0.4,0.4l0,0
			c0.1,0.1,0.2,0.3,0.4,0.4c0.3,0.6,0.6,1.2,0.9,1.8c0.1,0.3,0.2,0.5,0.4,0.8c0.2,0.6,0.4,1.1,0.6,1.7c0.1,0.1,0.2,0.3,0.3,0.4l0,0
			c0.1,0.1,0.1,0.3,0.2,0.4c0.1,0.4,0.2,0.9,0.3,1.3c0.1,0.1,0.2,0.3,0.3,0.4l0,0c0.1,0.6,0.2,1.1,0.4,1.7c3.1,0,6.1-0.1,9.2-0.1
			c0-0.1,0-0.2-0.1-0.3c0-8.1,0-16.2,0-24.3C846.9,489.5,846.9,489.3,846.9,489.2z"/>
	</g>
</g>
</svg>
