<svg width="48" height="48" viewBox="0 0 48 48" fill="none" xmlns="http://www.w3.org/2000/svg">
<path d="M38 24C30.268 24 24 17.732 24 10H6V34H42V23.412C40.732 23.79 39.39 24 38 24Z" fill="#EFE2D2"/>
<path d="M38 0C32.478 0 28 4.478 28 10C28 15.522 32.478 20 38 20C43.522 20 48 15.522 48 10C48 4.478 43.522 0 38 0ZM37 16L31.1 10.1L33.9 7.3L37 10.4L42.1 5.3L44.9 8.1L37 16ZM0 36H48V40H0V36Z" fill="black"/>
<path d="M40.002 23.84V32H8V12H24.16C24.066 11.346 24 10.68 24 10C24 9.32 24.066 8.654 24.16 8H8C5.79 8 4 9.79 4 12V32C4 34.21 5.79 36 8 36H40C42.21 36 44 34.21 44 32V22.634C42.756 23.226 41.414 23.638 40.002 23.84Z" fill="black"/>
</svg>
