<svg width="48" height="48" viewBox="0 0 48 48" fill="none" xmlns="http://www.w3.org/2000/svg">
<path d="M18.4 12C19.4 13.4 20 15.2 20 17C20 22 16 26 11 26C8.2 26 5.6 24.6 4 22.6V34H8.6C9.2 32.8 10.6 32 12 32C13.4 32 14.8 32.8 15.4 34H30V12H18.4ZM38.8 16H30V34H32.6C33.2 32.8 34.6 32 36 32C37.4 32 38.8 32.8 39.4 34H44V26.4L38.8 16Z" fill="#EFE2D2"/>
<path d="M36 33.4C37.4 33.4 38.6 34.6 38.6 36C38.6 37.4 37.4 38.6 36 38.6C34.6 38.6 33.4 37.4 33.4 36C33.4 34.6 34.6 33.4 36 33.4ZM36 30C32.6 30 30 32.6 30 36C30 39.4 32.6 42 36 42C39.4 42 42 39.4 42 36C42 32.6 39.4 30 36 30ZM11 9.4C15.2 9.4 18.6 12.8 18.6 17C18.6 21.2 15.2 24.6 11 24.6C6.8 24.6 3.4 21.2 3.4 17C3.4 12.8 6.8 9.4 11 9.4ZM11 6C5 6 0 11 0 17C0 23 5 28 11 28C17 28 22 23 22 17C22 11 17 6 11 6ZM12 33.4C13.4 33.4 14.6 34.6 14.6 36C14.6 37.4 13.4 38.4 12 38.4C10.6 38.4 9.6 37.4 9.6 36C9.6 34.6 10.6 33.4 12 33.4ZM12 30C8.6 30 6 32.6 6 36C6 39.4 8.6 42 12 42C15.4 42 18 39.4 18 36C18 32.6 15.4 30 12 30Z" fill="black"/>
<path d="M46 36H40V32H42V27L37.6 18H30V14H40L46 26V36Z" fill="black"/>
<path d="M32 32H28V14H18V10H32V32ZM8 36H2V22.6H6V32H8V36ZM16 32H32V36H16V32ZM12.8 21L9.2 17.4L11 12.2L13.8 13.2L12.8 16.6L15 18.8L12.8 21Z" fill="black"/>
</svg>
