<?xml version="1.0" encoding="utf-8"?>
<!-- Generator: Adobe Illustrator 27.4.0, SVG Export Plug-In . SVG Version: 6.00 Build 0)  -->
<svg version="1.1" id="Layer_1" xmlns="http://www.w3.org/2000/svg" xmlns:xlink="http://www.w3.org/1999/xlink" x="0px" y="0px"
	 viewBox="0 0 640.1 727.2" style="enable-background:new 0 0 640.1 727.2;" xml:space="preserve">
<style type="text/css">
	.st0{fill:#FFF8E9;}
</style>
<g>
	<path class="st0" d="M375.3,306.6C275.8,238.4,177.4,206,94.6,200.4c-82.7-5.6-81.6,3.4-89.5,6.7c-7.8,3.4-5.6,12.3,0,19
		S28.6,259.6,73.3,367s92.9,260.7,161,316.5c63.4,51.9,220.1,43.2,220.1,43.2s53,0.6,36-43.2c-13.8-35.4-71-140.8-126.4-209.1
		C321.2,421.5,211.2,323,174.7,292.3c-1.7-1.4,0.1-4.2,2.1-3.2c23.8,11.8,74.7,39.7,121,81c18.6,16.7,51.2,47.9,67.8,64.4
		c21.4,21.4,62.5,65,77.4,90.8c18.3,31.7,35.6,52.4,60.9,100c24.9,46.7,40.3,51.4,45.8,41.4c5.6-10.1,12.3-26.8-5.6-112.9
		C526.3,467.6,474.8,374.8,375.3,306.6z"/>
	<path class="st0" d="M630.8,135.3l-26.5,14.9l-2.7-23.1c-0.8-6.5-10.5-6.1-10.7,0.5l-0.8,30.5l-22.3,12.5l2.7-53.7
		c0.2-9.7-13.9-10.4-14.7-0.8l-3.9,63.4l-110,61.7c-3.5-1.2-7-2.9-9.1-6.4c-1.4-2.4-1.2-3.8-1.7-5.3l20.8-31.2
		c14.1-1.4,44.1-4.4,46.9-4.6c3.2-0.3,5.7-3.1,5.6-6.4c-0.1-3.4-3-6.1-6.4-6l-35.6,1.2L478,159c12.6-2.6,36.6-7.5,40.4-8.3
		c6.1-1.3,5.1-10.3-1.1-10.3l-27.1,0.2l21.8-32.8c1.9-2.9,1.1-6.7-1.7-8.6c-2.9-1.9-6.7-1.1-8.6,1.7l-22.9,34.5l-11.5-19.2
		c-3.4-5.6-12-1.6-9.9,4.6c1.1,3.4,6.9,20.4,10.5,31.1l-16,24l-10.3-22.6c-3.3-6.9-13.8-2.7-11.3,4.6c0.9,2.4,7.7,21.7,11.7,33
		l-21.7,32.6c-1.6-0.3-3.5-0.5-5.6-1c-1.7-0.4-3.1-0.7-4.3-1.1l-0.2-120.2l68.2-36c8.3-4.6,1.8-16.9-6.6-12.8l-61.6,31.4V64.5
		c11.6-7.6,37.3-24.4,38.9-25.4c2.2-1.4,3-4.4,1.8-6.8c-1.3-2.6-4.5-3.6-7-2.3l-33.7,17.3L410.1,7c-0.3-9.3-13.8-9.3-14.2-0.2
		c0,0-0.4,15.4-1,38.3c-7.6-3.7-15.6-7.4-21.8-10.5c-7.1-3.3-12.6,6.9-5.8,11c7.1,4.1,19.3,11.3,27.2,15.9
		c-0.2,6.6-0.4,13.6-0.6,20.9l-48.1-26.3c-3-1.6-6.8-0.6-8.6,2.3c-1.8,3-0.8,7,2.2,8.8l54,32.4c-1.1,42.8-2.4,90.2-3.1,117.9
		c-6.3,0.9-11,3.1-13.8,4.5c-0.2,0.1-0.4,0.2-0.6,0.3L359.6,193c5.7-10.6,14.1-26.4,15.3-28.7c4.6-9.2-8.7-16.2-13.7-7.3l-10.6,19.8
		l-7.5-13.6l6.1-59.5c0.7-9.2-12.7-10.7-14-1.6c0,0-2.6,20.9-4.8,38.1l-15-26.9c-1.6-2.9-5.3-4.1-8.3-2.5s-4.2,5.4-2.6,8.4
		l13.7,25.9l-35.8-0.5c-7.7,0.1-8.3,11.2-0.6,12c0,0,34.8,3.1,44.5,4l12.8,24.3c-12-0.9-28.4-2.2-28.4-2.2
		c-6.6-0.5-7.9,9.2-1.5,10.6c2,0.4,26.1,5.2,38.3,7.7l16,30.3c-6.9,7-9.9,14.2-10.5,15.7c-0.3,0.6-0.4,1.2-0.7,1.9
		c-13.8-8.8-57.2-36.4-96.9-61.6c-0.3-16.6-1.8-98.4-1.8-98.4c-0.3-7.8-11.6-7.7-11.9,0l-1.6,88.7c-8-5.1-15.7-10-22.7-14.5
		l-0.6-39.1c-0.2-7-10.6-7.4-11.3-0.4l-2.7,30.3c-13.2-8.4-21.7-13.8-21.7-13.8c-7.1-4.2-13.4,5.9-6.7,10.5l22.8,14.8
		c-8.1,6-19.2,14.1-19.1,14.1c-5.3,3.9-0.1,12.2,5.8,9.1c1.1-0.6,17.3-9.3,26.8-14.5l22.2,14.4l-27.8,12.7c-6.5,3.1-2.6,13,4.3,10.7
		c2.2-0.8,25.7-9,38.2-13.3l100.8,65.6c0.2,0.2,0.5,0.2,0.7,0.4c0,2.1,0.1,4.1,0.3,5.8c0.3,2.6,1.8,4.8,4.2,5.9
		c5.7,2.7,17.5,9,30.6,19.5c15.1,12.2,31.8,29.8,37.1,35.6c1.2,1.3,2.9,2.2,4.7,2.4c2,0.2,4.4,0.2,7.1-0.2c12.3-2,19-12.3,20.8-15
		c0.9-1.3,2-3,3-5l91.4,57.1c1,13.4,5.9,79.3,5.9,79.3c0.7,6.8,10.6,6.3,10.7-0.5l-1-69.2l27.2,17c0.7,8.7,1.9,23.4,2,24.9
		c0.6,6.7,10.5,6.7,11.1,0l1.3-15.9l19.1,11.9c2.9,1.8,6.6,1,8.5-1.9s1.1-6.7-1.8-8.6l-21.4-14c6.1-6.7,14.5-15.9,14.5-15.9
		c3.5-3.9-1.6-9.7-5.9-6.7c-1.1,0.8-12.8,9.1-20.7,14.7l-26.2-17.2l54.4-27.8c5.7-3,1.7-11.5-4.3-9.1L556.9,359l-96.3-63.1
		c-0.6-0.4-1.2-0.6-1.7-0.9c-0.2-1.2-0.2-2.7-0.2-4.5c0.1-3.2,0.6-4.5,0.9-6.5c7.3,0.4,19.6,1.1,33.5,1.9
		c8,13.1,24.4,39.7,25.6,41.6c0.9,1.5,2.9,2.2,4.6,1.5c1.9-0.8,2.8-2.9,2-4.8l-15.5-37.3c8.5,0.5,17.2,1,25.3,1.5
		c0.2,0.4,0.5,0.7,0.8,1.1l28.5,30c3,3.2,8.3-0.8,5.9-4.6l-16.1-25.4c14.6,0.8,24.9,1.4,24.9,1.4c8.1,0.3,8.9-11.5,1-12.4l-18.9-1.8
		l8.3-11.9c4.1-5.9-4-12.6-9-7.5l-17,17.6c0,0,0,0.1-0.1,0.1l-29.9-2.9l7.4-10.3c4.2-5.9-4.1-12.7-9.1-7.5
		c-1.6,1.7-9.1,9.7-15.2,16.2l-39.8-3.8c-2.8-4.5-6.3-5.3-6.6-9.5c-0.1-0.8,0-1.5,0.2-2.2c16.5-9.6,65-37.9,108.4-63.2l64,39.8
		c3,1.9,7.1,1,9-2c2-3.1,1.2-7.2-1.9-9.2l-56.3-37.3c8.1-4.7,15.8-9.2,23-13.4c7.8,5.5,26.5,18.5,26.5,18.5
		c5.3,3.6,11.2-3.7,6.6-8.1l-19.6-18.3c16.4-9.6,27.2-15.8,27.2-15.8C643.9,141.8,637.9,131.5,630.8,135.3z"/>
	<path class="st0" d="M495.4,361.3l-38.4-9.6c-2.5-0.6-5,0.9-5.7,3.4c-0.6,2.5,0.9,5,3.4,5.7l38.4,9.6c0.4,0.1,0.8,0.1,1.1,0.1
		c2.1,0,4-1.4,4.5-3.5C499.4,364.4,497.9,361.9,495.4,361.3z"/>
	<path class="st0" d="M484.4,396.6c-1,2.4,0.1,5.1,2.5,6.1L516,415c0.6,0.3,1.2,0.4,1.8,0.4c1.8,0,3.5-1.1,4.3-2.8
		c1-2.4-0.1-5.1-2.5-6.1l-29.1-12.3C488.2,393.2,485.4,394.3,484.4,396.6z"/>
</g>
</svg>
