<?xml version="1.0" encoding="utf-8"?>
<!-- Generator: Adobe Illustrator 27.4.0, SVG Export Plug-In . SVG Version: 6.00 Build 0)  -->
<svg version="1.1" id="Layer_1" xmlns="http://www.w3.org/2000/svg" xmlns:xlink="http://www.w3.org/1999/xlink" x="0px" y="0px"
	 viewBox="0 0 712.8 368.6" style="enable-background:new 0 0 712.8 368.6;" xml:space="preserve">
<style type="text/css">
	.st0{fill:#FFF8E9;}
</style>
<g>
	<g>
		<path class="st0" d="M712.6,348.7c0,0.3,0,0.7,0,1s-0.1,0.6-0.1,0.9c-0.2,1-0.4,1.9-0.9,2.8c-0.4,0.9-1,1.8-1.6,2.6
			c-0.9,1.1-2,1.9-3.2,2.6c-0.7,0.4-1.4,0.7-2.1,0.9c-0.3,0.1-0.6,0.2-1,0.2c-0.2,0-0.4,0.1-0.7,0.1c-0.2,0-0.5,0.1-0.7,0.1
			c-0.4,0-0.7,0-1.1,0c-0.3,0-0.6,0-0.8,0c-0.3,0-0.7-0.1-1-0.2c-1.5-0.3-2.9-0.9-4.2-1.8c-1.4-1-2.5-2.2-3.4-3.7
			c-0.4-0.6-0.6-1.3-0.9-1.9c-0.2-0.5-0.3-1-0.4-1.5c0-0.3-0.1-0.5-0.1-0.8c0-0.2,0-0.4-0.1-0.6c0-0.2,0-0.5,0-0.7
			c0-0.3,0-0.6,0-0.9c0-0.2,0-0.4,0.1-0.6c0-0.3,0.1-0.5,0.1-0.8c0.1-0.3,0.2-0.7,0.3-1c0.2-0.7,0.5-1.3,0.8-2
			c0.5-1,1.1-1.8,1.9-2.6c0.8-0.9,1.8-1.6,2.9-2.1c0.6-0.3,1.2-0.6,1.9-0.8c0.3-0.1,0.6-0.2,1-0.2c0.2,0,0.5-0.1,0.7-0.1
			s0.4-0.1,0.7-0.1c0.4,0,0.7,0,1.1,0c0.2,0,0.4,0,0.6,0c0.1,0,0.3,0,0.4,0c0.2,0,0.4,0,0.6,0.1c0.2,0,0.4,0.1,0.6,0.1
			c0.3,0.1,0.5,0.1,0.8,0.2c0.6,0.2,1.3,0.4,1.9,0.7c1,0.5,1.9,1.2,2.8,2c0.8,0.8,1.4,1.6,2,2.6c0.4,0.7,0.7,1.4,0.9,2.2
			c0.1,0.4,0.2,0.8,0.3,1.2c0,0.2,0.1,0.5,0.1,0.7C712.5,347.7,712.6,348.2,712.6,348.7z M701.4,358c5.1,0,9.3-4.1,9.3-9.3
			c0-5.2-4.2-9.4-9.3-9.4c-5.1,0-9.4,4.2-9.3,9.4C692.1,353.9,696.3,358,701.4,358z"/>
		<path class="st0" d="M704,349L704,349c0.6,0.4,1,0.8,1.3,1.3c0.2,0.3,0.4,0.7,0.5,1c0.1,0.4,0.2,0.7,0.3,1.1
			c0.1,0.4,0.2,0.7,0.2,1.1c0.1,0.3,0.1,0.7,0.2,1c0,0.1,0,0.2,0.1,0.3c0,0,0,0,0,0.1h-0.1c-0.3,0-0.5,0-0.8,0s-0.5,0-0.8,0h-0.1
			c0,0,0,0,0-0.1c0-0.2-0.1-0.4-0.1-0.5c0-0.2-0.1-0.5-0.1-0.7c-0.1-0.3-0.1-0.6-0.2-0.9c-0.1-0.5-0.3-0.9-0.5-1.4
			c-0.1-0.2-0.3-0.5-0.4-0.7c-0.2-0.2-0.4-0.4-0.6-0.6c-0.3-0.2-0.7-0.4-1-0.4c-0.1,0-0.2,0-0.3,0c-0.7,0-1.4,0-2.1,0h-0.1l0,0v0.1
			c0,1.7,0,3.4,0,5.1v0.1h-0.1c-0.2,0-0.4,0-0.6,0c-0.3,0-0.7,0-1,0h-0.1l0,0c0-4,0-8.1,0-12.1c0,0,0,0,0.1,0c0.2,0,0.4-0.1,0.6-0.1
			s0.5-0.1,0.7-0.1s0.5,0,0.7-0.1c0.2,0,0.4,0,0.5,0s0.3,0,0.4,0c0.2,0,0.3,0,0.5,0s0.5,0,0.7,0s0.3,0,0.5,0c0.3,0,0.5,0.1,0.8,0.1
			c0.3,0.1,0.6,0.1,0.8,0.2c0.5,0.2,0.9,0.4,1.3,0.7c0.3,0.2,0.6,0.5,0.8,0.9c0.2,0.3,0.3,0.7,0.4,1c0,0.3,0,0.5,0,0.8
			s-0.1,0.6-0.2,0.8c-0.2,0.4-0.4,0.8-0.8,1.1c-0.3,0.3-0.6,0.5-0.9,0.6C704.2,348.9,704.1,348.9,704,349L704,349z M699.1,348.2
			C699.2,348.2,699.2,348.2,699.1,348.2c0.7,0,1.4,0,2.1,0c0.3,0,0.6,0,0.9,0s0.5-0.1,0.8-0.1c0.2-0.1,0.5-0.2,0.7-0.3
			c0.5-0.3,0.8-0.7,0.9-1.3c0-0.3,0-0.5,0-0.8c0-0.2-0.1-0.5-0.2-0.7c-0.2-0.3-0.4-0.4-0.6-0.6c-0.3-0.2-0.6-0.3-0.9-0.4
			c-0.4-0.1-0.7-0.1-1.1-0.2c-0.4,0-0.7,0-1.1,0s-0.8,0-1.1,0.1h-0.1h-0.1C699.1,344,699.1,348.1,699.1,348.2z"/>
	</g>
	<path class="st0" d="M2,51.7c13.9-1.2,27.9-1.8,41.4-6.2c9-2.9,18.1-5.7,27.1-8.6c8.5-2.7,17-5.4,25.5-8.1c9.6-3,19.1-6.2,28.8-8.8
		c10-2.7,20.2-4.8,30.4-7.2c6.2-1.4,12.4-3.1,18.6-4.3c11.8-2.1,23.6-4.6,35.6-5.8c19-1.9,38.1-3.3,57.2-2.5
		C284.7,1,302.9,1.5,321,2.7c8.4,0.6,16.7,2.3,25.1,3.7c15.4,2.6,30.8,5,46,8c10.5,2.1,20.8,5,31.1,7.8c8.8,2.3,17.6,4.8,26.3,7.3
		c7.2,2.1,14.3,4.4,21.5,6.5c11.4,3.2,22.7,6.4,34.2,9.5c10,2.7,19.9,5.4,30,7.6c13.8,3,27.8,5.5,41.7,8.2
		c6.3,1.2,12.5,2.5,18.8,3.4c10.3,1.4,20.7,2.2,31.1,3.5c15.9,2,31.9,1.8,47.9,1.5c5.8-0.1,5.8-0.3,5.8,5.5c0,21.1,0,42.2,0,63.3
		c0,3.8,0,3.8-3.9,3.9c-6.5,0.1-13,0.6-19.4,0.5c-17-0.2-34-1.1-50.8-3.8c-16.5-2.6-33-5.1-49.4-8.4c-17.2-3.5-34.3-7.3-51.2-11.8
		c-21.4-5.7-42.4-12.6-63.8-18.4c-18.6-5.1-37.4-9.6-56.2-13.8c-13.7-3.1-27.6-5.4-41.5-7.7c-9-1.5-18.1-2.3-27.1-3.1
		c-12.3-1.1-24.7-2.2-37.1-2.7c-10.4-0.5-20.8-0.3-31.3-0.2c-6.9,0.1-13.7,0.5-20.5,1.2c-9.8,1-19.6,2.2-29.3,3.6
		c-12.1,1.8-24.1,3.6-36,6.1s-23.7,5.7-35.5,8.9c-14.5,4-29,8.4-43.4,12.8c-12.3,3.8-24.4,8.2-36.6,12c-12.3,3.7-25,6.1-37.9,6.9
		c-2.4,0.1-4.8,0.5-7.3,0.7C2,100.6,2,76.2,2,51.7z"/>
	<path class="st0" d="M2,141.5c3.9-0.3,7.8-0.6,11.8-0.9c11.4-0.7,22.5-3.1,33.3-6.5c15.3-4.9,30.5-10,45.8-14.6
		c15.5-4.7,31.1-9.1,46.8-13.3c10.4-2.8,20.9-5.4,31.5-7.3c15.2-2.7,30.6-5,45.9-6.9c15.9-1.9,31.8-3.4,47.8-2.7
		c14.6,0.6,29.3,1.3,43.9,2.8c17,1.6,34,3.6,50.9,6.3c14.9,2.4,29.6,5.8,44.4,9.2c12.2,2.8,24.4,6,36.5,9.5
		c11.5,3.3,22.7,7.3,34.2,10.5c16.7,4.6,33.5,8.9,50.4,13.1c11.8,2.9,23.7,5.9,35.7,8c17.7,3.2,35.5,6.2,53.4,8.2
		c16,1.9,32.2,2.5,48.3,3.3c5.8,0.3,11.6-0.6,17.6-0.9c0,15.4,0,30.9,0,46.6c-14.8,0.6-29.4,1-43.9-0.5c-10.9-1.1-21.9-1.8-32.8-3
		c-7.3-0.8-14.4-2.4-21.7-3.5c-24.8-3.9-49.4-9.5-73.6-15.9c-17.5-4.6-34.9-9.7-52.2-14.9c-22.7-6.8-45.5-13.5-68.9-17.7
		c-6.8-1.2-13.6-3-20.4-4.1c-17.1-2.6-34.2-4.9-51.3-7.2c-24.8-3.4-49.7-3.4-74.6-2.6c-14.4,0.5-28.8,2.7-43.1,4.6
		c-11.1,1.5-22.3,3.4-33.2,5.7c-12.7,2.7-25.4,5.9-37.9,9.4c-16.1,4.6-32.1,9.7-48.2,14.7c-11.4,3.6-22.5,7.9-34,10.9
		c-13.4,3.5-27.1,6.5-41.1,5.9c-0.4,0-0.7,0.1-1.1,0.2C2,172.4,2,156.9,2,141.5z"/>
	<path class="st0" d="M2,205.9c9.2,0.3,18.1-1.1,27.1-2.8c12-2.2,23.4-6,34.9-9.9c12.6-4.3,25.3-8.2,38-12.1c10.5-3.2,21-6.3,31.6-9
		c11.5-2.9,23-5.3,34.6-7.7c7.7-1.6,15.4-3.1,23.2-4.4c15.9-2.5,31.8-4.6,47.8-5.5c17.8-1.1,35.5-0.7,53.3,0.7
		c13.8,1.1,27.5,2.3,41.2,4.1c11.6,1.5,23.2,3.4,34.7,5.6c14.7,2.8,29.4,5.9,44,9.1c9.6,2.1,19.1,4.7,28.6,7.3
		c6.1,1.7,12,3.9,18,5.7c12.9,3.8,25.7,7.7,38.7,11.1c18.8,4.9,37.6,9.7,56.6,13.7c16.3,3.4,32.8,6,49.4,8.4
		c12.3,1.7,24.7,2.8,37,3.4c12.5,0.6,25,0.2,37.5,0.1c1.5,0,2.1,0.4,2.1,1.9c0,5.2,0,10.4-0.1,15.5c0,0.6-1,1.7-1.5,1.7
		c-10.3,0.1-20.7,0.7-31,0.1c-17.7-1.1-35.4-2-52.9-5.3c-15.5-2.9-31.1-5.1-46.5-8.2c-11.9-2.4-23.8-5.4-35.5-8.6
		c-22.2-6.1-44.3-12.2-66.3-18.8c-21-6.3-42.3-11.8-63.8-15.9c-12.7-2.4-25.4-4.8-38.2-6.9c-6.5-1.1-13.1-1.4-19.6-2.1
		c-9.9-1.1-19.8-2.2-29.7-3.2c-4.4-0.4-8.8-0.7-13.2-0.7c-11.9-0.1-23.7-0.1-35.6-0.1c-14.4,0.1-28.7,1.7-42.9,4.2
		c-6.5,1.1-13.1,1.4-19.5,2.7c-12.8,2.5-25.5,5.2-38.2,8.1c-9.9,2.3-19.7,4.7-29.4,7.7c-16.7,5-33.3,10.3-49.9,15.8
		c-14.4,4.7-28.7,9.4-43.7,11.7c-4.4,0.7-9,0.9-13.4,1.3c-2.4,0.2-4.9,0.2-7.3,0.2C2,218.3,2,212.1,2,205.9z"/>
	<path class="st0" d="M344.2,305.2c10.3,14.5,20.7,28.2,32,41.6c-0.9,0.6-1.8,1.2-2.7,1.7c-2.8,1.5-5.7,2.9-8.4,4.6
		c-1.7,1.1-2.5,0.8-3.6-0.8c-10.3-14.3-20.7-28.5-31.7-42.6c-0.1,1-0.2,2-0.1,3c0.2,11.8,0.3,23.5,0.7,35.3c0.1,2.7-0.5,3.9-3.5,3.7
		c-4.2-0.2-8.4-0.1-12.4-0.1c0-31.3,0-63.3,0-95.4c-0.1,0.1,0.1-0.1,0.2-0.1c10-0.1,20-0.3,29.9,0c4,0.1,8,1.1,11.8,2.3
		c18.1,6.2,17.4,27.4,6.5,37.1C357.7,300.3,351.7,303.3,344.2,305.2z M329.6,305.7c3.3-2.1,6.1-3.7,8.8-5.6c1.3-0.9,2.2-1.2,3.8-0.3
		c3.7,2.1,6.6,1.3,9.1-1.8c6.1-7.6,6.8-15.9,2.4-24.3c-4.2-8-11.6-10.8-20.4-10.3c-3.7,0.2-3.7,0.2-3.7,3.9c0,11.1,0,22.2,0,33.3
		C329.6,302.1,329.6,303.6,329.6,305.7z"/>
	<path class="st0" d="M680.3,258.3c-1.3,31-2.2,62,0.1,93.2c-5.6,0.2-10.7,0.5-16.2,0.7c0.2-1.8,0.4-3.4,0.4-5.1
		c0.2-12,0.4-24.1,0.5-36.1c0-0.8-1-2.2-1.6-2.2c-11.8-0.2-23.5-0.3-35.3-0.3c-0.7,0-1.5,0.2-2.2,0.3c0,14.3,0,28.4,0,42.7
		c-4.9,0.2-9.7,0.4-14.7,0.7c0-31.3,0-62.4,0-93.9c4.8,0,9.7,0,14.8,0c0,3.9,0,7.9,0,11.9c-0.1,9.2-0.2,18.4-0.4,27.7
		c0,1.9,0.6,2.4,2.4,2.4c11.5-0.1,23-0.1,34.5-0.1c2.2,0,2.7-0.9,2.7-2.9c-0.2-11.4-0.4-22.8-0.6-34.2c0-1.5-0.3-3-0.5-4.8
		C669.4,258.3,674.5,258.3,680.3,258.3z"/>
	<path class="st0" d="M96.1,333.7c-1.4,1.1-2.5,2.1-3.7,2.8c-7.1,4.5-14,9.2-21.2,13.3c-11.2,6.4-23,5.1-34.4,0.9
		c-18-6.6-28.3-19.8-31.4-38.6c-1.6-9.6-1.7-19.1,0.3-28.6c2.9-14.2,10.3-25.8,21.4-34.9c5.4-4.4,11.5-8.1,17.7-11.6
		c14.7-8.2,29.7-7.6,44.5-0.2c1.1,0.6,2.3,1.2,3.8,2c-4,4.8-7.8,9.4-11.6,14.1c-12.9-7.8-26.4-8.9-40.5-6
		c-7.3,1.5-12.4,5.9-16.1,12.2c-4,6.9-6,14.3-6.7,22.2c-1.3,13.9,0.9,26.9,9.5,38.2c8.7,11.5,20.2,18,34.7,18.9
		c10.5,0.7,20.7-0.2,29.7-6.5C94.1,330.7,94.7,332.5,96.1,333.7z"/>
	<path class="st0" d="M434.1,353.7c-6.5,0-13.2,0-20.1,0c0.1-1.6,0.3-3.6,0.3-5.6c0.3-28.7,0.6-57.4,0.9-86.1
		c0-3.8,0.2-7.5,0.1-11.3c0-3.9-0.1-4.1-3.9-4.1c-7.2,0-14.5,0.2-21.7,0.3c-1.6,0-3.2,0.2-5.5,0.3c2.7-3.9,5-7.5,7.6-10.7
		c0.6-0.7,2.4-0.7,3.7-0.7c18.3,0.2,36.5,0.4,54.8,0.6c4.2,0,8.5-0.3,12.7-0.5c1,0,2,0,3.6,0c-2.8,3.8-5.2,7.2-7.9,10.5
		c-0.5,0.6-1.9,0.7-2.8,0.7c-7.2,0.1-14.5,0-21.7,0C434.1,282.5,434.1,317.7,434.1,353.7z"/>
	<path class="st0" d="M302.7,350.9c-4.9,1.1-9.4,2.1-13.9,2.9c-0.6,0.1-1.7-1.2-2-2c-3.5-9.4-6.9-18.9-10.2-28.4
		c-0.8-2.1-1.7-3-4.2-3c-8.5,0.2-16.9,0.1-25.4,0c-2.2,0-3.5,0.6-4.1,2.8c-2.6,8.3-5.3,16.6-7.9,25c-1.3,4.2-1.2,4.2-5.4,4.5
		c-1.8,0.1-3.7,0.5-5.9,0.8c0.3-1.1,0.4-1.8,0.6-2.4c9.2-25.7,18.3-51.5,27.8-77.1c1.8-5,2.4-9.2-0.8-13.5c-0.4-0.5-0.4-1.2-0.6-1.7
		c3.9-1.1,7.7-2,11.5-3.2c2.1-0.7,3-0.1,3.7,1.9c4.1,11.1,8.1,22.2,12.4,33.2c7.4,18.7,14.9,37.3,22.5,56
		C301.3,348,302,349.4,302.7,350.9z M246.7,311.4c8.4,0,16.6,0,25.3,0c-4-11.9-8.4-23.2-13.3-34.4c-0.3,0-0.5,0.1-0.8,0.1
		C254.2,288.4,250.6,299.7,246.7,311.4z"/>
	<path class="st0" d="M167.3,258.3c15.5,0,31,0,47,0c-1.2,2.5-2.3,5.1-3.7,7.4c-0.4,0.7-1.9,1.1-2.9,1.1c-7.4,0-14.9,0.1-22.3-0.2
		c-2.7-0.1-3.7,0.6-3.6,3.4c0.1,9.5,0.1,19,0,28.5c0,2,1,2.1,2.5,2c9-0.1,18.1-0.2,27.1-0.2c0.6,0,1.2,0.1,2.2,0.3
		c-1.3,2.8-2.3,5.4-3.6,7.8c-0.3,0.6-1.8,0.8-2.7,0.8c-7.5,0-15.1,0-22.6-0.2c-2.3-0.1-2.9,0.7-2.9,2.9c0.1,9.9,0.1,19.8-0.1,29.7
		c0,2.1,0.6,2.7,2.7,2.7c10.2-0.1,20.3,0,30.8,0c-1.2,3-2.2,5.9-3.6,8.5c-0.4,0.7-2.1,1.1-3.2,1.1c-11.3-0.1-22.6-0.3-33.9-0.5
		c-2.4,0-4.9,0-7.2,0C167.3,321.7,167.3,290.3,167.3,258.3z"/>
	<path class="st0" d="M483.9,308.4c0,1.2,0,2.2,0,3.2c0,9.6,0.1,19.2,0,28.8c0,2.4,0.7,3,3.1,2.9c7.9-0.2,15.8-0.1,23.7-0.1
		c1.9,0,3.9-0.3,6.2-0.5c-1.3,3-2.4,5.7-3.7,8.2c-0.3,0.6-1.5,1.2-2.2,1.2c-13.6-0.1-27.3-0.3-40.9-0.4c-0.2,0-0.3-0.1-0.7-0.3
		c0-2.1,0-4.4,0-6.6c0-27.9,0-55.7-0.2-83.6c0-2.9,0.8-3.3,3.4-3.3c13.2,0.1,26.4,0,39.5,0c1.3,0,2.5,0.2,3.9,0.2
		c-1.2,2.8-2.1,5.3-3.3,7.7c-0.3,0.5-1.3,0.9-2,0.9c-8,0-16,0-24-0.1c-2,0-2.8,0.5-2.8,2.7c0.1,9.5,0.1,19,0,28.5
		c0,1.8,0.5,2.4,2.4,2.4c9.5-0.1,19,0,28.7,0c-1.1,2.3-2.2,4.9-3.6,7.2c-0.4,0.7-2,0.8-3,0.8c-7.3,0-14.7,0-22-0.1
		C485.7,308.2,485,308.3,483.9,308.4z"/>
	<path class="st0" d="M597,260.4c-2.8,3.4-5.4,6.5-8,9.7c-1.3,1.6-2.6,0.7-3.7,0c-9.4-5.4-19.4-5.4-29.6-3.6
		c-7.3,1.3-11.8,6.2-14.6,12.5c-5.2,12.1-6.3,24.4-1.2,37c5.4,13.5,18.9,23.2,33.5,23.7c8.1,0.3,16-0.1,22.9-5.1
		c0.5-0.4,1.7,0.3,2.6,0.4c-0.3,0.8-0.3,1.9-0.8,2.3c-4.9,3.3-9.8,6.6-14.9,9.7c-12.8,7.8-25.6,6.3-38-0.7
		c-10.4-5.9-16.2-15.2-18.1-26.9c-2.9-17.5-0.3-33.7,12.4-46.9c9.3-9.7,20.2-16.9,34-18.3C582,253.5,589.8,255.4,597,260.4z"/>
	<path class="st0" d="M122.1,344.1c11,0,21.9,0,33,0c-1.3,3.2-2.6,6.4-3.9,9.5c-15,0-30.1,0-44.9,0c0-31.9,0-63.4,0-95.4
		c2.3,0,5,0,7.7,0c2.6,0,5.3,0,8.1,0C122.1,286.7,122.1,315.3,122.1,344.1z"/>
</g>
</svg>
