<svg width="49" height="48" viewBox="0 0 49 48" fill="none" xmlns="http://www.w3.org/2000/svg">
<path d="M16.3333 23C14.2116 23 12.1767 23.8429 10.6765 25.3431C9.17617 26.8434 8.33331 28.8783 8.33331 31C8.33331 33.1217 9.17617 35.1566 10.6765 36.6569C12.1767 38.1571 14.2116 39 16.3333 39C18.455 39 20.4899 38.1571 21.9902 36.6569C23.4905 35.1566 24.3333 33.1217 24.3333 31C24.3333 28.8783 23.4905 26.8434 21.9902 25.3431C20.4899 23.8429 18.455 23 16.3333 23Z" fill="#EFE2D2"/>
<path d="M16.3333 41C21.8553 41 26.3333 36.522 26.3333 31C26.3333 25.478 21.8553 21 16.3333 21C10.8113 21 6.33331 25.478 6.33331 31C6.33331 36.522 10.8113 41 16.3333 41ZM16.3333 25C19.6473 25 22.3333 27.686 22.3333 31C22.3333 34.314 19.6473 37 16.3333 37C13.0193 37 10.3333 34.314 10.3333 31C10.3333 27.686 13.0193 25 16.3333 25ZM16.3333 29C17.4373 29 18.3333 29.896 18.3333 31C18.3333 32.104 17.4373 33 16.3333 33C15.2293 33 14.3333 32.104 14.3333 31C14.3333 29.896 15.2293 29 16.3333 29Z" fill="black"/>
<path d="M13.5453 40H19.1213L18.7093 43.552C18.6793 43.808 18.4633 44 18.2053 44H14.4613C14.2033 44 13.9873 43.808 13.9573 43.552L13.5453 40ZM31.5453 20H37.1213L36.7093 23.552C36.6793 23.808 36.4633 24 36.2053 24H32.4613C32.2033 24 31.9873 23.808 31.9573 23.552L31.5453 20ZM37.1213 8H31.5453L31.9573 4.448C31.9873 4.192 32.2033 4 32.4613 4H36.2053C36.4633 4 36.6793 4.192 36.7093 4.448L37.1213 8ZM40.9233 13.414L38.1353 8.584L41.4173 7.166C41.6533 7.064 41.9293 7.154 42.0573 7.378L43.9293 10.62C44.0573 10.844 43.9993 11.128 43.7933 11.28L40.9233 13.414ZM27.7433 14.586L30.5313 19.416L27.2493 20.834C27.0133 20.936 26.7373 20.846 26.6093 20.622L24.7373 17.38C24.6093 17.156 24.6673 16.872 24.8733 16.72L27.7433 14.586ZM30.5313 8.586L27.7433 13.416L24.8733 11.282C24.6673 11.128 24.6073 10.844 24.7373 10.622L26.6093 7.38C26.7373 7.156 27.0133 7.066 27.2493 7.168L30.5313 8.586ZM38.1353 19.414L40.9233 14.584L43.7933 16.716C43.9993 16.87 44.0593 17.154 43.9293 17.376L42.0573 20.618C41.9293 20.842 41.6533 20.932 41.4173 20.83L38.1353 19.414ZM19.1213 22H13.5453L13.9573 18.448C13.9873 18.192 14.2033 18 14.4613 18H18.2053C18.4633 18 18.6793 18.192 18.7093 18.448L19.1213 22ZM25.5213 28.914L22.7333 24.086L26.0153 22.668C26.2513 22.566 26.5273 22.656 26.6553 22.88L28.5273 26.122C28.6553 26.346 28.5973 26.63 28.3913 26.782L25.5213 28.914ZM7.14533 33.086L9.93333 37.914L6.65133 39.332C6.41533 39.434 6.13933 39.344 6.01133 39.12L4.13933 35.878C4.01133 35.654 4.06933 35.37 4.27533 35.218L7.14533 33.086ZM9.93333 24.086L7.14533 28.916L4.27533 26.784C4.06933 26.63 4.00933 26.346 4.13933 26.124L6.01133 22.882C6.13933 22.658 6.41533 22.568 6.65133 22.67L9.93333 24.086ZM22.7333 37.914L25.5213 33.084L28.3913 35.216C28.5973 35.37 28.6573 35.654 28.5273 35.876L26.6553 39.118C26.5273 39.342 26.2513 39.432 26.0153 39.33L22.7333 37.914Z" fill="black"/>
<path d="M34.3333 22C38.7513 22 42.3333 18.418 42.3333 14C42.3333 9.582 38.7513 6 34.3333 6C29.9153 6 26.3333 9.582 26.3333 14C26.3333 18.418 29.9153 22 34.3333 22ZM34.3333 10C36.5433 10 38.3333 11.79 38.3333 14C38.3333 16.21 36.5433 18 34.3333 18C32.1233 18 30.3333 16.21 30.3333 14C30.3333 11.79 32.1233 10 34.3333 10Z" fill="black"/>
</svg>
