<svg width="48" height="48" viewBox="0 0 48 48" fill="none" xmlns="http://www.w3.org/2000/svg">
<path d="M8 24H18C19.104 24 20 23.104 20 22V8C20 6.896 19.104 6 18 6H8C6.896 6 6 6.896 6 8V22C6 23.104 6.896 24 8 24Z" fill="#EFE2D2"/>
<path d="M30 16H40C41.104 16 42 15.104 42 14V8C42 6.896 41.104 6 40 6H30C28.896 6 28 6.896 28 8V14C28 15.104 28.896 16 30 16Z" fill="#EFE2D2"/>
<path d="M8 42H18C19.104 42 20 41.104 20 40V34C20 32.896 19.104 32 18 32H8C6.896 32 6 32.896 6 34V40C6 41.104 6.896 42 8 42Z" fill="#EFE2D2"/>
<path d="M30 42H40C41.104 42 42 41.104 42 40V26C42 24.896 41.104 24 40 24H30C28.896 24 28 24.896 28 26V40C28 41.104 28.896 42 30 42Z" fill="#EFE2D2"/>
<path d="M18 26H8C5.794 26 4 24.206 4 22V8C4 5.794 5.794 4 8 4H18C20.206 4 22 5.794 22 8V22C22 24.206 20.206 26 18 26ZM8 8V22H18V8H8Z" fill="black"/>
<path d="M40 18H30C27.794 18 26 16.206 26 14V8C26 5.794 27.794 4 30 4H40C42.206 4 44 5.794 44 8V14C44 16.206 42.206 18 40 18ZM30 8V14H40V8H30Z" fill="black"/>
<path d="M18 44H8C5.794 44 4 42.206 4 40V34C4 31.794 5.794 30 8 30H18C20.206 30 22 31.794 22 34V40C22 42.206 20.206 44 18 44ZM8 34V40H18V34H8Z" fill="black"/>
<path d="M40 44H30C27.794 44 26 42.206 26 40V26C26 23.794 27.794 22 30 22H40C42.206 22 44 23.794 44 26V40C44 42.206 42.206 44 40 44ZM30 26V40H40V26H30Z" fill="black"/>
</svg>
