<svg width="49" height="48" viewBox="0 0 49 48" fill="none" xmlns="http://www.w3.org/2000/svg">
<path d="M38.6666 8H28.6666C28.6666 10.21 26.8766 12 24.6666 12C22.4566 12 20.6666 10.21 20.6666 8H10.6666C9.56263 8 8.66663 8.896 8.66663 10V38C8.66663 39.104 9.56263 40 10.6666 40H38.6666C39.7706 40 40.6666 39.104 40.6666 38V10C40.6666 8.896 39.7706 8 38.6666 8Z" fill="#EFE2D2"/>
<path d="M38.6666 8H28.6666C28.6666 10.21 26.8766 12 24.6666 12C22.4566 12 20.6666 10.21 20.6666 8H10.6666C9.56263 8 8.66663 8.896 8.66663 10V38C8.66663 39.104 9.56263 40 10.6666 40H38.6666C39.7706 40 40.6666 39.104 40.6666 38V10C40.6666 8.896 39.7706 8 38.6666 8Z" stroke="black" stroke-width="4" stroke-miterlimit="10"/>
<path d="M16.6666 24L22.6666 30L32.6666 20" stroke="black" stroke-width="4" stroke-miterlimit="10"/>
</svg>
