<svg width="49" height="48" viewBox="0 0 49 48" fill="none" xmlns="http://www.w3.org/2000/svg">
<path d="M12.3333 31.6C12.5333 27.4 16.1333 24 20.3333 24C24.5333 24 28.1333 27.4 28.3333 31.6L30.7333 29.2C32.1333 27.8 34.3333 27.8 35.7333 29.2L38.1333 31.6V16.8L27.5333 6H12.3333C11.1333 6 10.3333 7 10.3333 8V32L12.3333 31.6Z" fill="#FFF8E9"/>
<path d="M40.3333 32H36.3333V17.6L26.7333 8H12.3333V32H8.33331V8C8.33331 5.8 10.1333 4 12.3333 4H28.3333L40.3333 16V32Z" fill="black"/>
<path d="M37.3333 18H26.3333V7L37.3333 18ZM20.3333 28C19.2724 28 18.255 28.4214 17.5049 29.1716C16.7547 29.9217 16.3333 30.9391 16.3333 32C16.3333 33.0609 16.7547 34.0783 17.5049 34.8284C18.255 35.5786 19.2724 36 20.3333 36C21.3942 36 22.4116 35.5786 23.1617 34.8284C23.9119 34.0783 24.3333 33.0609 24.3333 32C24.3333 30.9391 23.9119 29.9217 23.1617 29.1716C22.4116 28.4214 21.3942 28 20.3333 28ZM28.3333 36C27.2724 36 26.255 36.4214 25.5049 37.1716C24.7547 37.9217 24.3333 38.9391 24.3333 40C24.3333 41.0609 24.7547 42.0783 25.5049 42.8284C26.255 43.5786 27.2724 44 28.3333 44C29.3942 44 30.4116 43.5786 31.1617 42.8284C31.9119 42.0783 32.3333 41.0609 32.3333 40C32.3333 38.9391 31.9119 37.9217 31.1617 37.1716C30.4116 36.4214 29.3942 36 28.3333 36Z" fill="black"/>
<path d="M11.1333 44L8.33331 41.2L20.3333 29.2L28.3333 37.2L33.3333 32.2L36.1333 35L28.3333 42.8L20.3333 34.8L11.1333 44Z" fill="black"/>
</svg>
