<svg width="49" height="48" viewBox="0 0 49 48" fill="none" xmlns="http://www.w3.org/2000/svg">
<g clip-path="url(#clip0_342_26994)">
<path d="M9.92469 30.104C10.7787 30.104 11.6687 30.29 12.5267 30.58V37.72H2.50269V34.084C3.06269 32.546 6.75669 30.104 9.92469 30.104ZM46.6667 34.364V38H36.6427V30.86C37.5007 30.57 38.3907 30.384 39.2447 30.384C42.4127 30.384 46.1067 32.826 46.6667 34.364ZM36.0707 37.238H13.2627V33.19C14.1247 31.48 19.7987 28.762 24.6667 28.762C29.5347 28.762 35.2087 31.48 36.0707 33.19V37.238ZM24.6667 10C23.3406 10 22.0688 10.5268 21.1312 11.4645C20.1935 12.4021 19.6667 13.6739 19.6667 15C19.6667 16.3261 20.1935 17.5979 21.1312 18.5355C22.0688 19.4732 23.3406 20 24.6667 20C25.9928 20 27.2645 19.4732 28.2022 18.5355C29.1399 17.5979 29.6667 16.3261 29.6667 15C29.6667 13.6739 29.1399 12.4021 28.2022 11.4645C27.2645 10.5268 25.9928 10 24.6667 10ZM39.6667 16C38.871 16 38.108 16.3161 37.5454 16.8787C36.9828 17.4413 36.6667 18.2044 36.6667 19C36.6667 19.7956 36.9828 20.5587 37.5454 21.1213C38.108 21.6839 38.871 22 39.6667 22C40.4623 22 41.2254 21.6839 41.788 21.1213C42.3506 20.5587 42.6667 19.7956 42.6667 19C42.6667 18.2044 42.3506 17.4413 41.788 16.8787C41.2254 16.3161 40.4623 16 39.6667 16ZM9.66669 16C8.87104 16 8.10797 16.3161 7.54537 16.8787C6.98276 17.4413 6.66669 18.2044 6.66669 19C6.66669 19.7956 6.98276 20.5587 7.54537 21.1213C8.10797 21.6839 8.87104 22 9.66669 22C10.4623 22 11.2254 21.6839 11.788 21.1213C12.3506 20.5587 12.6667 19.7956 12.6667 19C12.6667 18.2044 12.3506 17.4413 11.788 16.8787C11.2254 16.3161 10.4623 16 9.66669 16Z" fill="#EFE2D2"/>
<path d="M39.6666 14C36.9046 14 34.6666 16.238 34.6666 19C34.6666 21.762 36.9046 24 39.6666 24C42.4286 24 44.6666 21.762 44.6666 19C44.6666 16.238 42.4286 14 39.6666 14ZM39.6666 20.554C38.8086 20.554 38.1126 19.858 38.1126 19C38.1126 18.142 38.8086 17.446 39.6666 17.446C40.5246 17.446 41.2206 18.142 41.2206 19C41.2206 19.858 40.5246 20.554 39.6666 20.554ZM24.6666 8C20.8006 8 17.6666 11.134 17.6666 15C17.6666 18.866 20.8006 22 24.6666 22C28.5326 22 31.6666 18.866 31.6666 15C31.6666 11.134 28.5326 8 24.6666 8ZM24.6666 18C23.0126 18 21.6666 16.654 21.6666 15C21.6666 13.346 23.0126 12 24.6666 12C26.3206 12 27.6666 13.346 27.6666 15C27.6666 16.654 26.3206 18 24.6666 18ZM24.6666 26C19.9946 26 10.6666 28.344 10.6666 33V40H38.6666V33C38.6666 28.344 29.3386 26 24.6666 26ZM34.6666 36H14.6666V33.134C15.4226 31.924 20.3986 30 24.6666 30C28.9346 30 33.9106 31.924 34.6666 33.134V36Z" fill="black"/>
<path d="M39.6666 28C37.3526 28 35.0366 28.756 33.3286 29.902C35.0846 30.7 36.3546 31.668 36.6066 32.65C37.4466 32.286 38.4926 32 39.6666 32C42.2706 32 44.2986 33.378 44.6666 34.018V36H39.6666H36.6666V40H39.6666H48.6666V33.864C48.6666 30.796 44.1406 28 39.6666 28ZM4.66663 19C4.66663 21.762 6.90463 24 9.66663 24C12.4286 24 14.6666 21.762 14.6666 19C14.6666 16.238 12.4286 14 9.66663 14C6.90463 14 4.66663 16.238 4.66663 19ZM8.11263 19C8.11263 18.142 8.80863 17.446 9.66663 17.446C10.5246 17.446 11.2206 18.142 11.2206 19C11.2206 19.858 10.5246 20.554 9.66663 20.554C8.80863 20.554 8.11263 19.858 8.11263 19ZM9.66663 28C11.9806 28 14.2966 28.756 16.0046 29.902C14.2486 30.7 12.9786 31.668 12.7266 32.65C11.8866 32.286 10.8406 32 9.66663 32C7.06263 32 5.03463 33.378 4.66663 34.018V36H9.66663H12.6666V40H9.66663H0.666626V33.864C0.666626 30.796 5.19263 28 9.66663 28Z" fill="black"/>
</g>
<defs>
<clipPath id="clip0_342_26994">
<rect width="48" height="48" fill="white" transform="translate(0.666626)"/>
</clipPath>
</defs>
</svg>
