<svg width="49" height="48" viewBox="0 0 49 48" fill="none" xmlns="http://www.w3.org/2000/svg">
<path d="M24.6667 10.782C13.4207 10.782 7.67065 20.224 5.81665 24.006C7.66665 27.814 13.3767 37.218 24.6667 37.218C35.9127 37.218 41.6626 27.776 43.5166 23.994C41.6666 20.186 35.9566 10.782 24.6667 10.782ZM24.6667 30C21.3527 30 18.6667 27.314 18.6667 24C18.6667 20.686 21.3527 18 24.6667 18C27.9806 18 30.6667 20.686 30.6667 24C30.6667 27.314 27.9806 30 24.6667 30Z" fill="#EFE2D2"/>
<path d="M4.66663 10V6C4.66663 4.896 5.56263 4 6.66663 4H10.6666" stroke="black" stroke-width="4" stroke-miterlimit="10" stroke-linecap="square"/>
<path d="M44.6666 38V42C44.6666 43.104 43.7706 44 42.6666 44H38.6666" stroke="black" stroke-width="4" stroke-miterlimit="10" stroke-linecap="square"/>
<path d="M10.6666 44H6.66663C5.56263 44 4.66663 43.104 4.66663 42V38" stroke="black" stroke-width="4" stroke-miterlimit="10" stroke-linecap="square"/>
<path d="M38.6666 4H42.6666C43.7706 4 44.6666 4.896 44.6666 6V10" stroke="black" stroke-width="4" stroke-miterlimit="10" stroke-linecap="square"/>
<path d="M24.6666 16C20.2486 16 16.6666 19.582 16.6666 24C16.6666 28.418 20.2486 32 24.6666 32C29.0846 32 32.6666 28.418 32.6666 24C32.6666 19.582 29.0846 16 24.6666 16ZM24.6666 28C22.4566 28 20.6666 26.21 20.6666 24C20.6666 21.79 22.4566 20 24.6666 20C26.8766 20 28.6666 21.79 28.6666 24C28.6666 26.21 26.8766 28 24.6666 28Z" fill="black"/>
<path d="M24.6666 8C8.66663 8 2.66663 24 2.66663 24C2.66663 24 8.66663 40 24.6666 40C40.6666 40 46.6666 24 46.6666 24C46.6666 24 40.6666 8 24.6666 8ZM24.6666 36C14.1146 36 8.77863 27.464 7.05063 24.006C8.78263 20.572 14.1566 12 24.6666 12C35.2186 12 40.5546 20.536 42.2826 23.994C40.5526 27.428 35.1766 36 24.6666 36Z" fill="black"/>
</svg>
