<svg width="642" height="216" viewBox="0 0 642 216" fill="none" xmlns="http://www.w3.org/2000/svg">
<rect width="642" height="216" fill="transparent"/>
<g clip-path="url(#clip0_33_733)">
<path d="M114.593 134.545H138.014C176.869 134.545 173.937 96.3804 173.937 96.3804C173.937 96.3804 173.264 63.0039 130.413 63.0039C118.152 63.0001 98.5582 66.4804 88.6255 68.8878L87.9985 76.929C95.7367 75.8753 114.639 74.064 125.458 74.064C141.89 74.064 155.516 80.1209 155.516 98.2109C155.516 114.513 147.101 122.158 137.819 122.158H133.789L136.894 81.4554H113.473C74.6173 81.4554 77.5497 119.62 77.5497 119.62C77.5497 119.62 78.2226 152.996 121.073 152.996C133.338 152.996 152.928 149.516 162.865 147.109L163.492 139.067C155.753 140.121 136.851 141.932 126.032 141.932C109.6 141.932 95.9737 135.875 95.9737 117.785C95.9737 101.484 104.389 93.8384 113.671 93.8384H117.701L114.597 134.541L114.593 134.545Z" fill="#FE5000"/>
<path d="M269.658 98.6762C267.292 94.7729 263.843 93.0577 258.414 93.0577C249.024 93.0577 242.28 99.5146 242.253 114.936C242.261 129.761 249.353 136.295 259.416 136.295C264.172 136.295 267.467 134.383 269.574 130.157L270.851 135.06H280.914L280.967 94.296H270.824L269.654 98.6801L269.658 98.6762ZM261.626 126.85C257.94 126.85 256.025 123.342 256.013 115.013C255.983 106.287 258.162 102.58 261.962 102.58C265.923 102.58 267.513 107.441 267.575 114.417C267.513 121.627 265.904 126.85 261.626 126.85Z" fill="#FE5000"/>
<path d="M311.966 126.85H304.549L303.895 102.583H312.176L312.126 94.2961H303.887L303.918 83.459H294.337L293.92 86.7663C293.282 90.9888 292.513 94.2961 288.396 94.2961H286.178L286.094 102.507H290.689L291.034 124.819C291.118 130.261 296.004 135.068 301.456 135.068L311.981 135.075L311.966 126.853V126.85Z" fill="#FE5000"/>
<path d="M343.148 98.6762C340.781 94.7729 337.333 93.0577 331.904 93.0577C322.514 93.0577 315.77 99.5146 315.705 114.936C315.705 119.758 316.454 123.704 317.884 126.85C320.69 133.345 326.135 136.295 332.909 136.295C337.623 136.295 340.961 134.383 343.025 130.157L344.344 135.06H354.407L354.461 94.296H344.318L343.148 98.6801V98.6762ZM335.115 126.85C331.43 126.85 329.476 123.342 329.461 115.013C329.472 106.287 331.648 102.58 335.452 102.58C339.256 102.58 341.003 107.441 341.064 114.417C341.003 121.627 339.393 126.85 335.115 126.85Z" fill="#FE5000"/>
<path d="M528.776 94.2922H515.345L506.861 107.279L506.605 79.7056H494.008L493.927 135.056H506.922L507.029 125.615L506.938 115.493L516.045 135.056H529.632L517.191 111.871L528.776 94.2922Z" fill="#FE5000"/>
<path d="M408.429 114.79C408.429 100.68 416.737 93.0885 428.325 93.0885C439.913 93.0885 448.144 100.68 448.144 114.79C448.144 128.899 439.913 136.26 428.325 136.26C416.737 136.26 408.429 128.745 408.429 114.79ZM434.346 114.79C434.346 105.741 432.137 102.214 428.325 102.214C424.513 102.214 422.227 105.741 422.227 114.79C422.227 123.838 424.437 127.134 428.325 127.134C432.213 127.134 434.346 123.761 434.346 114.79Z" fill="#FE5000"/>
<path d="M451.975 114.713C451.975 100.603 459.981 93.0885 471.26 93.0885C480.787 93.0885 487.497 98.2263 489.63 108.425L477.74 110.802C476.673 105.279 474.693 102.749 471.718 102.749C467.83 102.749 465.773 106.429 465.773 114.709C465.773 122.989 467.83 126.592 471.718 126.592C474.769 126.592 476.903 123.985 477.74 118.466L489.707 121.15C487.65 131.041 480.787 136.256 471.26 136.256C459.977 136.256 451.975 128.895 451.975 114.709V114.713Z" fill="#FE5000"/>
<path d="M529.357 123.185L540.181 122.189C540.639 126.484 543.839 127.403 546.508 127.48C549.253 127.48 551.081 126.484 551.081 124.185C551.081 121.346 546.963 120.12 541.932 118.128C536.216 115.905 530.573 112.455 530.573 105.018C530.573 97.0418 537.206 93.0577 546.734 93.0577C556.185 93.0577 562.818 97.1995 563.579 105.479L553.061 106.552C552.526 103.026 550.239 101.568 547.269 101.568C544.6 101.568 543.151 102.718 543.151 104.637C543.151 107.398 546.81 108.471 551.081 110.082C559.312 112.997 564.496 116.678 564.496 123.808C564.496 133.391 555.198 136.229 547.039 136.229C537.89 136.229 530.42 132.703 529.353 123.192L529.357 123.185Z" fill="#FE5000"/>
<path d="M237.723 107.498C237.723 123.908 229.415 135.025 211.729 135.025H193.358V79.7402H211.729C229.415 79.7402 237.723 91.0119 237.723 107.498ZM223.317 107.498C223.317 96.3804 219.964 90.0928 211.729 90.0928H207.003V124.75H211.729C219.658 124.75 223.317 118.616 223.317 107.498Z" fill="#FE5000"/>
<path d="M404.682 107.498C404.682 123.908 396.375 135.025 378.688 135.025H360.318V79.7402H378.688C396.375 79.7402 404.682 91.0119 404.682 107.498ZM390.277 107.498C390.277 96.3804 386.924 90.0928 378.688 90.0928H373.963V124.75H378.688C386.618 124.75 390.277 118.616 390.277 107.498Z" fill="#FE5000"/>
</g>
<defs>
<clipPath id="clip0_33_733">
<rect width="487" height="90" fill="white" transform="translate(77.5 63)"/>
</clipPath>
</defs>
</svg>
