<svg width="29" height="27" viewBox="0 0 29 27" fill="none" xmlns="http://www.w3.org/2000/svg">
<path d="M10.8428 20.7935H17.6881C29.046 20.7935 28.1893 9.70079 28.1893 9.70079C28.1893 9.70079 27.9932 0 15.4671 0C11.8819 0 6.15474 1.01172 3.25075 1.71201L3.06839 4.05031C5.33068 3.74404 10.8565 3.21754 14.0186 3.21754C18.8218 3.21754 22.8045 4.97772 22.8045 10.2359C22.8045 14.9744 20.3444 17.1958 17.6313 17.1958H16.4529L17.3612 5.36485H10.5159C-0.842027 5.36485 0.0147223 16.4576 0.0147223 16.4576C0.0147223 16.4576 0.212557 26.1584 12.7369 26.1584C16.3221 26.1584 22.0493 25.1467 24.9533 24.4464L25.1356 22.1081C22.8733 22.4144 17.3475 22.9409 14.1854 22.9409C9.38216 22.9409 5.39949 21.1807 5.39949 15.9225C5.39949 11.1839 7.85963 8.96265 10.5727 8.96265H11.7511L10.8445 20.7935H10.8428Z" fill="#FD4F00"/>
</svg>
