<svg width="143" height="27" viewBox="0 0 143 27" fill="none" xmlns="http://www.w3.org/2000/svg">
<path d="M10.8428 20.7935H17.6881C29.046 20.7935 28.1893 9.70079 28.1893 9.70079C28.1893 9.70079 27.9932 0 15.4671 0C11.8819 0 6.15474 1.01171 3.25075 1.712L3.06839 4.05032C5.33068 3.74405 10.8565 3.21753 14.0186 3.21753C18.8219 3.21753 22.8045 4.97772 22.8045 10.2359C22.8045 14.9744 20.3444 17.1957 17.6314 17.1957H16.4529L17.3613 5.36484H10.5159C-0.842017 5.36484 0.0147218 16.4576 0.0147218 16.4576C0.0147218 16.4576 0.212566 26.1584 12.7369 26.1584C16.3222 26.1584 22.0493 25.1467 24.9533 24.4464L25.1356 22.1081C22.8733 22.4144 17.3475 22.9409 14.1854 22.9409C9.38216 22.9409 5.3995 21.1807 5.3995 15.9225C5.3995 11.184 7.85963 8.96264 10.5727 8.96264H11.7511L10.8445 20.7935H10.8428Z" fill="white"/>
<path d="M56.1695 10.3685C55.4779 9.23285 54.4697 8.7356 52.8836 8.7356C50.1396 8.7356 48.168 10.6111 48.1594 15.095C48.1629 19.4034 50.2359 21.3029 53.176 21.3029C54.5661 21.3029 55.5295 20.7471 56.1454 19.5186L56.5187 20.9433H59.4606L59.476 9.0952H56.5118L56.1695 10.3685ZM53.8212 18.5568C52.7442 18.5568 52.1834 17.5382 52.1799 15.1173C52.1713 12.5811 52.8079 11.504 53.9192 11.504C55.077 11.504 55.5415 12.9167 55.5605 14.9435C55.5415 17.0392 55.0719 18.5568 53.8212 18.5568Z" fill="white"/>
<path d="M68.5371 18.5567H66.3677L66.1768 11.504H68.5974L68.5836 9.09512H66.1751L66.1837 5.9447H63.3829L63.2608 6.90652C63.075 8.13331 62.8496 9.09512 61.6453 9.09512H60.9967L60.9727 11.4816H62.3163L62.4178 17.9666C62.4419 19.5478 63.8698 20.9449 65.4646 20.9449H68.5406L68.5371 18.5567Z" fill="white"/>
<path d="M77.6517 10.3685C76.9602 9.23285 75.952 8.7356 74.3658 8.7356C71.6218 8.7356 69.6503 10.6111 69.6296 15.095C69.6296 16.4955 69.8481 17.6432 70.2662 18.5585C71.0868 20.446 72.6781 21.3029 74.6583 21.3029C76.0363 21.3029 77.0118 20.7471 77.6156 19.5186L78.001 20.9433H80.9428L80.9583 9.0952H77.9941L77.6517 10.3685ZM75.3034 18.5568C74.2265 18.5568 73.6553 17.5382 73.6502 15.1173C73.6536 12.5811 74.2901 11.504 75.4015 11.504C76.5129 11.504 77.0238 12.9167 77.0427 14.9435C77.0238 17.0392 76.5541 18.5568 75.3034 18.5568Z" fill="white"/>
<path d="M131.916 9.09517H127.99L125.509 12.8702L125.433 4.85559H121.752L121.728 20.9433H125.526L125.559 18.1989L125.532 15.2567L128.193 20.9433H132.165L128.528 14.2037L131.916 9.09517Z" fill="white"/>
<path d="M96.7358 15.0519C96.7358 10.9517 99.165 8.74585 102.552 8.74585C105.94 8.74585 108.347 10.9517 108.347 15.0519C108.347 19.1521 105.94 21.2925 102.552 21.2925C99.165 21.2925 96.7358 19.1091 96.7358 15.0519ZM104.312 15.0519C104.312 12.4228 103.665 11.3973 102.552 11.3973C101.439 11.3973 100.77 12.4228 100.77 15.0519C100.77 17.681 101.417 18.6393 102.552 18.6393C103.688 18.6393 104.312 17.6586 104.312 15.0519Z" fill="white"/>
<path d="M109.465 15.0295C109.465 10.9293 111.805 8.74414 115.103 8.74414C117.888 8.74414 119.849 10.2376 120.472 13.2005L116.995 13.8922C116.684 12.2869 116.104 11.5522 115.235 11.5522C114.098 11.5522 113.497 12.6224 113.497 15.0295C113.497 17.4367 114.1 18.4845 115.235 18.4845C116.126 18.4845 116.751 17.7274 116.995 16.1221L120.494 16.9015C119.892 19.7767 117.888 21.2925 115.101 21.2925C111.803 21.2925 109.463 19.1538 109.463 15.0295H109.465Z" fill="white"/>
<path d="M132.084 17.4918L135.248 17.2027C135.382 18.4502 136.318 18.7186 137.097 18.7409C137.899 18.7409 138.434 18.4519 138.434 17.7826C138.434 16.9584 137.232 16.6022 135.761 16.0224C134.09 15.3754 132.44 14.374 132.44 12.2112C132.44 9.89357 134.379 8.73389 137.164 8.73389C139.95 8.73389 141.866 9.93659 142.088 12.3437L139.014 12.6552C138.857 11.6297 138.19 11.2064 137.321 11.2064C136.542 11.2064 136.118 11.5402 136.118 12.0977C136.118 12.8995 137.189 13.2126 138.436 13.6806C140.843 14.5272 142.358 15.5974 142.358 17.669C142.358 20.4547 139.64 21.2788 137.256 21.2788C134.582 21.2788 132.397 20.2534 132.086 17.4901L132.084 17.4918Z" fill="white"/>
<path d="M46.8346 12.9323C46.8346 17.7018 44.4055 20.9331 39.2357 20.9331H33.8665V4.86438H39.2357C44.4055 4.86438 46.8346 8.14042 46.8346 12.9323ZM42.6232 12.9323C42.6232 9.70101 41.6426 7.87372 39.2357 7.87372H37.8543V17.9462H39.2357C41.5531 17.9462 42.6232 16.1636 42.6232 12.9323Z" fill="white"/>
<path d="M95.64 12.9322C95.64 17.7017 93.2109 20.933 88.0412 20.933H82.6719V4.86426H88.0412C93.2109 4.86426 95.64 8.1403 95.64 12.9322ZM91.4286 12.9322C91.4286 9.70089 90.448 7.8736 88.0412 7.8736H86.6597V17.946H88.0412C90.3585 17.946 91.4286 16.1635 91.4286 12.9322Z" fill="white"/>
</svg>
